<svg xmlns="http://www.w3.org/2000/svg" xmlns:rdf="http://www.w3.org/1999/02/22-rdf-syntax-ns#" xmlns:cc="http://creativecommons.org/ns#" xmlns:dc="http://purl.org/dc/elements/1.1/" width="250" height="300" viewBox="0 0 250 300"><metadata id="metadata42"><rdf:RDF><cc:Work rdf:about=""><dc:format>image/svg+xml</dc:format><dc:type rdf:resource="http://purl.org/dc/dcmitype/StillImage"/><dc:title></dc:title><cc:license rdf:resource="http://creativecommons.org/licenses/by-sa/3.0/"/><dc:creator><cc:Agent><dc:title>Lea Küchler</dc:title></cc:Agent></dc:creator></cc:Work><cc:License rdf:about="http://creativecommons.org/licenses/by-sa/3.0/"><cc:permits rdf:resource="http://creativecommons.org/ns#Reproduction"/><cc:permits rdf:resource="http://creativecommons.org/ns#Distribution"/><cc:requires rdf:resource="http://creativecommons.org/ns#Notice"/><cc:requires rdf:resource="http://creativecommons.org/ns#Attribution"/><cc:permits rdf:resource="http://creativecommons.org/ns#DerivativeWorks"/><cc:requires rdf:resource="http://creativecommons.org/ns#ShareAlike"/></cc:License></rdf:RDF></metadata><g fill="#B8BEC4"><path d="M120.847 159.477l.115-.005c.402-.464.985-.791 1.758-.834 2.874-.16 5.438-1.602 8.012-3.07.047-.201.088-.401.092-.616-.239-1.033-2.215-.721-3.65-.721-2.096 0-4.512-.21-6.223-.051-.789.073-1.799-.038-2.417.051-.455.066-.786.481-1.183.412-.006.298.297.514.411.822.129.35.108.921.206 1.389.051.243.21.42.206.617-.007.388-.324.691-.154 1.132.351.943 1.356.9 2.827.874zM74.215 137.622c-.486-.171-.929-.527-1.238-1.141-1.196-2.371-2.478-4.71-3.252-7.264-.024-.082-.03-.156-.046-.235-.084.053-.167.107-.261.149-.283.663-.573 1.641-.823 2.366-.183.529-.485.945-.566 1.337-.054.258.014.609 0 .926-.027.624-.166 1.312-.154 1.8.025 1.043.454 2.354.926 3.189.63 1.115 2.253 1.878 3.703 1.594.427-.083.832-.427 1.543-.412-.016-.406.111-.683-.051-.977.138-.452.184-.901.219-1.332z"/><path d="M63.247 145.486c2.093-.191 3.649.956 5.4 1.44 2.065 1.381 4.356 2.535 5.246 5.094-.007.216-.216.229-.154.515.197.248.438.196.617.462.211.315.109.853.463 1.08 1.324.033 3.024.012 4.423-.051.281-.404.854-.188 1.337-.309.348-.088.505-.463.823-.463.142-.127.261.08.463.051.316-.317.667-.601 1.234-.668.39-.382.825-.718 1.388-.926.27-.502.732-.812 1.183-1.133.161-1.091 1.091-1.412 1.491-2.264.146-.076.352-.094.463-.205.252-.251.174-.573.36-.875.128-.208.423-.25.617-.463.078-.085.142-.272.257-.411.107-.128.216-.239.309-.36.619-.81.363-.992-.154-1.594-.468-.545-1.358-1.556-1.954-2.314-.284-.361-.538-.592-.771-.875-.165-.199-.143-.46-.412-.565.022-.177-.02-.289-.051-.412-.85-.676-1.107-1.944-1.594-2.983-.614-.015-.56.726-.771 1.131-.234.448-.709.771-.668 1.183-.138.067-.273.138-.412.206-.104.696-.845.94-1.183 1.44-.159.235-.185.543-.36.771-.282.368-.855.683-1.286.926-.896.505-1.919 1.086-2.829 1.492-.556.61-1.39.941-2.417 1.08-.401.454-.949.106-1.543.154-.267.022-.555.167-.823.206-.836.122-1.991.197-2.726.051-.312-.062-.768-.313-1.08-.463-.413-.198-.833-.453-1.286-.668-.457-.217-.835-.584-1.234-.771-.305-.143-.654-.122-.926-.309-.284-.196-.691-.692-.926-1.029-.225-.324-.543-.745-.668-1.028-.064-.145-.005-.332-.052-.463-.118-.334-.415-.558-.565-.875.042 1.503.345 3.07.565 4.423.046.286-.066.58.206.772zM180.502 154.385c-.183.248-.358.523-.616.721-.131.099-.302.099-.463.205-.25.165-.414.496-.669.669-.727.494-1.376.784-1.491 1.646-.132.987.432 1.482.463 2.521.17.087.237.276.359.411.805.209 1.85.431 2.469.617.968.291 2.055.407 2.88.771a.664.664 0 0 1 .155.103 6.866 6.866 0 0 1 .562-2.434c1.007-2.331.193-4.661-1.102-6.803-.514.186-1.028.356-1.467.699-.372.291-.537.826-1.08.874zM174.177 153.305c.215.275.713.873 1.08.875.253.001.394-.227.72-.412.262-.147.637-.184.823-.309.237-.158.363-.445.565-.565.849-.504 1.599-.574 2.366-1.028.594-.04 1.108-.16 1.542-.36.313.123.657.135 1 .113-.797-1.15-1.664-2.231-2.373-3.209-.887-1.222-.907-2.792-.384-4.169-.185.159-.352.318-.506.423a12.47 12.47 0 0 1-1.954 1.08c-.282.403-.543.828-1.08.977-.039.225.022.36-.103.566-.417.643-1.514.886-1.954 1.697-.063.115-.064.389-.154.565-.228.445-.901 1.178-.823 1.751.037.271.422.677.617.977.212.325.426.783.618 1.028zM174.9 172.479c.726-.234 1.438-.49 2.113-.798-.506-.575-1.016-1.143-1.499-1.714-.554-.053-.607-.538-1.08-.565-.58-.034-.998.647-1.697.617-.528.945-1.442 1.505-2.622 1.8-.237.412-.049.845.021 1.257a35.422 35.422 0 0 0 4.764-.597z"/><path d="M181.373 175.631c0 .033.005.062.005.097.376.314.428 1.163-.206 1.234-.348-.254-.632-.564-.896-.894a30.795 30.795 0 0 1-4.771 1.34 31.698 31.698 0 0 1-5.09 1.062c-.042.605.031 1.341-.351 1.732-.681-.215-.925-.867-1.108-1.579a38.523 38.523 0 0 1-8.199-.208c.069.179.186.342.205.553.027.309-.229.54-.052.823-.192.321-.599.43-1.028.515a23.372 23.372 0 0 1-.407-2.082 35.257 35.257 0 0 1-6.144-1.58c.063.59.205 1.168.276 1.811.04.362-.05.764 0 1.131.117.867.502 1.675.309 2.521 1.098.146 1.891.839 3.034.771.31.154.507.325.977.205.957.638 2.071.411 3.292.721.729.185 1.441.548 2.16.617.399.038.795-.052 1.183-.052.36 0 .78.104 1.183.052.562-.073 1.002-.354 1.543-.309.231.02.481.157.72.154.549-.009 1.095-.292 1.646-.36.646-.08 1.302-.053 1.954-.103 1.778-.138 3.267-.737 4.68-1.234.51-.587 1.357-.458 1.903-.771.456-.263.972-.49 1.491-.771.815-.443 1.484-1.141 2.211-1.389.509-.174.776-.257 1.08-.565.16 0 .335.121.463 0 .33-.356.553-.819 1.028-1.029.219-.76.973-.981 1.44-1.491.311-.339.483-.787.771-1.132.45-.537 1.292-.907 1.286-1.748.485-.56.842-1.249 1.439-1.697.01-.859.666-1.523.771-2.417.133-1.123.271-2.14.729-2.994-.135.066-.277.118-.419.172-1.503 4.269-4.957 7.116-9.108 8.894z"/><path d="M178.6 168.425c.091.086-.046.173 0 .36.539.284.783.864 1.122 1.35 1.885-1.354 3.375-3.139 4.284-5.41-.4-.087-.771-.188-1.035-.362-.479.203-1.383.096-1.852-.154-.711.219-1.457.006-2.159.103-.634.088-1.181.534-1.801.463-.188.431-.606.948-.514 1.389.031.15.29.367.463.565.49.565 1.038 1.353 1.492 1.696zM152.956 171.644c.413-.12.892-.115 1.428.083 1.35.5 2.846.923 4.428 1.251-.168-.409-.854-1.039-1.143-1.158-.209-.086-.495-.031-.771-.103-.251-.065-.49-.257-.72-.309-.218-.05-.422.012-.617-.052-.387-.126-.577-.49-.978-.668-.906.065-.992-.688-1.748-.771-.261.255.093.585.103.926.009.336-.054.583.018.801zM167.241 173.47c-.089-.172-.178-.343-.264-.519.029-.198.187-.47.052-.669-.524.173-1.184.299-1.749.052-.391.347-1.233.24-1.697.514-.765-.264-1.535.267-2.263.104.033.151.035.304.026.457 1.803.243 3.67.354 5.532.321a2.17 2.17 0 0 1 .363-.26zM171.143 149.446c.574-.358.722-1.148 1.234-1.491.371-.165.905-.425.822-.875a16.022 16.022 0 0 0-2.726 0c-.917.077-1.663-.207-2.365-.36-.412-.089-.835-.045-1.234-.154-.561-.153-1.126-.438-1.697-.617-.612-.191-1.248-.31-1.749-.565-.524-.269-.964-.681-1.439-1.08-.482-.404-1.051-.737-1.44-1.131-.153-.156-.205-.447-.411-.669-.125-.134-.429-.224-.617-.411-.344-.342-.393-.802-.771-.771a.258.258 0 0 0-.154.154c.028.649-.451 1.634-.257 2.469.09.388.909 1.052 1.389 1.491 1.319 1.212 2.276 2.1 3.908 2.88 1.358.65 3.076 1.407 4.783 1.543.885.069 2.206-.089 2.724-.413zM173.508 135.509c.103.197.308.335.412.514.502.861.717 1.91.668 2.983-.021.454-.274.749-.205 1.286.559-.023.555-.61 1.028-.72.34-.438.553-.897.874-1.389.141-.214.345-.367.463-.566.257-.432.189-.708.154-1.131-.025-.307.077-.612.052-.926-.068-.838-.417-1.556-.721-2.314-.024-.163.093-.182.052-.36-.574-.532-.911-1.147-1.491-1.903-.414-.539-.921-1.025-1.234-1.44-.183-.241-.319-.689-.617-.668-.374.025-.662 1.134-.926 1.646-.239.464-.588 1.196-.565 1.594.058 1.016 1.343 1.523 1.852 2.674.101.23.103.525.204.72zM150.88 218.671c.017-.011.041-.012.061-.019a42.643 42.643 0 0 0-2.189-1.743 5.985 5.985 0 0 0-.752 2.431c-.093 1.042.01 2.482.104 3.497.041.449-.063.798.205.874.562.16.705-1.359.823-1.749.227-.748.635-1.293.823-1.748.279-.674.41-1.225.925-1.543zM153.143 227.671c.692-1.619 1.467-3.157 2.243-4.691-.306-.354-.62-.708-.953-1.057a47.148 47.148 0 0 0-1.957-1.922c-.823 1.397-1.549 2.757-2.008 4.43.297.993-.583 1.909-.668 2.829-.084.906.482 1.557.874 2.057.28.358.669.693.978 1.08.313.395.567.92 1.028 1.028.484-.56.021-1.657.103-2.468.279-.321.46-.716.36-1.286zM147.51 215.994a43.21 43.21 0 0 0-2.601-1.654 4.191 4.191 0 0 0-.253.886c-.16 1.043-.323 3.711-.051 4.628.339 1.141 1.203 2.38 2.006 2.88.15-.381.211-.843.154-1.285-.021-.152-.149-.309-.154-.463-.007-.2.137-.396.103-.617-.043-.277-.336-.491-.36-.771-.022-.272.207-.494.206-.771-.001-.219-.163-.383-.154-.565.032-.697.797-1.145.822-1.954.091-.099.188-.208.282-.314zM167.183 246.905c-.055-.599-.329-1.112-.515-1.595.625-.579-.128-1.135.154-1.902.037-.294-.294-.22-.257-.515.187-.808-.206-1.52-.258-2.263-.008-.116.107-.275.104-.411-.006-.158-.156-.289-.154-.411.003-.213.152-.446.154-.669.004-.64-.29-1.287-.309-1.954-.012-.396.174-.851.205-1.286.1-1.394.139-3.023.301-4.411-1.126-.229-2.151-.816-2.827-1.743a5.667 5.667 0 0 1-1.338-.321c-.014.034-.029.064-.044.099-.42 1.021-1 2.124-1.08 3.24-.126 1.766-.085 3.735-.051 5.862.015.966-.062 1.722.205 2.571.208.661.906 1.437 1.389 2.16 1.207 1.81 2.531 3.494 3.6 5.246.193.316.312.954.875.823.33-.611-.118-1.303-.206-1.955-.024-.185.069-.378.052-.565zM157.069 224.995c-.473.726-.771 1.565-.892 2.521-.074.166-.207.273-.257.463.06.513.175 1.051.154 1.595-.017.412-.349.754-.36 1.08-.006.165.13.387.154.616.095.893-.143 2.194 0 2.983.107.597.586 1.052.874 1.491.475.725.849 1.868 1.286 1.954.265.053.618-.162.668-.257.182-.341-.362-1.068-.103-1.902.062-.198.244-.312.309-.515.158-.501-.107-.888 0-1.286.079-.292.413-.244.463-.565-.174-.55.447-.831.309-1.646.061-.18.367-.113.36-.36.223-.338.231-.732.411-1.131.078-.175.294-.324.36-.515.075-.219-.019-.467.103-.669a.4.4 0 0 1 .179-.147c-1.644-1.017-2.854-2.316-4.018-3.71zM65.594 154.896c1.562.141 3.077.532 4.082 1.187.425.277.821 1.122 1.491 1.028.468-.064.729-.796.72-1.285.232-.379.819-.583.823-1.028.006-.683-1.101-.97-1.131-1.749-.129-.094-.339-.106-.412-.257-.124-.819-.588-1.298-.771-2.059-.454-.146-.865-.335-1.286-.514-.502-.783-1.539-.823-2.263-1.184-.287-.144-.369-.437-.617-.566-.119-.062-.323.004-.463-.051-.348-.138-.565-.392-.875-.412-.225-.015-.412.061-.622.149 1.881 1.527 2.863 4.321 1.324 6.741zM83.554 178.255c.008-.139.02-.276.007-.418-.068-.756.097-2.522-.515-2.932-.431-.289-1.31-.064-1.903-.206-.623-.148-1.077-.61-1.697-.514-.39.397-.64.937-.72 1.646-.327.329-.729.584-.741 1.228 1.828.511 3.688.901 5.569 1.196zM70.435 174.061a35.557 35.557 0 0 0 5.208 2.263c.009-.241-.037-.46-.002-.698.18-1.226 1.261-1.942.617-3.343-.899-.438-1.567-1.107-2.468-1.543-.634.018-1.06-.174-1.492-.359-.299.074-.376.522-.668.617-.246.079-.543-.078-.771 0-.298.101-.498.571-.771.72-.429.232-.852.198-1.131.565-.268-.064-.519.038-.763.177.613.582 1.347 1.12 2.241 1.601zM86.595 177.733c-.206.167-.279.457-.339.77 3.715.066 7.191-.063 9.828-.104-.218-.859-.607-1.692-.437-2.672.081-.465.27-.849-.103-1.285-.938-.336-1.681.267-2.263.36-1.011.162-2.008-.146-3.034-.052-.143.013-.331.132-.463.154a14.256 14.256 0 0 1-3.086.154c.08.824.224 1.643-.309 2.211.032.193.145.303.206.464zM95.969 184.388c-4.076.038-8.313.396-12.501.342-.373.353-.82.723-1.039.719-.299-.005-.296-.382-.221-.748-2.604-.09-5.181-.368-7.678-1.018a21.831 21.831 0 0 1-2.667-.89c-.451.312-.912.587-1.52.443.084-.395.422-.571.737-.769-4.356-1.929-7.938-4.978-12.098-7.466.035.12.073.239.098.366 1.161 1.102 1.866 2.66 2.88 3.908.515.147.708.662 1.08 1.029.296.293.719.469 1.029.771.151.147.211.366.36.515.292.291.757.521 1.131.823.366.294.72.615 1.08.874.768.552 1.526 1.334 2.314 1.646.276.109.607.092.875.206.618.265 1.261.599 2.005.822.212.007.322-.089.566-.051.371.229.852.348 1.491.309 2.603.823 5.49 1.362 8.64 1.748.233-.041.235-.313.514-.309 1.323.463 2.872.443 4.577.566.732-.35 1.768-.289 2.623-.258.526-.623 1.371-.128 2.108-.257.137-.024.275-.138.412-.154.573-.071 1.194.053 1.8-.103.588-.151 1.366-.109 2.057-.154.137-.947.04-1.596.257-2.418a2.915 2.915 0 0 1-.173-.612 2.567 2.567 0 0 1-.737.12zM66.847 170.818c.408-.394.838-.882 1.233-1.107.818-.468 2.84-1.41 2.88-2.212.028-.55-.491-.955-.669-1.594-.114-.41-.079-1.025-.309-1.337-.34-.463-1.808-.409-3.034-.463a16.526 16.526 0 0 0-1.601.024c-.003 2.439.287 4.739 1.5 6.689zM65.406 162.041c.571-.041 1.145-.079 1.697-.147.424-.053.813-.302 1.234-.309.528-.008 1.089.353 1.594.154-.113-.664.226-1.16.257-1.594.045-.634-.369-.96-.617-1.389-.742-1.284-1.933-1.935-3.292-2.571a8.933 8.933 0 0 0-.712-.291c.101 2.027-.065 4.113-.161 6.147zM202.103 238.729c-.396-1.342-.062-2.624-.309-3.909-.041-.213-.202-.356-.257-.565-.132-.504-.062-1.04-.052-1.44.013-.519-.294-1.051-.206-1.748-.397-.271-.128-1.209-.411-1.595.411-.638-.362-1.094-.565-1.594.28-.528-.136-.833-.258-1.234-.055-.181-.001-.38-.051-.565-.167-.617-.696-1.097-.669-1.595-.602-.649-.944-1.559-1.183-2.571-.528-.518-1.062-1.03-1.337-1.8-.277-.326-.652-.599-.926-.978-.13-.179-.146-.414-.309-.565-.213-.197-.569-.212-.771-.36-.125-.092-.144-.271-.258-.36-.118-.092-.396-.209-.565-.309-.585-.34-1.201-.303-1.852-.668-.281-.158-.436-.476-.72-.617-.312-.155-.754-.176-1.183-.257-.425-.081-.821-.286-1.183-.309-.29-.019-.561.062-.823.051-.518-.021-.911-.139-1.389-.103-1.214.093-2.188.428-3.137.771-.299.107-.647.298-.978.36-.685.128-1.45.055-2.006.359-.521.286-.949.832-1.285 1.234-.086.086-.303.041-.463.052-.21.537-.67.656-1.08.977-.355.277-.531.655-.978.771-.231.66-.708 1.075-.771 1.903-.525.749-1.056 1.689-.978 2.88-.293.541-.658 1.02-.771 1.748-.029.188.041.406 0 .617-.075.38-.371.671-.515 1.029-.323.804-.693 1.845-.771 2.88-.042.547.057 1.075 0 1.646-.112 1.136-.971 2.045-.565 2.983-.556.658-.266 1.956-.617 2.88.337.469.1 1.248-.104 1.748.07.376.181.712.309 1.028-.374.574-.015 1.155-.051 1.697-.071 1.068-.151 2.168.309 2.983-.545.639.29 1.705-.154 2.417.268.355.136.747.154 1.183.047 1.121.534 2.198.822 3.24.074.267.03.576.104.823.063.218.25.392.309.616.213.828.15 1.487.463 2.109.18.358.604.598.822 1.028.079.155.08.361.154.515.498 1.028 1.472 1.673 2.212 2.417.354 1.271 1.715 1.345 2.828 1.902.179.09.29.24.463.309.803.317 1.738.314 2.417.823 1.367.17 2.626.413 3.909.463 3.148.121 6.128-.956 8.331-2.469 2.087-1.433 3.979-3.654 4.886-5.914.439-1.095.593-2.486 1.132-3.343-.029-.823.357-1.401.565-2.109.348-1.182.569-2.799.565-4.319-.005-1.82.149-3.782-.103-5.503-.078-.555-.308-1.086-.15-1.643zM102.151 235.72c-.043-.245-.109-.521-.129-.771-.019-.234-.272-.43-.309-.668-.068-.446.084-.961.051-1.44-.051-.759-.795-.858-.9-1.594-.033-.228.02-.447 0-.668-.105-1.191-2.412-3.168-3.196-4.452a84.92 84.92 0 0 1-2.175 1.329 5.226 5.226 0 0 1-1.693.647c.03.047.062.093.091.142-.007.726.536.903.823 1.337.297.939.497 1.908.874 2.828.229.559.745.918.617 1.697.256.275.43.633.36 1.234.559.802.382 2.092.669 2.983-.284.569.084 1.07.309 1.439.011.285-.276.272-.257.565.006.217.199.247.206.463-.268.592.06 1.365 0 2.058-.048.567-.635 3.556-.026 3.939.267-.625 1.858-3.045 1.855-3.939.305-.346 2.437-4.002 2.652-4.533.182-.448.267-.803.127-1.361-.053-.206.093-.997.051-1.235zM105.776 228.212c-.22-.27-.459-.257-.488-.643-.019-.264.307-.522.309-.771.003-.426-.43-.738-.566-1.183-.112-.368.033-.641-.154-1.028-.124-.15-.449-.1-.514-.309-.21-.882-.575-1.611-1.075-2.204-1.506 1.271-3.133 2.45-4.858 3.569 1.098.338 2.654 1.239 2.706 1.67.964.442 1.107 2.124 1.939 2.698-.008.639.337.944.565 1.286.202.302.29.711.617.874.545-.143.662-.785.798-1.285.088-.325.419-.603.463-.926.04-.294-.116-.567-.051-.875.072-.337.357-.512.309-.873zM108.864 220.111c-.391-.172-.223-.588-.309-1.029-.024-.124-.163-.24-.206-.359-.133-.366-.087-.787-.257-1.08-.145-.012-.323.012-.456-.012a28.7 28.7 0 0 1-2.464 2.733c.506.537.783 1.186 1.146 1.702.176.253.382.333.462.566.043.123-.009.399.052.565.048.132.223.213.36.411.163.237.356.615.412.771.191.546.2 1.591.901-.155.171-.426.3-.541.462-.926.102-.24.348-.274.36-.515.015-.283-.016-.434-.128-.771-.214-.643-.41-1.338-.335-1.901zM111.384 211.42c-.046-.009-.076-.037-.118-.051a24.61 24.61 0 0 1-1.911 3.802c.193.286.503.456.587.852.157.151 1.06 1.824 1.133 2.059.068.38.127.877.412.926.702.12.413-2.823.514-3.524.033-.228.148-.359.154-.515.015-.357-.079-1.007 0-1.389-.505-.473-.213-1.741-.771-2.16zM91.833 247.89c-.151-1.08-.469-2.012-.72-2.932.541-.362.182-1.149-.103-1.543.292-.433.062-.67-.051-1.08-.09-.325-.045-.74-.103-1.08-.016-.097-.131-.186-.154-.309-.091-.481-.092-.65-.257-.926-.013-.218.134-.276.103-.514-.672-1.06-.383-3.362-1.129-4.347.21-.735-.119-1.24-.463-1.852-.235-.417-.466-.924-.669-1.183-.474-.606-1.107-.919-.977-1.955-.456-.366-.758-.888-.977-1.491-.556-.421-1.075-.879-1.286-1.646-.515-.377-.935-.848-1.131-1.543-.421-.333-.89-.618-1.132-1.132-.651.053-.892-.555-1.286-.874-.203-.164-.49-.211-.72-.359-1.032-.669-1.996-1.729-3.292-2.006-.595-.468-1.702-.424-2.571-.617-.578-.77-2.207-.575-3.24-.309-.56.074-.835-.334-1.44-.257-.442.056-.743.625-1.131.668-.442.05-1.425.601-1.802.644-.672.078-.764.973-1.543.926-.422.642-.741.819-1.491 1.131-.107.425-.704 1.209-1.055 1.39.016.974-.953 1.187-.72 2.211-.242.24-.43.369-.309.875-.167.29-.292.498-.487.874-.065.125-.002.248-.052.411-.056.188-.238.382-.309.617-.135.456-.103.878-.257 1.337-.094.278-.323.383-.36.617-.041.257.135.624.052.875-.675.521-.292 1.792-.926 2.365-.091.531-.002 1.022 0 1.543.001.525-.194 1.122-.103 1.595.03.154.183.299.206.463.094.672-.099 1.536 0 2.211.061.411.291.711-.051 1.028.098 1.795.439 3.024.514 4.783.036.205.273.207.309.411-.192.359.15.642.206.926.062.316-.06.646 0 .926.028.135.17.238.206.36.042.146-.026.311 0 .463.206 1.214 1.121 1.815 1.131 3.24.612.947.682 2.438 1.183 3.497.545.466.818 2.054 1.234 2.649-.089.568.245.716.36 1.08.122.101.477-.031.514.154.091.097.038.34.051.514.183.161.366.32.617.412 2.286 3.097 5.567 5.537 10.492 6.041 2.914.299 5.628-.371 7.508-1.337.632-.324 1.193-.83 1.903-1.183.689-.342 1.799-.454 1.8-1.44.298-.113.376-.445.617-.617.027-.144.075-.267.103-.411.427-.48.663-.995 1.029-1.594.63-1.031 1.32-2.57 1.543-3.857.083-.482-.001-.998.103-1.491.065-.309.335-.548.412-.823.167-.604-.182-1.136-.103-1.8.034-.288.271-.54.309-.823.083-.638-.126-1.191.154-1.748-.418-.526-.157-1.434-.259-2.158zM94.405 249.689c-.113.163-.068.524.154.515.1-.116.044-.387 0-.515h-.154zM74.046 119.36l-8.077 2.09-.563 4.516 3.971 1.429 4.838 4.157.383-13.166zM177.674 119.669h-7.373l1.15 7.726 1.757-1.938 2.717.589 1.389 1.646 1.487-2.845v-5.178zM74.598 105.827s2.705-9.774 3.372-11.108 48.333-11.5 48.333-11.5h-17.794l-29.373 3.667-4.539 2.333v16.608z"/><path d="M109.355 224.995l2.802-5.984.812-5.456s6.663 2.963 13.999 4.981c7.334 2.019 16.667 2.876 16.667 2.876s2.737 4.245.825 4.301-20.374-1.99-20.374-1.99l-14.731 1.272z"/><path fill-rule="evenodd" clip-rule="evenodd" d="M184.006 264.04s-35.054 11.816-39.546 3.207-4.613-11.359-3.928-14.859 7.219-2.5 5.452-7.75-8.598-6.368-15.771-9.348c-7.506-3.118-22.963-3.026-22.963-3.026l2.104-7.269h35.105s25.911 28.037 28.787 36.389c1.258 3.65 10.76 2.656 10.76 2.656zM71.776 268.666s-31.807-2.358-30.557-7.108 4.25-19.67 7.25-20.42 8.728-3.739 8.728-3.739.703 12.823 4.272 17.739 10.307 13.528 10.307 13.528z"/></g><path fill-rule="evenodd" clip-rule="evenodd" d="M130.257 82.023c.758-.268 1.615.319 2.16-.051.406.417 1.595-.278 2.159.154.506-.53 1.237.001 1.903.051.383.029.878-.147 1.337-.103.373.036.688.247 1.028 0 .358.321.817.035 1.286 0 .688-.051 1.666.161 2.366.154.419-.003.78-.21 1.079.154.602-.288 1.382-.204 1.903.103.244-.116.475-.246.874-.206.251.041.149.434.309.565.367-.168.726.146 1.132.154.179.004.282-.135.463-.154.268-.028.722.109 1.08.103.373-.006.654-.117.977.103.481-.297.924-.025 1.543.051.24.03.471-.04.669 0 .142.029.279.174.411.206.637.153 1.32-.034 1.903 0 .204.012.411.184.617.206.204.021.452-.064.668-.052.843.05 1.479.774 2.006.771.233-.001.39-.25.669-.257.274-.007.903.345 1.543.309.582-.034.865-.287 1.285-.154.373.117.586.471.669.771.643-.136.962.298 1.594.309.496.008.865-.401 1.286-.411.781-.019 1.09.653 1.543 1.183.732-.266.957.264 1.491.463.004.351-.188.442-.154.875.026.334.271.602.257.926-.015.349-.317.561-.565.667-.419.18-1.997-.925-2.777-1.286-1.041-.481-2.254-.583-3.343-.771-2.369-.411-4.737-.889-7.2-1.08-2.608-.202-5.279-.259-7.766-.514-3.824-.392-7.399-.698-11.417-.874-1.209-.053-2.414-.098-3.651-.154-3.201-.146-6.506-.06-9.822-.206-3.808-.167-7.767.095-11.469.257-5.402.237-10.752.372-15.84.875-1.438.142-2.87.224-4.269.411-1.364.183-2.603.502-3.908.72-1.248.208-2.587.412-3.909.668-1.061.206-2.108.678-3.24 1.029-.436.135-1.063.284-1.646.463-.509.156-1.253.876-1.543 1.133-.476.42-.448 1.828-.411 2.726.21 5.12.55 10.711.72 15.892-.066.139-.178.233-.206.412.149.931-.119 1.858-.051 2.726.039.498.236.937.308 1.491.17 1.292-.053 2.643.154 3.96-.009.248-.248.266-.257.514.322.862.43 2.359 0 3.24.316.942.192 2.422.257 3.909a40.488 40.488 0 0 1-.257 6.48c-.052.43-.193.926-.154 1.131.097.509 1.178.89 1.389 1.286-.051.499.306.872.257 1.286-.046.395-.544.602-.771.925-.44.627-.503 1.614-.925 2.211.201.535-.238.954 0 1.337.425-.026.736-.404 1.028-.668.893-.808 1.414-1.771 2.108-2.932.596-.995.991-2.098 1.903-2.726.996-.049 1.646.424 2.314.823.522.311 1 .604 1.594.823.099.604.509.897.617 1.492 1.031 1.283 1.809 2.819 2.623 4.32.723.495 1.186 1.249 1.852 1.8.022.166.098.279.103.463.591.375.851.528 1.08 1.286.063.208.198.503.206.617.112 1.576-1.657 2.93-1.903 4.269-.444.149-.399.549-.668.926-.346.483-1.028.694-1.286 1.185-.049.094.004.303-.051.463-.109.312-.653.662 0 .978.495.238 1.649.051 2.211.051 4.642 0 9.354.043 13.834-.154 1.277-.056 2.8-.083 3.96-.103.417-.007.842-.219 1.08-.257.595-.096 1.304.096 1.749.051.41-.041.834-.363 1.08-.411.037-.26-.251-.194-.257-.411-.473-2.267-1.939-3.743-2.572-5.917-.03-.167.035-.239.052-.36-.239-.498-.382-1.092-.72-1.491-.045-1.052-.548-1.646-.668-2.623.168-.26.345-.512.309-.977.709-.679 1.431-1.346 2.314-1.852.936.027 1.308-.705 1.903-1.08.395-.249.857-.269 1.389-.463.399-.146.732-.49 1.131-.669 2.116-.95 4.081-1.826 6.583-2.417.951-.225 1.956-.539 2.932-.668.888-.118 1.89-.084 2.726-.154 1.052-.088 2.133.011 3.445.154.684.075 1.424.246 2.211.411.403.085.815.238 1.337.412.382.127.71.542 1.389.463.189.402.636.348 1.08.566.413.202.745.524 1.132.72 1.734.879 3.691 1.484 5.194 2.623.141.123.329-.101.462.051.472.197.667.67 1.338.668.471.78 1.481 1.646.977 2.777-.69-.018-1.02.504-1.594.309-.556.137-.539.655-.721 1.389-.15.608-.423.939-.359 1.543-.07.221-.27.313-.36.514-.03.889-.465 1.969-.565 2.931-.017.162.062.325.052.515-.008.12-.136.236-.154.411-.013.117.073.257.051.36-.039.187-.234.392-.257.565-.017.127.076.263.052.36-.066.265-.312.488-.258.669.086.284.757.465 1.132.516.912.123 1.91-.043 2.88 0 5.1.225 10.544.183 15.789.309.863.021 1.727.155 2.52.257.722.094 1.676.497 2.211-.154-.379-.668-1.221-.577-1.748-.771-.595-.22-1.245-.44-1.749-.773-.375-.246-.803-.793-1.285-1.183-.984-.793-1.706-1.566-2.571-2.52-.541-.596-1.46-1.052-1.543-1.954-.034-.374.158-.764.205-1.234.053-.521-.029-1.08.052-1.594.096-.606.432-1.37.463-2.16.019-.473.041-.728.103-1.234.024-.198-.033-.47 0-.617.082-.354.708-1.19 1.029-1.542.147-.162.378-.222.565-.412.5-.507.972-1.695 1.954-1.389.214.067.355.288.36.669.183.16.366.319.617.411 1.021 1.354 2.374 2.62 3.702 3.806.442.395.842.894 1.286 1.183.691.449 1.744.908 2.623 1.028 1.532.211 2.853-.2 3.034-1.388.3-1.968-.777-3.931-1.595-5.194-.573-.887-1.342-1.626-2.159-2.212-.109-.836.649-1.162.977-1.8.186-.362.373-.778.515-1.131.386-.967.187-1.859-.309-2.674.053-.187.162-.318.206-.514-.008-.305-.35-.323-.412-.617-.081-.385.172-.939.104-1.389-.03-.21-.237-.243-.258-.463-.626-7.393-.926-15.471-1.234-22.937-.04-.98-.321-2.135.104-3.086a18.215 18.215 0 0 1-.104-2.263c.003-.246.139-.528.104-.771-.036-.241-.286-.378-.36-.617-.118-.378.041-.749-.206-1.028.025-.215.1-.381.154-.566-.301-.651-.02-1.299.052-1.954.027-.252-.077-.519-.052-.771.057-.555.498-1.014.566-1.492.239-.086.403-.248.617-.36.682.356 1.345-.463 1.954 0-.068.429-.146.848-.309 1.183.228.859.001 1.632-.104 2.417-.071.545-.003 1.146-.103 1.646-.064.327-.283.627-.309.977-.021.291.096.541.104.823.007.295-.083.538-.052.823.026.247.179.492.205.771.046.48-.122.98-.103 1.491.008.204.091.411.103.617.036.625-.137 1.231-.103 1.852.028.503.36.979.411 1.491.029.29-.116.593-.103.926.047 1.153.522 2.922.206 4.32-.041.179-.163.348-.258.514.553.682-.01 2.479.978 2.726 1.731.013 3.913-.516 5.349.257.104.739.758.917.978 1.542.075.217-.048.51.051.771.12.317.484.312.617.566.142.269.028.769.104 1.234.041.257.248.491.309.771.048.224-.023.437 0 .668.031.322.212.639.257.977.226 1.687.03 3.645-.052 5.452-.028.626.029 1.301 0 1.954-.025.585-.124 1.171-.051 1.697.057.412.374.745.463 1.131.038.17 0 .344.051.514.159.535.539.83.823 1.234.95 1.352 1.477 2.648 1.954 4.269.144.486.067 1.032.154 1.594.038.246.189.355.206.617.034.551-.141 1.523-.206 2.16-.116 1.126-1.076 2.032-1.234 2.88 2.199 1.981 4.531 4.004 6.377 6.48 1.593 2.136 3.207 4.303 4.269 6.997.158.399.177.842.309 1.285.351 1.178.965 2.214.978 3.497.002.255-.084.555-.052.823.075.628.522 1.883-.052 2.469.395.595.034 1.128-.051 1.646-.038.228.021.474 0 .72-.029.337-.194.656-.258.978-.069.358-.046.722-.153 1.08-.133.439-.382.843-.412 1.234-.026.339.15.728.104 1.08-.028.209-.231.434-.309.668-.078.237-.04.495-.104.669-.077.214-.345.429-.463.669-.117.239-.143.519-.257.72-.232.406-.668.574-.926.926-.198.27-.311.676-.463.977-.163.323-.242.712-.411 1.029-.336.627-.957 1.241-1.44 1.902-.474.648-.878 1.372-1.389 1.903-1.087 1.132-2.751 1.991-4.011 3.034-.212.175-.348.465-.566.617-.384.267-.96.505-1.439.771-1.085.601-2.267.844-3.497 1.439-1.256.607-2.638 1.01-4.114 1.389-2.829.726-6.334.365-9.721.515-.696.03-1.256-.031-1.902-.104-1.938-.217-3.999-.334-5.812-.617-.28-.199-.826-.351-1.286-.205-.008 2.936.47 6.511.669 9.72.117 1.889.203 3.564.309 5.246.163 2.594.749 5.118.206 7.56.892.65.727 2.358 2.108 2.521.151.425.067.731.257 1.028.265.413.989.381 1.132.926.438-.039.58.294.874.514.151.113.382.16.515.258.301.223.541.512.822.72.48.354 1.001.521 1.389.978 1.785.745 3.42 1.721 5.194 2.674.542.291 1.15.84 1.697.926.338.053.699-.163.977.103.458-.206.537-.691.875-1.028.475-.474 1.276-.696 1.491-1.439 1.311-.799 2.768-1.45 3.703-2.623.555-.012.724-.407 1.131-.566.121-.136.085-.429.206-.565 1.122-.353 2.14-.81 3.086-1.337.175.014.417-.04.514.052.288-.056.293-.394.566-.463.646.082 1.244.441 1.954.463.608.018 1.319-.154 2.006-.154.677 0 1.372.004 2.006.051.311.023.736.025 1.028.104.527.14.987.627 1.491.822.908.353 1.683.491 2.469.926.268.148.445.429.72.617 1.124.774 2.524 1.504 3.138 2.829.169.104.388.16.565.257 1.507 1.938 2.655 4.236 3.651 6.686.428.326.32 1.188.72 1.543-.047.872.361 1.729.669 2.417.011.881.378 1.405.514 2.16-.229.492.035.818.258 1.132.089 1.831.237 3.501.617 5.143-.275.684.203 1.234.309 1.852-.316.412-.032.926 0 1.439.026.429-.238.869.154 1.132-.522.813.057 2.306.154 3.6.049.65.115 1.184-.104 1.697.339.438-.023.744-.103 1.183-.024.136.058.312.052.463-.01.255-.16.576-.206.875-.056.367-.003.751-.052 1.08-.037.253-.178.49-.205.72-.042.348.083.677.051 1.028-.024.271-.244.55-.309.874-.057.291.001.615-.051.875-.075.377-.308.779-.412 1.183-.252.98-.166 1.569-.874 1.954-.028.234.091.32.052.565a7.076 7.076 0 0 0-.978 1.749c-.664.811-1.329 1.619-1.748 2.674-.332.474-.659.953-.875 1.543-.673.115-1.141.436-1.439.926-1.151.443-1.745 1.443-2.983 1.8-.393.327-.79.649-1.183.978-1.264.005-1.563.974-2.777 1.028-.167-.098.063-.439-.205-.514-.466-.085-.666.429-1.08.565-1.415.468-3.277-.013-5.04-.206-.642-.07-1.295-.132-1.954-.205-.665-.074-1.392-.026-1.955-.154-.344-.078-.836-.404-1.285-.617-.878-.416-1.648-.761-2.521-1.184-1.052-.509-1.972-1.017-2.674-1.8-.122-.684-.67-.941-1.183-1.234-.023-1.082-.959-1.629-1.234-2.623-.133-.21-.422-.263-.617-.411.216-.795-.391-.944-.669-1.337-.097-.137-.1-.369-.205-.565-.217-.403-.635-.812-.771-1.184-.133-.356-.069-.786-.36-1.08h-.463c-1.614-2.054-3.236-4.101-4.783-6.223-.532-.058-.652-.487-.926-.874-.373-.528-1.096-.919-1.234-1.595-1.776-1.137-2.471-3.357-4.165-4.577-.043-.145-.06-.317-.104-.463a4.645 4.645 0 0 1-1.183-1.594 3.667 3.667 0 0 0-.565-.36c-1.35-1.855-2.652-3.759-4.062-5.554-1.107-.899-1.978-2.034-2.881-3.138-.557-.488-1.056-1.035-1.439-1.697-.563-.276-.86-.819-1.234-1.285-.123-.213.079-.447-.052-.669-.226-.209-.542-.02-.874-.051-.69-.065-1.456-.529-2.314-.617-1.438-.147-3.202.105-4.68 0-.454-.033-.826-.215-1.286 0-.579-.362-1.257-.079-1.8 0-1.553.225-3.834-.001-5.604 0-.583 0-1.188-.128-1.749-.104-1.502.066-3.08.284-4.166-.051-.991.239-1.991.269-3.034.359-.4.035-.803.198-1.234.258-1.227.169-2.775.193-4.217.309-.66.052-1.362.148-2.057.205-1.011.082-2.08.305-2.571-.103-1.679 1.869-2.243 4.854-3.651 6.994v.565c-1.44 3.688-6.418 10.977-7.928 14.818-.234.597-.45 1.34-.771 1.903-.307.538-.876 1.093-1.028 1.595-.048.158.033.34 0 .514-.032.166-.181.321-.206.463-.028.155.065.299.052.463-.017.199-.196.509-.257.771-.07.3-.044.654-.103.874-.072.269-.36.548-.462.875-.056.176-.042.371-.103.514-.096.222-.334.375-.463.617-.159.298-.138.709-.257 1.028-.312.837-.994 1.709-1.542 2.572-.527.828-1.03 1.78-1.595 2.468-.758.925-1.846 1.743-2.726 2.469-.25.206-.406.536-.668.771-.342.307-.884.66-1.337.978-.99.693-1.853 1.393-3.445 1.131-.836.484-2.079.694-3.395.721a5.95 5.95 0 0 0-1.028.103c-.182.038-.32.174-.515.206-.473.077-1.194.066-1.646 0-.319-.048-.614-.384-.926-.412-.216-.02-.388.145-.617.154-1.285.056-2.471-1.081-3.754-.565-.256-.054-.306-.265-.565-.309-.201-.034-.445.097-.617.052-.239-.062-.337-.347-.514-.515-.211-.2-.44-.242-.515-.463-.707.004-1.029-.377-1.286-.823-.824-.118-1.032-.854-1.8-1.028-.505-.472-1.073-.881-1.337-1.594-.846-.218-1.147-.979-1.851-1.338-.027-.384-.4-.423-.309-.926-.053-.187-.197-.283-.412-.308-.021-.211.169-.208.103-.463-.417-.279-.859-.717-.823-1.286-.169-.493-.9-.603-.668-1.337-.528-.689-.559-1.875-1.028-2.623.083-.802-.442-1.432-.257-2.006-.119-.24-.435-.285-.566-.515-.001-.245.134-.465.103-.72-.025-.212-.256-.369-.309-.617-.039-.187.041-.405 0-.565-.064-.252-.333-.492-.411-.771-.121-.43-.049-.945-.412-1.234.327-.873-.145-1.522-.463-2.057.196-.292-.087-.586-.154-.978-.1-.577.138-1.182-.36-1.337.275-.554-.128-.953-.154-1.543-.02-.448-.065-.913-.027-1.389.017-.2-.061-.446-.051-.669.012-.28.119-.541.103-.771-.022-.307-.014-.572-.076-.926-.023-.131.365-.333.335-.463-.062-.261-.332-.456-.36-.72-.031-.294.206-.677.206-1.028 0-.193-.106-.396-.103-.565.005-.255-.037-.528-.026-.823.004-.141-.119-.326-.103-.463.04-.35.333-.681.36-.978.021-.193-.211-.396-.206-.617.006-.25.274-.384.412-.72.057-.14-.003-.344.051-.514.06-.187.229-.264.257-.412.038-.204-.04-.4 0-.565.072-.298.356-.5.411-.771.059-.288-.035-.6 0-.874.135-1.047.909-1.334.771-2.623.113-.247.443-.277.566-.515-.464-.719.391-1.11.103-1.748.028-.272.268-.168.36-.36.121-.251.01-.734.103-.977.138-.36.189-.508.333-.823-.009-.712.404-1.002.412-1.697.865-.737 1.482-2.612 2.187-3.652.222-.328.541.13.463-.462.352-.144.363-.578.668-.823.167-.134.489-.115.668-.257.21-.164.339-.437.412-.72.589.084 1.098-.197 1.183-.771.565.306 1.152-.203 1.697-.257.522-.052.916.11 1.08-.412.558.206.927-.274 1.389-.359.535-.1 1.101.1 1.389-.309.297.059.912.155 1.286-.104.516.222.986-.102 1.491-.154.442-.046.932.255 1.543.309.285.025.619-.078.875-.051.203.021.388.167.617.205.208.035.463-.035.617 0 .293.066.484.374.771.463.488.151.953.128 1.44.309.437.162.901.226 1.337.412.198.084.358.279.565.359.231.09.492.072.72.154 1.465.527 1.691.862 2.903 1.542.233.299.905.726 1.185.978.635.352 4.35-2.97 4.817-3.246.325-.192.681-.253.72-.669 1.082-.492 2.04-1.37 2.982-2.108.826-.647 1.692-1.199 2.366-1.954.028-.303-.207-.343-.257-.566.896-1.795-.092-4.969-.154-7.303-.006-.236.069-.448.051-.668-.051-.635-.294-1.305-.309-2.006-.009-.443.138-1.11.051-1.543-.042-.215-.229-.366-.257-.565s.062-.435.051-.669c-.011-.235-.144-.492-.154-.72-.017-.378.149-.75.103-1.132-.023-.19-.156-.32-.206-.515-.308-1.206-.235-2.655-.463-3.754-.046-.022-.092-.045-.103-.103-.68-.181-1.565.091-2.006-.258-.577.445-1.919.208-3.034.258-2.649.116-5.631.235-8.332-.104-.82-.103-1.618-.304-2.417-.411-1.463-.195-2.875-.249-4.269-.514-1.254-.239-2.47-.698-3.703-1.029-1.22-.327-2.542-.592-3.651-1.08-1.649-.726-3.205-1.323-4.371-2.417-.489-.123-.857-.468-1.234-.771-1.148-.923-2.557-1.69-3.651-2.726-.767-.725-1.312-1.623-1.955-2.469-.16-.046-.24-.172-.411-.205-.638-1.042-1.416-1.944-1.697-3.344-.689-.954-.896-2.301-1.234-3.651-.177-.707-.481-1.558-.463-2.159.014-.452.194-.834.154-1.234-.034-.337-.206-.628-.206-.978 0-.604.025-1.24.154-1.8-.021-.22-.237-.243-.257-.463.367-.638-.089-1.513.257-2.212-.404-.76-.03-1.934.411-2.468-.06-1.16.677-2.063.823-3.086.025-.175-.041-.32 0-.463.057-.202.227-.324.309-.515.129-.301.076-.689.36-.874-.156-.393.155-.693.257-1.028.112-.369.114-.813.257-1.184.344-.887.773-1.711 1.234-2.365.675-2.001 2.132-3.218 3.446-4.579.146-.659-.224-1.271-.309-1.955-.087-.7.09-1.544.051-2.366-.035-.742-.153-1.505-.154-2.211-.001-.87.159-1.796.206-2.674.052-.964.003-1.915.103-2.726.051-.418.323-.841.412-1.286.041-.205-.024-.382 0-.566.066-.507.354-.779.565-1.286.223-.534.212-1.149.617-1.491-.155-.758.568-.925.823-1.44.151-.306.155-.604.309-.823.319-.454 1.048-.878 1.234-1.543.077-.274.067-.656.051-.875-.022-.304-.252-.51-.308-.874-.03-.194.07-.424.051-.617-.029-.302-.192-.642-.257-.977-.506-2.616-.502-5.988-.72-9.154.327-.135.697-.387 1.131-.257.323-.123.531-.36.771-.566.916-.074 1.478-.536 2.52-.668.322-.041.684-.188 1.028-.257.83-.165 1.418-.339 2.108-.617.335-.596 1.456-.586 1.697-1.183.155-.382.034-1.162 0-1.8-.06-1.147-.049-1.757 0-2.88.059-1.328.265-2.782.154-3.857-.056-.542-.393-1.332-.411-1.954-.019-.64.087-1.189 0-1.749-.048-.307-.259-.562-.309-.875-.189-1.178.758-2.231.154-3.343-.04-.246.183-.229.154-.463-.285-1.498.047-3.541.103-5.194.15-.176.405-.247.669-.309.199-.349.448-.649.617-1.029.519.013.931-.394 1.389-.565.594-.223 1.301-.059 1.697-.566.591.084 1.196-.279 1.8-.154.463-.605 1.528-.486 2.572-.463.501.011.979-.129 1.44-.154.138-.007.287.109.411.103.224-.01.486-.29.771-.051.383-.337 1.12-.32 1.44-.72.606.182 1.351.022 2.058-.154.489-.122 1.028-.188 1.44-.309.251-.073.423-.294.668-.36.291-.079.522.068.823.051.559-.032 1.181-.385 1.749-.103.747-.258 1.587-.164 2.417-.36.453-.107 1.29-.414 1.903-.411.148 0 .314.112.463.103.191-.012.394-.127.617-.154.309-.037.662.049.926 0 .37-.068.816-.447 1.234-.36.269.056.271.325.514.412.207-.097.19-.37.412-.515.402-.262.976-.118 1.594-.206.201-.028.359-.171.566-.206.806-.134 1.541.263 2.057.103.121.171.186.397.411.463.234-.215.46-.191.823-.257.192-.035.372-.274.514-.309.148-.036.378.024.565 0 .286-.038.562-.233.823-.257.278-.026.51.079.823.103 1.656.126 3.623-.107 5.246.257.316-.118.567-.32 1.131-.308.346.007.711.139 1.08.103.307-.03.556-.159.771-.154.552.013 1.501.308 2.16.309.644 0 1.184-.16 1.749.051.919-.373 2.226-.301 3.343-.257.578.023 1.192-.182 1.594.206.679.061 1.274-.111 1.697.206.379-.089.581-.313.874 0 .368-.416.846-.383 1.125.094zm43.355 30.703c-.295 0-.575-.16-.875-.154-.58.011-1.166.215-1.491.565-.035 3.515.661 7.928.823 11.777.02.459-.138.99.205 1.389.335-.147.43-.518.721-.72.342-.237.851-.413 1.389-.668.634-.302 1.168-.762 2.005-.668.524.458.735 1.487 1.595 1.44.104-2.184.094-4.263-.309-6.017-.156-.682-.496-1.429-.515-2.006-.026-.827.218-1.474.154-2.057-.084-.773-.566-1.147-.771-1.697-.128-.345-.099-.759-.309-1.131-.776-.503-1.868-.054-2.622-.053zm-99.771 1.388c-.02-.175-.175-.367-.206-.565-.07-.458.119-1.022-.309-.926-.685.154-1.726.708-2.469 1.029-.922.398-1.716.555-2.469.874-.292.124-1.7.763-1.8.977-.111.24-.053.892-.051 1.183.013 2.89.92 6.142.72 8.846.626.762 2.047.729 3.292.874.926 1.166 1.908 2.275 2.983 3.292.374-.734.038-1.75.206-2.726.035-.199.188-.365.206-.566.03-.339-.169-.692-.154-1.028.008-.186.135-.359.154-.514.043-.354-.117-.679.103-.978-.507-.346-.142-.737-.103-1.183.051-.585-.158-1.292-.103-2.006.036-.471.282-.86.206-1.337-.019-.117-.142-.233-.154-.36-.122-1.226.183-2.332-.257-3.24.184-.437.28-.983.205-1.646zm101.776 29.984c.265-.083.581-.048.823-.154.427-.187.602-.69 1.132-1.029.389-.249 1.028-.422 1.285-.72.162-.188.238-.527.412-.771.578-.817 1.472-1.562 1.748-2.52.106-.37.13-.957.206-1.44.084-.538.18-1.079.154-1.491-.026-.424-.235-.872-.309-1.337-.267-1.673-1.114-2.878-1.8-4.012-.264-.434-.399-.922-.617-1.286-.312-.521-.818-.995-1.338-1.646-.427-.535-.994-1.437-1.389-1.646-.847-.45-1.621.408-1.954 1.029.947.777 1.584 1.719 2.366 2.777.556.752 1.253 1.406 1.697 2.109.729 1.154.869 2.593.977 4.371-.127 1.113-.449 1.818-.874 2.674-.613 1.236-1.147 1.725-2.263 2.469-.586.391-1.149.899-1.595 1.131-.612.319-.946.326-1.543.36-.484.028-.982.272-1.439.257-.897-.029-1.81-.354-2.777-.463-.938-.718-2.279-.917-3.291-1.697-.86-.662-1.436-1.604-2.16-2.417-.298-.333-.659-.706-1.08-1.183-.348-.393-.853-1.143-1.183-1.131-.541.02-1.066 1.113-1.338 1.389-.208.211-.546.261-.565.566-.034.521 1.03 1.302 1.389 1.697.556.612.934 1.22 1.439 1.646.145.061.296.116.463.154.396.398.893 1.146 1.543 1.491.174.092.441.091.669.206.424.213.835.63 1.234.771.135.047.344.005.514.051.269.072.518.282.721.309.228.03.488-.076.72-.051.203.021.453.168.669.206.424.073.875-.013 1.285.051.471.074.925.309 1.389.36.538.059.99-.114 1.491-.154.647-.052 1.346.026 1.852-.462.655.131.862-.315 1.337-.464zM66.486 127.28c-.232.27-.222.748-.36 1.08-.142.344-.472.587-.668.926-.129.222-.141.506-.257.72-.185.34-.528.576-.668.926-.113.281-.075.601-.154.875-.064.221-.203.404-.257.617a12.525 12.525 0 0 0-.36 2.211c-.052.789.147 1.247.257 1.903.08.479.069.993.154 1.388.263 1.222 1.064 2.79 1.697 3.6.291.373 1.067 1.111 1.44 1.337.861.521 2.76.875 3.857.977 2.08.194 3.115-.534 4.783-.823.9-.643 2.01-1.076 3.086-1.543.786-.877 1.613-1.713 2.417-2.571.154-.17.156-.397.309-.617.322-.463 1.521-1.445 1.44-2.16-.041-.359-.527-.528-.823-.72-.376-.244-.565-.54-.977-.617-.847 1.23-1.336 2.818-2.314 3.908-.449.5-1.014.842-1.491 1.286-.74.687-1.521.942-2.366 1.542-.992.058-1.991.717-3.086.771-1.985.099-3.856-.696-4.886-1.749-.26-.991-.809-1.694-.926-2.829-.129-.265-.469-.32-.514-.668.093-.572.25-1.208.206-1.8-.013-.168-.139-.354-.154-.515-.031-.339.181-.745.206-1.131.014-.219-.069-.451-.052-.617.02-.181.165-.369.206-.565.071-.343-.004-.738.051-1.08.116-.711.526-1.326.771-1.749.114-.197.15-.443.257-.617.304-.494.936-.801.978-1.44-.469-.02-1.22-.533-1.802-.256zm2.932 1.852c-.283.663-.573 1.641-.823 2.366-.183.529-.485.945-.566 1.337-.054.258.014.609 0 .926-.027.624-.166 1.312-.154 1.8.025 1.043.454 2.354.926 3.189.63 1.115 2.253 1.878 3.703 1.594.427-.083.832-.427 1.543-.412-.016-.406.111-.683-.051-.977.346-1.122.118-2.227.565-3.086.22-.42.721-.78.72-1.183 0-.518-.873-1.163-1.234-1.543-1.401-1.477-2.749-2.89-4.114-4.217-.003-.031-.008-.061-.051-.051-.176.065-.299.182-.464.257zm105.376 1.851c-.414-.539-.921-1.025-1.234-1.44-.183-.241-.319-.689-.617-.668-.374.025-.662 1.134-.926 1.646-.239.464-.588 1.196-.565 1.594.058 1.016 1.343 1.523 1.852 2.674.102.23.104.525.205.72.103.197.308.335.412.514.502.861.717 1.91.668 2.983-.021.454-.274.749-.205 1.286.559-.023.555-.61 1.028-.72.34-.438.553-.897.874-1.389.141-.214.345-.367.463-.566.257-.432.189-.708.154-1.131-.025-.307.077-.612.052-.926-.068-.838-.417-1.556-.721-2.314-.024-.163.093-.182.052-.36-.575-.532-.911-1.147-1.492-1.903zm-34.457 8.126c-.714-.606-1.518-1.123-2.521-1.44-.195-.131-.321-.33-.514-.463-.585.073-.734-.355-1.029-.514-.094-.051-.248-.009-.359-.052-.492-.188-1.029-.599-1.543-.668-.214-.029-.456.052-.669 0-.26-.064-.424-.368-.668-.463-.244-.094-.701-.029-1.08-.154-.152-.05-.264-.217-.412-.257-.745-.203-1.661-.226-2.262-.257-.353-.019-.629-.257-.977-.309-.625-.092-.919.178-1.286.206-.192.015-.367-.09-.566-.103-.776-.048-1.351.162-2.005.206a22.252 22.252 0 0 0-2.314.257c-.805.827-2.373.756-3.6 1.234-.306.12-.539.414-.823.515-.469.167-1.02.129-1.492.206-.31.331-.603.968-1.286.617-.275.616-1.443.339-1.697.977-.541-.112-.57.288-.926.36-.113.114-.21-.051-.412 0-.58.177-.947.684-1.44 1.131-.405.368-1.142.732-1.337 1.234-.447 1.149.991 1.55.926 2.777.121.12.343.137.412.309.304 1.119.977 1.869 1.234 3.034.405.177.712.454.668 1.081.711.729.763 2.118 1.286 3.036.664.551 1.283.217 2.16 0 .837-.208 1.706-.028 2.468-.258-.133-.363-.2-.511-.333-.875.504-.417-.038-1.544.127-2.264-.237-.997-.357-2.086-.257-3.189-.039-.167-.229-.182-.257-.36.01-.559-.088-1.009-.309-1.337.048-.457-.15-1.027-.309-1.44.262-.533.098-1.26-.257-1.594.504-.233.627-.855.438-1.362.331-.256.392-.607.463-1.029.461.215.734-.494 1.105-.129-.21.455.064 1.686-.051 2.058.087.39.373.781.154 1.183.45.264.336.778.565 1.234-.281.862.186 1.645.257 2.417.055.592.135.885.206 1.286.148.834-.102 1.721.309 2.211-.241.878.103 1.651.154 2.521-.143.183-.286.366-.309.669 1.106.186 2.733.104 3.96.104.425 0 .949.121 1.234-.154.076-.254.024-.326-.076-.618-.047-.138.002-.414-.051-.67-.112-.528-.042-.872.232-1.285-.007-.199-.174-.238-.154-.463.197-.267-.074-.716.025-1.081.039-.279.006-.203.078-.514.98-.391-.578-1.512-.026-2.366-.513-.841-.057-2.116.154-2.983-.646-.298-.127-1.178-.617-1.543.279-.495-.094-1.134.335-1.646-.059-.199-.264-1.423.179-1.749.068-.05-.055-.023.025-.103.315-.315.413-.791.926-.823.343.318.141.911.463 1.286-.398.321-.205.896.154 1.131-.442.418.376.758-.052 1.183.542.254.255.641.206 1.131-.011.106.105.243.103.36-.008.324-.19.569-.154.823.044.307.31.475.309.823-.029.211-.275.205-.257.463.115.408.021.792.257 1.132-.39.601.128 1.129.206 1.646.026.17-.069.441-.051.668.04.508.291.919.051 1.337.091.235.257.395.36.617-.625 1.089-.508 2.116.179 2.779.02.244-.109.37 0 .565 1.378.232 3.521.142 4.551-.309.448-.621-.25-1.455.052-2.11-.018-.12-.062-.213-.104-.309.335-.505.322-1.358.412-2.109.013-.202-.187-.191-.154-.411.118-.373.295-.694.205-1.132-.047-.228-.284-.335-.309-.565-.014-.136.083-.29.104-.463.041-.356-.085-.81-.052-1.131.065-.646.388-1.304.463-1.903-.11-.285.39-1.547.926-1.697.168-.483.97-1.388 1.439-.617-.187.353-.012.568.052.926-.173.29-.359.566-.463.926.263.545-.111.974-.154 1.542-.018.235.068.486.052.72-.038.521-.281 1.039-.309 1.543-.021.395.151.863.103 1.286-.038.332-.147.594 0 .874-.573 1.728.237 3.268 0 4.888.297.08.573.181.874.258.681-.329 1.691-.035 2.521-.154.372-.055.664-.284.977-.206.189-.297-.128-.521-.154-.824-.042-.485.315-1.034.052-1.543.145-.671.696-1.269.771-2.058.027-.292-.073-.572-.052-.823.044-.5.373-.848.36-1.44.729-.968.703-2.691 1.543-3.549-.123-.586.301-.625.36-1.028-.465-.391-.905-.808-1.696-.874zm-56.879-.72c-.234.448-.709.771-.668 1.183-.138.067-.273.138-.412.206-.104.696-.845.94-1.183 1.44-.159.235-.185.543-.36.771-.282.368-.855.683-1.286.926-.896.505-1.919 1.086-2.829 1.492-.556.61-1.39.941-2.417 1.08-.401.454-.949.106-1.543.154-.267.022-.555.167-.823.206-.836.122-1.991.197-2.726.051-.312-.062-.768-.313-1.08-.463-.413-.198-.833-.453-1.286-.668-.457-.217-.835-.584-1.234-.771-.305-.143-.654-.122-.926-.309-.284-.196-.691-.692-.926-1.029-.225-.324-.543-.745-.668-1.028-.064-.145-.005-.332-.052-.463-.118-.334-.415-.558-.565-.875.042 1.503.345 3.07.565 4.423.047.286-.065.58.206.771 2.093-.191 3.649.956 5.4 1.44 2.065 1.381 4.356 2.535 5.246 5.094-.007.216-.216.229-.154.515.197.248.438.196.617.462.211.315.109.853.463 1.08 1.324.033 3.024.012 4.423-.051.281-.404.854-.188 1.337-.309.348-.088.505-.463.823-.463.142-.127.261.08.463.051.316-.317.667-.601 1.234-.668.39-.382.825-.718 1.388-.926.27-.502.732-.812 1.183-1.133.161-1.091 1.091-1.412 1.491-2.264.146-.076.352-.094.463-.205.252-.251.174-.573.36-.875.128-.208.423-.25.617-.463.078-.085.142-.272.257-.411.107-.128.216-.239.309-.36.619-.81.363-.992-.154-1.594-.468-.545-1.358-1.556-1.954-2.314-.284-.361-.538-.592-.771-.875-.165-.199-.143-.46-.412-.565.022-.177-.02-.289-.051-.412-.85-.676-1.107-1.944-1.594-2.983-.613-.015-.559.726-.771 1.132zm87.016 8.691c-.917.077-1.663-.207-2.365-.36-.412-.089-.835-.045-1.234-.154-.561-.153-1.126-.438-1.697-.617-.612-.191-1.248-.31-1.749-.565-.524-.269-.964-.681-1.439-1.08-.482-.404-1.051-.737-1.44-1.131-.153-.156-.205-.447-.411-.669-.125-.134-.429-.224-.617-.411-.344-.342-.393-.802-.771-.771a.258.258 0 0 0-.154.154c.028.649-.451 1.634-.257 2.469.09.388.909 1.052 1.389 1.491 1.319 1.212 2.276 2.1 3.908 2.88 1.358.65 3.076 1.407 4.783 1.543.887.07 2.208-.088 2.726-.411.574-.358.722-1.148 1.234-1.491.371-.165.905-.425.822-.875a15.86 15.86 0 0 0-2.728-.002zm-13.525 35.797c.31.154.507.325.977.205.957.638 2.071.411 3.292.721.729.185 1.441.548 2.16.617.399.038.795-.052 1.183-.052.36 0 .78.104 1.183.052.562-.073 1.002-.354 1.543-.309.231.02.481.157.72.154.549-.009 1.095-.292 1.646-.36.646-.08 1.302-.053 1.954-.103 1.778-.138 3.267-.737 4.68-1.234.51-.587 1.357-.458 1.903-.771.456-.263.972-.49 1.491-.771.815-.443 1.484-1.141 2.211-1.389.509-.174.776-.257 1.08-.565.16 0 .335.121.463 0 .33-.356.553-.819 1.028-1.029.219-.76.973-.981 1.44-1.491.311-.339.483-.787.771-1.132.45-.537 1.292-.907 1.286-1.748.485-.56.842-1.249 1.439-1.697.01-.859.666-1.523.771-2.417.143-1.206.276-2.299.823-3.188-.152-1.419.24-2.852.205-4.269-.007-.289-.185-.554-.205-.823-.019-.231.076-.497.051-.771-.044-.475.007-.84 0-1.234-.01-.628-.325-1.043-.463-1.543-.333-1.214-.399-2.343-1.028-3.239.052-.463-.269-.555-.257-.978-.392-.421-.815-.826-1.132-1.389-.218-.387-.193-.946-.411-1.337-.066-.12-.29-.294-.411-.464-.266-.373-.369-.632-.721-.772-.345-.75-.939-1.14-1.389-1.749-.416-.565-.642-1.061-1.285-1.337-.393-.824-1.238-1.196-1.749-1.902-.742-.033-.768-.719-1.337-.823-.854-.156-1.399.618-1.852.926a12.47 12.47 0 0 1-1.954 1.08c-.282.403-.543.828-1.08.977-.039.225.022.36-.103.566-.417.643-1.514.886-1.954 1.697-.063.115-.064.389-.154.565-.228.445-.901 1.178-.823 1.751.037.271.422.677.617.977.211.325.425.783.617 1.028.215.275.713.873 1.08.875.253.001.394-.227.72-.412.262-.147.637-.184.823-.309.237-.158.363-.445.565-.565.849-.504 1.599-.574 2.366-1.028.594-.04 1.108-.16 1.542-.36 1.148.452 2.696-.565 3.138.617-.863.705-1.985.73-2.829 1.389-.372.291-.537.826-1.08.874-.183.248-.358.523-.616.721-.131.099-.302.099-.463.205-.25.165-.414.496-.669.669-.727.494-1.376.784-1.491 1.646-.132.987.432 1.482.463 2.521.17.087.237.276.359.411.805.209 1.85.431 2.469.617.968.291 2.055.407 2.88.771.204.09.354.345.565.411.292.093.521-.021.771.052.22.062.524.386.875.565.451.231.816.51 1.028.874.248.429.434.923.565 1.389-.477.278-1.123-.052-1.748-.205-.914-.225-1.944-.289-2.521-.669-.479.203-1.383.096-1.852-.154-.711.219-1.457.006-2.159.103-.634.088-1.181.534-1.801.463-.188.431-.606.948-.514 1.389.031.15.29.367.463.565.489.566 1.037 1.354 1.491 1.697.091.086-.046.173 0 .36.572.302.809.939 1.183 1.44v.463c.835 1.376 1.593 2.83 1.595 5.039.376.314.428 1.163-.206 1.234-.99-.722-1.545-1.834-2.211-2.828-1.005-1.498-2.305-2.816-3.446-4.166-.554-.053-.607-.538-1.08-.565-.58-.034-.998.647-1.697.617-.528.945-1.442 1.505-2.622 1.8-.272.474.026.975.051 1.44.01.182-.104.379-.103.565.001.338.207.675.206.978-.002.223-.128.438-.104.668.021.201.19.37.206.565.021.271-.123.526-.103.771.021.265.226.504.257.771.028.248-.071.45-.103.721-.075.629.057 1.475-.36 1.902-1.276-.403-1.023-2.337-1.697-3.343-.107-1.658-.81-2.722-1.389-3.908.029-.198.187-.47.052-.669-.524.173-1.184.299-1.749.052-.391.347-1.233.24-1.697.514-.765-.264-1.535.267-2.263.104.146.661-.213 1.347-.205 2.006.002.202.131.357.103.565-.027.2-.257.329-.309.565-.103.461.13 1.058.052 1.491-.04.221-.246.332-.258.566-.016.308.229.512.258.822.027.309-.229.54-.052.823-.192.321-.599.43-1.028.515-.535-2.119-.76-4.95-1.029-7.2-.046-.39-.863-1.154-1.183-1.286-.209-.086-.495-.031-.771-.103-.251-.065-.49-.257-.72-.309-.218-.05-.422.012-.617-.052-.387-.126-.577-.49-.978-.668-.906.065-.992-.688-1.748-.771-.261.255.093.585.103.926.014.484-.139.789.206 1.079-.006.184-.19.188-.154.412.237.265.056.595.103.926.029.203.185.401.206.617.062.629.016 1.488 0 2.108-.021.833.211 1.59.309 2.469.04.362-.05.764 0 1.131.117.867.502 1.675.309 2.521 1.1.144 1.893.837 3.037.77zm-87.84-32.658c-.502-.783-1.539-.823-2.263-1.184-.287-.144-.369-.437-.617-.566-.119-.062-.323.004-.463-.051-.348-.138-.565-.392-.875-.412-.41-.026-.682.242-1.234.36-.383.082-.829.004-1.286.154-.231 1.123-.925 1.784-1.903 2.161-.049.655-.602.805-.668 1.44-.53.179-.583.646-.771 1.132-.113.292-.391.548-.514.874-.107.284-.069.615-.154.926-.257.943-.659 2.025-.926 2.932-.076.257-.035.539-.103.822-.046.191-.218.374-.257.566-.037.18.026.396 0 .565-.056.36-.248.628-.257.978-.012.443.151.884.103 1.388-.129 1.345-.332 2.682-.154 3.909.057.393.29.745.36 1.131.112.613-.054 1.254 0 1.903.047.565.282 1.155.566 1.595-.134 1.908 1.07 2.9 1.388 4.525 1.161 1.102 1.866 2.66 2.88 3.908.515.147.708.662 1.08 1.029.296.293.719.469 1.029.771.151.147.211.366.36.515.292.291.757.521 1.131.823.366.294.72.615 1.08.874.768.552 1.526 1.334 2.314 1.646.276.109.607.092.875.206.618.265 1.261.599 2.005.822.212.007.322-.089.566-.051.371.229.852.348 1.491.309 2.603.823 5.49 1.362 8.64 1.748.233-.041.235-.313.514-.309 1.323.463 2.872.443 4.577.566.732-.35 1.768-.289 2.623-.258.526-.623 1.371-.128 2.108-.257.137-.024.275-.138.412-.154.573-.071 1.194.053 1.8-.103.588-.151 1.366-.109 2.057-.154.137-.947.04-1.596.257-2.418-.219-.483-.194-1.211-.463-1.646.383-.395.093-.779 0-1.285-.083-.453-.071-.941-.154-1.286-.049-.204-.203-.352-.206-.565-.003-.194.14-.374.154-.565.099-1.307-.809-2.406-.566-3.807.081-.465.27-.849-.103-1.285-.938-.336-1.681.267-2.263.36-1.011.162-2.008-.146-3.034-.052-.143.013-.331.132-.463.154a14.256 14.256 0 0 1-3.086.154c.08.824.224 1.643-.309 2.211.032.191.145.302.206.463-.285.23-.316.694-.412 1.132-.095.437-.292.932-.412 1.44-.375 1.594-.916 2.893-1.749 3.856-.223.259-1.228 1.292-1.594 1.286-.427-.007-.242-.775-.103-1.183.227-.663.542-1.402.823-1.955-.335-.8.187-1.351.463-1.851-.507-.626.041-1.599-.051-2.623-.068-.756.097-2.522-.515-2.932-.431-.289-1.31-.064-1.903-.206-.623-.148-1.077-.61-1.697-.514-.39.397-.64.937-.72 1.646-.376.378-.851.657-.72 1.543-.723.614-1.334 1.339-2.108 1.902-.301.677-.804 1.151-1.491 1.44-.093.147-.136.345-.257.463-.484.219-.994.412-1.131.977-.957.229-1.571 1.34-2.674 1.08.112-.523.671-.664 1.028-.977.316-.277.69-.697 1.029-1.08.333-.378.775-.826.977-1.183.163-.289.179-.657.36-.926.17-.254.585-.406.72-.721.114-.265.012-.596.154-.822.161-.011.377.034.463-.052.021-.425.239-.652.514-.823.124-.388.001-.687.051-1.028.18-1.226 1.261-1.942.617-3.343-.899-.438-1.567-1.107-2.468-1.543-.634.018-1.06-.174-1.492-.359-.299.074-.376.522-.668.617-.246.079-.543-.078-.771 0-.298.101-.498.571-.771.72-.429.232-.852.198-1.131.565-.62-.148-1.161.572-1.697.669-.193.034-.463-.08-.668-.052-.569.078-1.091.506-1.646.669-.865.254-2.322.638-2.521-.206.193-.201.549-.24.926-.257.2-.125.321-.378.515-.515.717-.507 1.641-.825 2.468-1.337.541-.335 1.182-1.219 1.749-1.543.818-.468 2.84-1.41 2.88-2.212.028-.55-.491-.955-.669-1.594-.114-.41-.079-1.025-.309-1.337-.34-.463-1.808-.409-3.034-.463-2.191-.097-4.638.442-6.48.103.942-.797 1.667-1.658 3.086-1.954 1.11-.231 2.383-.215 3.548-.36.424-.053.813-.302 1.234-.309.528-.008 1.089.353 1.594.154-.113-.664.226-1.16.257-1.594.045-.634-.369-.96-.617-1.389-.742-1.284-1.933-1.935-3.292-2.571-1.097-.515-2.308-.731-3.292-1.286 2.292-.23 5.114.159 6.686 1.183.425.277.821 1.122 1.491 1.028.468-.064.729-.796.72-1.285.232-.379.819-.583.823-1.028.006-.683-1.101-.97-1.131-1.749-.129-.094-.339-.106-.412-.257-.124-.819-.588-1.298-.771-2.059-.451-.14-.862-.329-1.283-.507zm100.234 2.109c-.416.148-.62.679-.926.926-.124.1-.285.122-.412.257-.335.359-.41.758-.926.874-.298.067-.788-.114-1.337-.154-1.026-.073-2.73.15-3.857.052-1.162-.102-2.896-.2-4.062-.103-1.045.087-2.193.057-3.395 0-2.687-.127-5.607-.359-8.229-.412-1.848-.036-3.733.134-5.554.206-1.914.076-3.785.082-5.606.154-.598.024-1.274-.127-1.646.103-.449.278-.282 1.175-.309 2.006-.007.232-.126.456-.103.617.048.324.331.526.36.771.084.71-.297 1.749.616 1.697.415-.023.19-.192.566-.309 2.672.331 5.873.016 8.794 0a85.04 85.04 0 0 1 7.561.309c.459.604.504 1.621 1.028 2.16-.15.124-.214.335-.257.565.396.815-.052 1.713.257 2.623.057.168.295.34.359.515.14.374-.022.829.104 1.183.26.732 1.905 1.157 2.623 1.491 1.148.535 2.572.984 3.343 1.749.316-.061.337.177.565.205 1.07-.272 2.021.373 2.982.412.177.007.389-.104.566-.104.59.002 1.16.156 1.748.154 3.115-.007 6.156-.934 8.023-2.16.353-.231.695-.501.977-.771.594-.569 1.446-1.051 1.8-1.696.208-.379.225-.885.36-1.338.186-.619.412-1.025.463-1.8.115-1.755-.521-2.86-.926-4.012-.199-.567-.34-1.146-.514-1.491-1.056-2.092-3.051-3.386-4.063-5.194-.583-.017-1.442-.098-.973.515zm-42.171 1.902c-2.096 0-4.512-.21-6.223-.051-.789.073-1.799-.038-2.417.051-.455.066-.786.481-1.183.412-.006.298.297.514.411.822.129.35.108.921.206 1.389.051.243.21.42.206.617-.007.388-.324.691-.154 1.132.353.943 1.358.9 2.829.874 1.716-.031 4.453-.485 6.068-.411.288.013.639.132.875.103.334-.042.527-.251.771-.257.536-.014.954.326 1.337.205.907-.285.59-1.691.668-2.674.044-.559.247-.982.257-1.491-.24-1.033-2.215-.721-3.651-.721zm-16.148.413c-.474-.011-.792-.388-1.08-.412-.285-.023-.738.367-1.183.412-.135.014-.495-.029-.668-.052-.377-.049-.682-.183-.977-.154-.238.022-.446.16-.668.154-.268-.008-.558-.225-.771-.206-.337.029-.661.428-.978.463-.431.049-1.037-.142-1.594-.103-.559.039-1.424.26-2.005.103-.213-.057-.379-.304-.617-.309-.278-.005-.551.287-.823.309-.203.017-.405-.111-.617-.103-.176.008-.359.134-.515.154-.453.061-.899-.046-1.234.257-.474-.249-1.031-.04-1.595-.051-.301-.006-.615-.119-.925-.104-.147.008-.361.112-.515.104-.172-.011-.337-.158-.514-.154-.159.003-.351.129-.514.154-1.057.163-2.135-.241-2.777.205-.96-.158-2.285-.218-3.188 0-.285-.46-.764-.171-1.234-.257-.504-.093-.866-.839-1.389-.874-.594-.041-.929.501-1.44.874-.717-.048-1.309.496-2.006.515-.22.006-.455-.111-.668-.104-.866.032-1.694.545-2.571.566-.772.018-1.506-.363-2.263-.36-.4.001-.744.227-1.183.103-.112.094.009.421-.103.515-.863.131-.839 1.149-1.337 1.646.31.733-.325 1.121-.514 1.595-.399.998-.356 2.437-.154 3.343.078.352.241 1.009.36 1.337.4 1.102 1.34 2.187 1.646 3.291.199.075.47.078.668.154.293.941 1.319 1.15 1.851 1.852.457.011.642.447.978.669.66.436 1.492.614 2.108 1.132.297-.014.529.27.823.359.532.163 1.247.164 1.8.36.188.066.289.22.463.257.372.08.715-.095 1.183-.154.618-.079 1.295.17 1.852.206.311.02.677-.109 1.028-.104.605.011 1.188.282 1.749.258.614-.027 1.097-.046 1.697 0 .987.075 1.943-.156 2.88-.206.78-.041 1.494-.018 2.109-.36.462-.348.184-.842.154-1.285-.039-.581.346-.785.36-1.132.006-.166-.178-.35-.206-.514-.016-.094.054-.276.051-.412-.008-.411-.198-.971-.154-1.337.022-.188.148-.315.154-.515.016-.52-.149-1.018.051-1.542.036-.205.358-.122.36-.36-.43-.41-.33-1.351-.566-1.954.29-.234.172-.64.309-.926.106-.225.565-.687.771-.771.51-.211 1.175.149 1.903.154.152.001.336-.076.463-.052.309.061.508.437.771.36.213-.377.524-.378 1.08-.463.194-.03.403-.178.565-.206.981-.172 1.988-.157 3.086-.205 2.484-.109 5.364-.275 7.508-.617 1.349-.216 3.195-.244 3.292-1.286.05-.544-.617-1.236-.565-1.852.024-.29.246-.357.36-.72-.218-.396-.113-.665.051-1.028-.808-1.436-2.961-.585-4.373-.617zm42.478 51.633c-.139-.34-.424-.429-.463-.72-.051-.382.194-.825.206-1.183.047-1.468-.282-3.094-.411-4.681-.388-4.763-.73-9.502-1.132-14.194-.605-7.072-1.436-14.271-1.902-21.137-.025-.362-.08-.775-.309-1.08.05-.207.274-.24.257-.515-.356-.29-.292-.735-.669-.925-.351-.177-1.208-.083-1.954-.104-4.81-.134-9.872-.421-14.503-.205-10.759.5-21.906 1.166-32.245 2.313-1.385.154-2.461.015-2.623 1.132-.043.299.159.768.206 1.08.476 3.138.377 7.043.514 10.285.415 9.787 1.438 19.997 2.211 29.418.045.547-.071 1.262.514 1.594.898.172 1.502-.509 2.006-.565.368-.041.903.126 1.389.103.245-.012.495-.154.72-.154.218 0 .434.2.669.206.328.008.606-.178.874-.154.317.027.621.224.926.257.255.028.523-.025.771 0 1.179.123 2.106.801 3.137 1.08.383 1.367 1.339 2.033 1.8 3.395.339 1.002.305 2.212.412 3.497.052.626-.111 1.302 0 1.954.09.533.408 1.061.309 1.646-.079.464-.58 1.058-.823 1.595-.298.661-.625 1.198-.617 1.8-.322.275-.473.729-.72 1.08-.241.343-.669.705-.565 1.183.436.169.471-.435.823-.514.576.43.992-.013 1.542-.104.955-.157 2.213-.051 3.446-.051 7.274 0 14.427-.064 21.599-.104.787-.004 2.725.138 3.343-.103.278-.108.893-1.01.874-1.286-.013-.197-.263-.378-.309-.565-.121-.508.122-1.116.052-1.646-.021-.155-.167-.29-.205-.463-.061-.268.014-.558-.052-.771-.118-.382-.373-.72-.463-1.132.404-.461.065-1.397.515-1.851.001-1.075-.225-2.232.257-3.086.124-.221.418-.301.565-.515.126-.182.208-.483.309-.668.13-.237.318-.49.257-.771.473-.266.641-.809 1.132-1.08.188-.104.473-.085.669-.206.406-.252.568-.801.926-1.08.272.001.551-.347.874-.411.13-.026.343.079.514.052.183-.03.301-.236.463-.258.157-.021.396.111.566.104.795-.04 1.675-.353 2.211-.258.296.053.502.4.823.412.579-.153.781.245 1.337.359.243-.614.21-1.364-.053-2.005zm-45.307 2.263c-.561.189-1.161-.055-1.492-.103-1.046-.15-2.133.086-2.983.206-.595.083-1.169.082-1.542.463-.17.173-.224.443-.36.617-.304.387-.767.566-1.131.926-.571.562-.792 1.479-1.491 2.005-.53.036-.627.37-1.029.566-.621.303-.894.637-1.491.874-.08.504-.47.696-.463 1.286a1.706 1.706 0 0 0-.771.668c-1.026.346-5.151 4.112-5.794 4.841.036.256.558.875.49 1.235.362.238.62.579.926.874.112.746.914 1.016.823 1.8.469.594.844 1.281 1.337 1.852.005.75.393 1.116.669 1.595-.007.726.536.903.823 1.337.297.939.497 1.908.874 2.828.229.559.745.918.617 1.697.256.275.43.633.36 1.234.559.802.382 2.092.669 2.983-.284.569.084 1.07.309 1.439.011.285-.276.272-.257.565.006.217.199.247.206.463-.268.592.06 1.365 0 2.058-.048.567-.635 3.556-.026 3.939.267-.625 1.858-3.045 1.855-3.939.305-.346 2.437-4.002 2.652-4.533.182-.448.267-.803.127-1.361-.051-.206.095-.997.053-1.235-.043-.245-.109-.521-.129-.771-.019-.234-.272-.43-.309-.668-.068-.446.084-.961.051-1.44-.051-.759-.795-.858-.9-1.594-.033-.228.02-.447 0-.668-.122-1.371-3.159-3.782-3.437-4.981.502-.472 3.634 1.104 3.708 1.717.964.442 1.107 2.124 1.939 2.698-.008.639.337.944.565 1.286.202.302.29.711.617.874.545-.143.662-.785.798-1.285.088-.325.419-.603.463-.926.04-.294-.116-.567-.051-.875.071-.338.356-.513.309-.874-.22-.27-.459-.257-.488-.643-.019-.264.307-.522.309-.771.003-.426-.43-.738-.566-1.183-.112-.368.033-.641-.154-1.028-.124-.15-.449-.1-.514-.309-.211-.886-.578-1.617-1.08-2.212-.148-.006-.336.028-.411-.051-.101-.191-.183-.401-.309-.566-.683.026-.725-.581-1.029-.874-.442-.427-1.052-1.076-1.749-1.132-.38-.648-.993-.498-1.594-.925-.34.132-.621-.142-.771-.36.39-1.053 2.151-.479 2.88-.181.578-.275 1.104.37 1.697.438 1.305.148 1.7.773 2.417 1.389.15.129.37.188.515.309.684.572.969 1.355 1.389 1.954.176.253.382.333.462.566.043.123-.009.399.052.565.048.132.223.213.36.411.163.237.356.615.412.771.191.546.2 1.591.901-.155.171-.426.3-.541.462-.926.102-.24.348-.274.36-.515.015-.283-.016-.434-.128-.771-.214-.645-.41-1.34-.335-1.902-.391-.172-.223-.588-.309-1.029-.024-.124-.163-.24-.206-.359-.133-.366-.087-.787-.257-1.08-.223-.018-.539.059-.617-.104.136-.776-.644-.927-.771-1.594-.127-.078-.398-.013-.514-.103-.26-.478-.899-.575-1.44-.771-.145-.473-.55-.685-1.08-.771-.241-.138-.159-.361-.36-.566-.449-.455-1.451-.443-1.08-1.08.708.146 1.744-.468 2.417-.283.394.108.798.524 1.389.412.417.251 1.034.587 1.389.9h.36c.604.562.96.521 1.438 1.208.122.495.611.623.72 1.132.157.151 1.06 1.824 1.133 2.059.068.38.127.877.412.926.702.12.413-2.823.514-3.524.033-.228.148-.359.154-.515.015-.357-.079-1.007 0-1.389-.505-.472-.213-1.74-.771-2.159-.572-.104-.805-.682-.771-1.234-.783-.579-1.701-1.014-2.422-1.648zm42.531 1.132c-.285.283-.734.104-1.132.206-.201.052-.365.263-.565.309-.483.11-1.007-.018-1.44.103-.569.158-.834.605-1.337.771.004.415-.324.499-.515.72.049.424-.268.588-.103.978-.283.688-.828 1.498-.978 2.469-.16 1.043-.323 3.711-.051 4.628.339 1.141 1.203 2.38 2.006 2.88.15-.381.211-.843.154-1.285-.021-.152-.149-.309-.154-.463-.007-.2.137-.396.103-.617-.043-.277-.336-.491-.36-.771-.022-.272.207-.494.206-.771-.001-.219-.163-.383-.154-.565.032-.697.797-1.145.822-1.954.625-.67 1.336-1.589 2.314-2.006.431-.184 1.207-.541 1.492 0-.204.276-.521.438-.823.617-.971 1.166-2.027 2.37-2.212 4.423-.093 1.042.01 2.482.104 3.497.041.449-.063.798.205.874.562.16.705-1.359.823-1.749.227-.748.635-1.293.823-1.748.279-.674.41-1.225.926-1.543.123-.076.313-.056.463-.154.394-.261.538-.832.874-.926.19-.054.46.063.617.052.813-.062 1.282-.839 2.211-.617.009.526-.469.497-.771.72-.588.433-1.148 1.155-1.594 1.903-.909 1.525-1.714 2.969-2.212 4.782.297.993-.583 1.909-.668 2.829-.084.906.482 1.557.874 2.057.28.358.669.693.978 1.08.313.395.567.92 1.028 1.028.484-.56.021-1.657.103-2.468.279-.321.46-.716.36-1.286.698-1.633 1.479-3.184 2.263-4.731.095-.162.453-.061.463-.309.181-.128.124-.493.206-.72.144-.232.369-.103.616-.257.279-.175.441-.567.771-.721.323-.148.961-.142 1.338-.309.359-.158.713-.664 1.08-.103-.522.824-1.404 1.521-1.646 2.52-.051.212.021.464-.051.669-.134.379-.632.614-.875.926-.623.798-.991 1.765-1.131 2.88-.074.166-.207.273-.257.463.06.513.175 1.051.154 1.595-.017.412-.349.754-.36 1.08-.006.165.13.387.154.616.095.893-.143 2.194 0 2.983.107.597.586 1.052.874 1.491.475.725.849 1.868 1.286 1.954.265.053.618-.162.668-.257.182-.341-.362-1.068-.103-1.902.062-.198.244-.312.309-.515.158-.501-.107-.888 0-1.286.079-.292.413-.244.463-.565-.174-.55.447-.831.309-1.646.061-.18.367-.113.36-.36.223-.338.231-.732.411-1.131.078-.175.294-.324.36-.515.075-.219-.019-.467.103-.669.113-.189.369-.179.514-.359.063-.078.064-.306.154-.463.188-.331.401-.418.309-.823.166-.04.341-.07.463-.154.041-.474.214-.877.566-1.08.139-.079.301-.038.463-.103.275-.11.504-.564.822-.309-.48 1.401-1.205 2.515-1.8 3.96-.42 1.021-1 2.124-1.08 3.24-.126 1.766-.085 3.735-.051 5.862.015.966-.062 1.722.205 2.571.208.661.906 1.437 1.389 2.16 1.207 1.81 2.531 3.494 3.6 5.246.193.316.312.954.875.823.33-.611-.118-1.303-.206-1.955-.024-.186.068-.379.052-.565-.055-.599-.329-1.112-.515-1.595.625-.579-.128-1.135.154-1.902.037-.294-.294-.22-.257-.515.187-.808-.206-1.52-.258-2.263-.008-.116.107-.275.104-.411-.006-.158-.156-.289-.154-.411.003-.213.152-.446.154-.669.004-.64-.29-1.287-.309-1.954-.012-.396.174-.851.205-1.286.146-2.031.154-4.576.617-6.12.361-.231.536-.681.206-1.08.149-.271.41-.4.206-.771.387-.107.403-.536.257-.926.284-.427.517-1.093.463-1.696.147-.521.597-.741.515-1.492.432-.651.892-1.536.926-2.417-.208-.144-.437.058-.669.052-.377-.436-.883-.636-1.389-.874-.578-.273-1.125-.847-1.697-1.234a291.608 291.608 0 0 1-5.194-3.601c-.109-.164-.242-.307-.359-.463-1.186-.455-1.939-1.324-2.881-2.108-.972-.81-1.897-1.773-3.034-2.314-.27-.029-.389.091-.668.052-.046-.218.135-.364 0-.515-.995-.207-1.919-.484-2.88-.722zm-58.018 21.864c-.13-.293-.367-.529-.412-.771-.024-.135.04-.321 0-.463-.106-.376-.471-.621-.617-.977-.073-.18-.03-.437-.103-.617-.113-.281-.357-.436-.412-.669-.032-.137.036-.397 0-.617-.085-.521-.726-1.403-.977-1.8-.726-1.148-1.591-2.798-2.52-3.601a57.376 57.376 0 0 1-1.569-1.44c-.47-.45-.821-.876-1.286-1.234-.504-.389-.776-.368-1.259-.745-.173-.136-.555-.362-.747-.515-.31-.247-.421-.14-.796-.437-1.462-1.159-3.471-1.891-5.863-1.852-.751.013-1.922-.062-2.571.257-.179.042-.198-.076-.36-.051-.178.01-.195.182-.36.205-.148-.022-.161-.182-.36-.154-.155.439-.808.593-1.183.258-.177.351-.424.254-.771.309-.211.032-.345.197-.463.205-.159.012-.333-.105-.463-.103-.466.012-.703.521-1.286.309-.423.229-.582.721-1.234.72-.468.444-.835.744-1.44 1.184-.333.241-.859.417-.978.72-.091.234-.511.44-.567.669-.06.242-.978 1.142-1.145 2.005.891-.529 2.626-2.113 3.101-2.468.629-.472 1.435-.955 2.52-.926.529.014 1.417-1.016 1.905-1.056.638-.053 1.351.114 2.108 0 .614.382 1.648.174 2.263.36.836.253 1.435 1.054 2.674.926.841.444 1.66.911 2.674 1.183.164-.008.227-.117.412-.104 1.475.445 2.284 1.557 3.651 2.109.248.781.983 1.074 1.286 1.8.177.097.396.152.566.257-.042.179.077.198.051.36 1.16 1.359 2.188 2.852 2.88 4.68.12.138.366.148.463.309.053.136.062.315.052.515.518.431.587 1.211.925 1.8.147.257.451.4.566.669.079.184.02.383.103.565.069.153.278.286.36.463.055.118.003.297.051.411.089.21.295.49.412.669.259.396.535.716.668 1.234.185.716-.371 2.039.05 2.443-.178.682.483 1.328.668 1.749.384.873.106 1.992.617 2.828-.135.582-.117 1.358.103 1.852-.074.389-.196.912-.103 1.389.034.176.18.298.206.463.08.505-.196 1.128.36 1.286.142-.273.05-.416-.052-.669.479-.432.296-1.552.154-2.006.355-.271.317-1.188.103-1.595.111-.231.254-.431.257-.771-.041-.183-.266-.181-.257-.412.302-.457-.134-.831-.154-1.285-.029-.651.544-1.348.103-2.006.074-.08.108-.2.154-.309-.183-.28-.353-.573-.515-.874.01-.196.216-.195.206-.412-.411-.339-.127-.891-.206-1.337-.071-.403-.65-.703-.308-1.132-.171-.257-.408-.448-.617-.668.062-.281.23-.455.257-.771-.134-.106-.501.021-.514-.206-.128-.319.163-.427.154-.771-.343-.348-.387-.822-.615-1.337zm92.989-18.624c-.191.022-.381.131-.565.154-1.057.134-2.122-.12-3.086.051-.266.048-.559.251-.874.309-.325.061-.694-.028-.978.052-.344.099-1.051.789-1.542 1.183-.562.45-1.206.611-1.749.978-.47.316-.866.797-1.337 1.234-.492.457-1.063.902-1.337 1.234-.152.183-.195.457-.36.668-.152.195-.397.317-.565.515-.18.209-.249.509-.412.72-.097.126-.28.174-.359.309-.128.216-.121.591-.258.926-.229.563-.476.758-.309 1.286-.595.398-.816 1.172-1.131 1.852-.04.245.183.228.154.463-.017.258-.332.217-.309.514-.027.216.09.287.103.463-.428 1.167-.667 2.521-1.285 3.497.077.489-.119.704-.258.978-.037.625-.175 1.226-.205 1.852-.026.522-.315 1.06-.36 1.594-.047.556-.054 1.11-.103 1.697-.216 2.582-.126 5.246.051 7.766.094 1.334.081 2.682.258 3.857.126.843.413 1.742.617 2.571.454 1.85.65 3.543 1.594 4.731-.354-2.032-.871-4.27-.977-6.686-.206-4.668-.571-9.142.103-13.269.21-.235.362-.528.463-.874.024-.247-.314-.132-.257-.412.188-.384.577-.609.308-1.183.272-.321.719-.743.412-1.337.038-.202.341-.139.309-.411-.001-1.387.535-2.218.463-3.806.76-.663.833-2.014 1.131-3.138.657-.607.676-1.766 1.184-2.571.38-.604.814-1.034 1.131-1.646a1.42 1.42 0 0 0 .463-.206c.102-.618.729-.711.926-1.234.075-.079.264-.045.411-.052.042-.438.414-.546.771-.668.105-.084-.002-.38.104-.463.582-.343 1.06-.792 1.954-.823.603-.378 1.315-.571 2.16-.822.552-.164 1.259-.391 1.748-.412.717-.03 1.364.191 2.058.104.446-.323 1.512-.224 2.108-.104.535-.152 1.269-.279 1.902-.154.474.094 1.03.742 1.234.154-1.401-.696-3.41-1.692-5.504-1.441zm10.183 6.223c-.13-.179-.146-.414-.309-.565-.213-.197-.569-.212-.771-.36-.125-.092-.144-.271-.258-.36-.118-.092-.396-.209-.565-.309-.585-.34-1.201-.303-1.852-.668-.281-.158-.436-.476-.72-.617-.312-.155-.754-.176-1.183-.257-.425-.081-.821-.286-1.183-.309-.29-.019-.561.062-.823.051-.518-.021-.911-.139-1.389-.103-1.214.093-2.188.428-3.137.771-.299.107-.647.298-.978.36-.685.128-1.45.055-2.006.359-.521.286-.949.832-1.285 1.234-.086.086-.303.041-.463.052-.21.537-.67.656-1.08.977-.355.277-.531.655-.978.771-.231.66-.708 1.075-.771 1.903-.525.749-1.056 1.689-.978 2.88-.293.541-.658 1.02-.771 1.748-.029.188.041.406 0 .617-.075.38-.371.671-.515 1.029-.323.804-.693 1.845-.771 2.88-.042.547.057 1.075 0 1.646-.112 1.136-.971 2.045-.565 2.983-.556.658-.266 1.956-.617 2.88.337.469.1 1.248-.104 1.748.07.376.181.712.309 1.028-.374.574-.015 1.155-.051 1.697-.071 1.068-.151 2.168.309 2.983-.545.639.29 1.705-.154 2.417.268.355.136.747.154 1.183.047 1.121.534 2.198.822 3.24.074.267.03.576.104.823.063.218.25.392.309.616.213.828.15 1.487.463 2.109.18.358.604.598.822 1.028.079.155.08.361.154.515.498 1.028 1.472 1.673 2.212 2.417.354 1.271 1.715 1.345 2.828 1.902.179.09.29.24.463.309.803.317 1.738.314 2.417.823 1.367.17 2.626.413 3.909.463 3.148.121 6.128-.956 8.331-2.469 2.087-1.433 3.979-3.654 4.886-5.914.439-1.095.593-2.486 1.132-3.343-.029-.823.357-1.401.565-2.109.348-1.182.569-2.799.565-4.319-.005-1.82.149-3.782-.103-5.503-.082-.557-.312-1.088-.154-1.646-.396-1.342-.062-2.624-.309-3.909-.041-.213-.202-.356-.257-.565-.132-.504-.062-1.04-.052-1.44.013-.519-.294-1.051-.206-1.748-.397-.271-.128-1.209-.411-1.595.411-.638-.362-1.094-.565-1.594.28-.528-.136-.833-.258-1.234-.055-.181-.001-.38-.051-.565-.167-.617-.696-1.097-.669-1.595-.602-.649-.944-1.559-1.183-2.571-.528-.518-1.062-1.03-1.337-1.8-.273-.324-.648-.596-.922-.975zM88.955 233.309c-.235-.417-.466-.924-.669-1.183-.474-.606-1.107-.919-.977-1.955-.456-.366-.758-.888-.977-1.491-.556-.421-1.075-.879-1.286-1.646-.515-.377-.935-.848-1.131-1.543-.421-.333-.89-.618-1.132-1.132-.651.053-.892-.555-1.286-.874-.203-.164-.49-.211-.72-.359-1.032-.669-1.996-1.729-3.292-2.006-.595-.468-1.702-.424-2.571-.617-.578-.77-2.207-.575-3.24-.309-.56.074-.835-.334-1.44-.257-.442.056-.743.625-1.131.668-.442.05-1.425.601-1.802.644-.672.078-.764.973-1.543.926-.422.642-.741.819-1.491 1.131-.107.425-.704 1.209-1.055 1.39.016.974-.953 1.187-.72 2.211-.242.24-.43.369-.309.875-.167.29-.292.498-.487.874-.065.125-.002.248-.052.411-.056.188-.238.382-.309.617-.135.456-.103.878-.257 1.337-.094.278-.323.383-.36.617-.041.257.135.624.052.875-.675.521-.292 1.792-.926 2.365-.091.531-.002 1.022 0 1.543.001.525-.194 1.122-.103 1.595.03.154.183.299.206.463.094.672-.099 1.536 0 2.211.061.411.291.711-.051 1.028.098 1.795.439 3.024.514 4.783.036.205.273.207.309.411-.192.359.15.642.206.926.062.316-.06.646 0 .926.028.135.17.238.206.36.042.146-.026.311 0 .463.206 1.214 1.121 1.815 1.131 3.24.612.947.682 2.438 1.183 3.497.545.466.818 2.054 1.234 2.649-.089.568.245.716.36 1.08.122.101.477-.031.514.154.091.097.038.34.051.514.183.161.366.32.617.412 2.286 3.097 5.567 5.537 10.492 6.041 2.914.299 5.628-.371 7.508-1.337.632-.324 1.193-.83 1.903-1.183.689-.342 1.799-.454 1.8-1.44.298-.113.376-.445.617-.617.027-.144.075-.267.103-.411.427-.48.663-.995 1.029-1.594.63-1.031 1.32-2.57 1.543-3.857.083-.482-.001-.998.103-1.491.065-.309.335-.548.412-.823.167-.604-.182-1.136-.103-1.8.034-.288.271-.54.309-.823.083-.638-.126-1.191.154-1.748-.416-.527-.155-1.436-.257-2.16-.151-1.08-.469-2.012-.72-2.932.541-.362.182-1.149-.103-1.543.292-.433.062-.67-.051-1.08-.09-.325-.045-.74-.103-1.08-.016-.097-.131-.186-.154-.309-.091-.481-.092-.65-.257-.926-.013-.218.134-.276.103-.514-.672-1.06-.383-3.362-1.129-4.347.208-.734-.121-1.239-.465-1.85zm5.604 16.895c.1-.116.044-.387 0-.515h-.154c-.113.164-.069.525.154.515z"/><path fill-rule="evenodd" clip-rule="evenodd" d="M111.852 98.222c.478 1.997.309 5.116.309 7.714 0 1.428.177 2.713.206 4.114.004.179-.1.335-.103.514-.01.576.182 1.142.206 1.697.023.554-.028 1.084 0 1.594.033.587.373 1.131.051 1.697.042.215.171.343.257.514-.161.487-.221 1.02-.206 1.594.009.322.188.611.154.926-.065.613-.808 1.193-1.389 1.492-.417.214-1.025.282-1.646.103.137-.645-.439-1.043-.514-1.697-.035-.304.014-.653 0-.977-.085-2.029-.36-4.46-.36-6.737 0-1.373.233-2.692.154-3.96-.02-.32-.139-.656-.154-.977-.051-1.048.138-2.053.103-3.137-.021-.625.089-1.145-.411-1.44.244-.666.246-1.45.617-2.006.107-.16.323-.284.463-.462.174-.222.222-.48.36-.566.52-.321 1.216.037 1.903 0zM142.088 98.272c-.082.322.011.653 0 1.028-.013.445-.216.917-.206 1.389.004.184.089.37.104.566.056.744-.179 1.537-.104 2.263.062.591.193 1.148.206 1.697.012.507-.134.976.154 1.337-.368 1.315-.11 2.801-.206 4.114-.075 1.046.196 2.199.104 3.189-.041.429-.188.857-.206 1.286-.014.345.169.688.154 1.028-.021.485-.218.935-.154 1.44.032.256.166.468.154.72-.016.327-.284.59-.206.926-.766.697-2.008 1.968-3.343 1.028.069-.408-.065-1.129.154-1.542-.228-.471-.088-.953-.051-1.595.062-1.105-.103-2.438-.104-3.548-.001-2.215-.007-4.697.104-7.2.062-1.406.312-2.874.205-3.908-.031-.308-.263-.587-.257-.875.004-.226.246-.764.36-1.234.227-.939.532-1.99 1.439-2.16.569-.106 1.105.085 1.699.051z"/><g fill="#901536" stroke="#901536" stroke-width=".6" stroke-linecap="round" stroke-linejoin="round" stroke-miterlimit="10"><path d="M129.536 191.963c-.677.009.127.349 1.013.484.244-.19.465-.383.662-.571-.551.135-1.111.138-1.675.087M133.169 191.057c.403-.557.697-1.166.801-1.796-.091.449-.334.837-.563 1.246-1.266.797-.119-.474-.001-.956-1.361 1.713-.187 1.027-.237 1.506M134.511 187.566c.082-1.22-.24-.834-.349-.369.127.067.227.861.349.369M126.968 170.901c.361.065.781.115.722.201.395-.085.485-.165-.722-.201M127.69 171.103l-.255.053.238-.021.017-.032"/><path d="M138.958 188.028c.04 1.095-.32 1.626-.646 2.566l-.585.293c-.479.93.046.59-.297 1.33-.747.664-2.269 2.079-2.756 2.209-.354-.008.241-.42.319-.581-1.001.688-.803 1.032-2.333 1.449l-.045-.1c-3.775 1.775-9.018-1.743-8.949-6.545-.04.306-.114.229-.198.353-.195-2.471 1.141-4.952 3.394-5.965 2.203-1.091 4.786-.644 6.365.827-.867-1.136-2.593-2.339-4.638-2.227-2.004.032-3.877 1.305-4.503 2.687-1.027.646-1.146 2.491-1.593 2.829-.602 4.422 1.132 6.332 4.064 8.579.462.312.13.358.192.596a7.977 7.977 0 0 1-2.6-1.988c.389.569.809 1.124 1.352 1.559-.918-.312-2.146-2.226-2.504-2.304 1.583 2.835 6.424 4.973 8.96 3.912-1.173.043-2.664.024-3.981-.463-.554-.285-1.306-.875-1.172-.985 3.46 1.292 7.033.979 10.027-1.421.761-.593 1.593-1.602 1.833-1.616-.361.545.062.262-.216.743.759-1.224-.33-.498.784-2.113l.411.566c-.152-1.016 1.262-2.249 1.118-3.855.324-.491.362.528.018 1.658.479-1.254.126-1.455.249-2.49.133.349.307.718.396 1.085-.312-1.212.319-2.041.476-2.745-.154-.068-.48.536-.556-.896.011-.621.173-.325.235-.479-.122-.07-.442-.547-.637-1.461.142-.215.378.557.569.589-.123-.727-.336-1.281-.345-1.839-.562-1.174-.199.156-.654-.504-.598-1.864.496-.433.569-1.279.906 1.312 1.423 3.346 1.659 4.188a17.161 17.161 0 0 0-.83-2.984c.275.115-.442-2.113.358-.638-.855-3.146-3.66-6.087-6.241-7.467.315.289.715.652.571.709-1.283-.765-1.058-.823-1.242-1.146-1.045-.426-1.113.034-1.806.001-1.971-1.046-2.351-.935-4.165-1.589l.083.385c-1.305-.435-1.521.166-2.932.002-.086-.066.452-.242.895-.307-1.262.166-1.204-.249-2.438.045.304-.213.626-.354.951-.536-1.03.062-2.457.6-2.017.111-1.679.749-4.66 1.801-6.333 3.37l-.053-.353c-.767.921-3.344 2.749-3.549 3.941l-.205.048c-.399.676-.657 1.441-.974 2.136-.522.89-.765.343-.69.482-1.026 2.081-1.536 3.829-1.977 5.263.314.47.007 2.824.126 4.709-.516 9.308 6.532 18.344 14.236 20.431 1.129.404 2.808.389 4.236.43-1.685-.481-1.903-.255-3.544-.827-1.184-.558-1.443-1.194-2.282-1.923l.332.587c-1.645-.582-.957-.721-2.295-1.145l.355-.463c-.533-.04-1.412-.898-1.653-1.374l-.583.023c-.701-.865-1.074-1.487-1.047-1.971l-.188.336c-.213-.366-2.578-3.243-1.352-2.573-.228-.208-.531-.339-.859-.936l.25-.286c-.59-.76-1.087-1.733-1.049-2.058.315.426.534.505.75.578-1.491-3.699-1.575-.204-2.704-3.766l.239-.02c-.183-.275-.294-.575-.441-.869l.104-1.036c-1.074-1.24-.3-5.276-.146-7.49.107-.9.896-1.858 1.496-3.36l-.365-.063c.698-1.218 3.988-4.894 5.512-4.704.738-.927-.146-.003-.291-.237 1.621-1.678 2.131-1.186 3.225-1.486 1.18-.701-1.013.272-.453-.268 2.04-.521 1.445-1.185 4.106-1.449.281.16-.651.247-.886.454 1.7-.831 5.379-.643 7.768.462 2.773 1.296 5.888 5.126 6.011 8.729l.14.037c-.07 1.433.22 3.09-.283 4.611l.347-.718"/><path d="M122.146 192.892l-.095.476c.445.604.798 1.259 1.366 1.731-.409-.799-.712-1.128-1.271-2.207M123.197 192.851c-.235-.261-.375-.574-.531-.887.149.55.455 1.021.739 1.501l-.208-.614M141.812 188.805l-.1.25a12.053 12.053 0 0 1-1.18 3.765 11.845 11.845 0 0 0 1.28-4.015M127.102 170.577c.458-.168 1.125-.092 1.611-.202-.633.054-1.263.085-1.885.165l.274.037M111.031 179.123c.105.977-.734 1.355.187.712.492-1.112-.194-.308-.187-.712M109.949 183.643c.212-.651.25-1.042.332-1.419-.587.749-.27.909-.332 1.419"/></g><g fill-rule="evenodd" clip-rule="evenodd"><path d="M130.496 30.618c-.016.361-.234.52-.359.771-.098.704.213 1.403.205 2.058-.004.28-.185.55-.205.823-.013.16.049.351.051.514.009.591-.177 1.478-.257 2.16-.113.968-.519 1.468-.462 2.52-.104.153-.261.253-.36.411.085.536-.234.747-.103 1.183-.624.524-.497 1.801-1.029 2.417v.412c-.507.796-.625 1.981-1.389 2.52-.38-.376-.664-1.66-.103-2.057-.036-.271-.345-.354-.412-.669-.034-.162.066-.393.051-.565-.016-.18-.173-.369-.206-.566-.119-.714-.018-1.673 0-2.314.01-.334.163-.453-.103-.72.022-.235.279-.236.36-.412-.446-.968.215-2.206-.463-2.983.44-.354.256-1.102.309-1.851.01-.141.105-.289.103-.412-.002-.137-.107-.32-.103-.463.036-1.109.774-1.489 1.286-2.314.611-.379 1.499-.203 2.211-.308.355-.053.666-.498.978-.155zM107.61 31.181c.046 1.478.139 3.338.309 4.937.02.226-.147.265-.154.463.176 1.447 1.074 5.457.697 6.692.352 1.195-.31 2.784-.206 4.063-.448.48-.899-.216-.977-.72-.349-.201-.424-.674-.669-.978.096-.322-.021-.591.052-.874.005-.228-.267-.179-.309-.36.037-.238.208-.34.36-.463-.309-.188-1.212-1.768-1.417-2.061.022-.2.039-.407.103-.566-.039-.376-.384-2.009-.463-2.523-.044-.288.077-.679 0-.977-.139-.537-.514-.83.052-1.234-.52-.28-.108-1.18-.617-1.44.017-.274.249-.333.309-.565-.314-.745.218-1.302.206-2.211.348-.32.89-.447 1.183-.823.632-.001 1.076-.191 1.541-.36zM154.288 35.329c-.046.46-.611.72-.771 1.183-.153.445-.012 1.031-.206 1.491-.246.585-.632.702-.72 1.492-.077.694-.375 1.191-.617 1.851-.091.249-.25.519-.309.72-.054.188.026.387-.051.566-.082.188-.329.268-.412.462-.194.46-.265.912-.668 1.183.125.646-.415 1.009-.669 1.44-.027.216.09.287.103.463-.819.706-.95 2.101-2.108 2.469.338.616-.115 1.124-.514 1.44-.356-.124-.115-.846-.309-1.131.18-.334.388-.641.463-1.08-.526-.989.372-1.965.72-2.726-.44-.648.023-1.661.257-2.263-.195-1.194-.059-2.59.515-3.394-.044-.679.122-1.146.514-1.389-.021-.467.167-.725.206-1.131.596-.553.954-1.344 1.8-1.646h.463c.329-.104.257-.397.566-.411.248-.011.29.265.565.36.429.148.766-.1 1.182.051zM86.199 42.734c.202.079 1.285 1.664 1.54 2.291.372.917.018 1.894.659 2.3.102 1.275.766 2.503.786 3.684.677 1.168.642 3.157 1.241 4.403.022.201.024.387-.036.523.139.355.644.598.443 1.032-.847-.014-.759-1.237-1.479-1.417-.064-.188.031-.252-.001-.415-.067-.15-.331-.047-.435-.151-.749-1.132-1.213-2.634-2.163-3.507.017-.517-.207-.724-.52-.814-.046-.158.068-.192.005-.364-.193-.286-2.782-4.936-2.77-5.399.006-.238-.236-.407-.289-.637-.051-.218.042-.454.017-.676-.033-.291-.237-.515-.309-.79-.132-.501.024-.958-.075-1.39.533-.583 1.363-.939 2.049-1.404.081-.025.094.037.16.031.376.921.814 1.761 1.177 2.7zM174.312 46.818c-.022.492-.523.505-.463 1.08-.27.399-.648.688-.566 1.44-.707 1.299-1.422 2.589-2.263 3.754-.161.061-.271.173-.463.206a1.113 1.113 0 0 0-.051.463c-.365.543-1.021.797-1.184 1.543-.266.077-.396.29-.565.463a1.113 1.113 0 0 0-.051.463 47.285 47.285 0 0 0-3.703 4.32c-.189.017-.285.127-.463.154-.361.582-.605 1.28-1.286 1.543-.103-.353-.085-.768.052-1.029.174-.333.587-.352.617-.926.023-.441-.097-.874.154-1.337.229-.425.851-.644.668-1.337.171-.254.474-.42.617-.72.057-.118 0-.271.052-.412.136-.368.551-.673.72-1.028.208-.437.185-.916.566-1.183-.23-.629.221-.872.565-1.08.516-1.387 1.626-2.18 2.057-3.651.008-.181.231-.146.36-.206.062-.45.463-.508.771-.823.407-.416.591-.937.978-1.131.619-.312 1.382-.188 2.263-.36.172-.051.239-.206.411-.257.108-.022.138.035.207.051zM67.089 54.89c.304.263.113.661.206.977.125.427.638.543.668.978.783.394 1.144 1.206 1.697 1.903.132.166.332.256.463.411.151.178.207.452.36.669.434.613.986 1.001 1.234 1.749.644.436.666 1.495 1.389 1.851-.011.166.091.218.051.412.56.64 1.181 1.219 1.44 2.16-.364.477-.488-.008-.875-.309-.631-.491-1.943-.401-2.057-1.234-.184-.285-.521-.223-.771-.36-.859-.47-1.3-1.444-2.211-1.852-.027-.144-.076-.268-.103-.412-.23-.113-.582-.104-.823-.206-.112-.111-.129-.316-.206-.463-.333-.199-.755-.308-.823-.771-.352-.282-.765-.504-.977-.926-.149-.056-.365-.046-.515-.103-.23-.643-1.019-.671-1.08-1.389-.013-.15.149-.331.154-.566.004-.179-.131-.33-.103-.463.072-.339.405-.373.514-.72.984-.251 1.261-1.208 2.368-1.336zM188.141 64.765c-.722.718-1.446 1.433-2.417 1.903-.369.368-.666.809-1.286.926-.402.66-1.101 1.025-1.697 1.491-.118.12-.165-.095-.359-.051-.326.12-.433.459-.617.72-.805.104-1.131.686-1.852.875-.19.067-.165.349-.309.463-1.705.523-2.715 1.742-4.012 2.674-.171.089-.228-.026-.463 0-.165.057-.162.283-.154.514-.712.128-.705.975-1.543.977.274-.943 1.104-1.33 1.492-2.16.666-.688 1.695-1.014 2.108-1.955.469-.182.809-.494.977-.977.247-.114.435-.286.669-.412.889-1.614 2.75-2.256 3.549-3.96.23-.146.531-.223.771-.36.09-.116.024-.387.103-.514.658-.354.984-1.039 1.389-1.646.113-.113-.051-.21 0-.411.369-.522.654-1.129.926-1.749.363.024.723-.037 1.028.051.308.088.532.51.978.412.298.154.469.495.771.925.199.285.531.461.771.72.157.17.466.555.463.668-.014.439-.853.657-1.286.876zM199.17 82.489c-1.002.131-1.713.732-2.417 1.234-.698.498-1.511.828-2.314 1.183-.795.351-1.527.875-2.366 1.183-.86.315-1.716.571-2.623.874-.68.227-1.474.565-2.365.72-.844-.213-1.3.594-2.058.463 0-.274.133-.417.206-.617.756-.255.966-1.057 1.44-1.594 1.569-.35 2.272-1.567 3.702-2.057.6-.446 1.044-1.048 1.852-1.286.259-.359.576-.659.874-.978.321.012.638.02.771-.154.019-.223-.124-.287-.154-.463.051-.241.259-.325.309-.565.488-.3 1.384-.193 2.006-.36.308.32.842.275 1.184.514.277.195.341.679.616.874.122.086.34.034.463.103.069.039.068.189.154.257.26.205.676.228.72.669zM57.469 81.24c.424-.231.577-.008.977.154.694.282 1.688.387 2.057.823.123.031.234.074.412.052.721.547 2.087.45 2.726 1.08h.514c.505.317.989.656 1.543.925.524-.251 1.025.095 1.389.309-.216.568-.894.231-1.44.309-.391.374-1.137.325-1.955.257-.177-.015-.388-.144-.565-.154-.156-.01-.295.071-.412.051-.434-.072-.815-.228-1.389-.154-.354.364-1.008.118-1.491.36-1.878-.299-3.769-.472-5.4-.977-.238.02-.416.099-.617.154-.223-.051-.249-.3-.412-.411-.333-.024-.333.284-.668.257.104-.683-.334-.959-.72-1.286-.314-.04-.275.274-.565.257-.354-.194-.465-.632-.823-.823.244-.52-.037-.989-.36-1.234.378-.736.602-1.627 1.131-2.211.326.137.596.33.875.514 1.699.307 3.075.937 4.731 1.286.108.199.222.394.462.462zM202.334 100.105c.555.345.421 1.369.258 2.057.041.233.311.238.359.463-.165.737-.193 1.296-.309 2.057-.406.304-1.372 1.267-2.16 1.131-.446-.077-.582-.8-1.234-.566-.135-.513-.8-.588-1.285-.823-.188-.09-.354-.306-.565-.36-.305-.078-.665.041-.926-.052-.395-.139-.425-.621-1.08-.514-.403-1.045-2.374.28-2.777-.771-.313-.064-.558-.197-.978-.154-.161-.267-.458-.398-.822-.463-.047-.313-.102-.619-.258-.823.86-.145 2.106-.455 2.829 0 .379-.253.641-.288 1.183-.309.833-.032 1.481-.519 2.366-.411.661.08 1.36.187 2.057.103.859-.104 1.489-.089 2.469-.154.319-.108.371-.485.873-.411zM50.442 101.602c.352-.075.799-.124 1.183-.051.156.03.256.157.411.206.482.152.932-.062 1.44 0 .301.037.6.286.926.309.166.012.376-.077.514-.051.148.027.221.19.412.257.375.13.743.047.926.36 1.097.137 2.106.146 2.726.668.37-.101.821-.141 1.08 0-.3.523-.741.905-1.131 1.337-.49.145-.952.317-1.389.514-1.301.049-2.285.054-3.343.257-.55-.15-1.4-.546-1.697.051-.784-.065-1.66-.188-2.16.206-.428-.39-1.399-.027-1.851-.309-.614.209-1.164.481-2.006.463-.382-.407-.325-1.252-.72-1.646.3-.678.334-1.621.566-2.366.43-.786 1.25-1.018 2.211-.515.749-.23 1.502-.16 1.902.31zM200.765 122.096c.275.908.704 1.606.463 2.777-.298.579-.918 1.005-1.234 1.595-.18.334-.229.717-.669.823-.417-.318-.707.138-1.08.103-.239-.022-.303-.279-.616-.514-.128-.095-.312-.119-.412-.206-.153-.134-.233-.406-.359-.514-.123-.105-.306-.082-.412-.154-.292-.201-.379-.524-.617-.669-.617.103-.628-.4-1.234-.309-.772-.324-1.163-1.031-2.108-1.183-.138-.068-.067-.344-.154-.463-.334-.026-.423.194-.72.206-.51-.28-.944-.443-1.749-.565-.408-.062-.814-.328-1.183-.36-.513-.044-1.021.172-1.234-.257.299-.896 1.577-.578 2.417-.668.188-.021.373-.173.566-.206 1.177-.2 2.783.027 4.062.103.396.023.752-.067 1.08 0 .502.103.99.337 1.491.411.445.066.903-.083 1.337-.051.813.057 1.606.338 2.365.101zM57.436 122.75c-.137.309-5.874 3.94-6.031 3.923-.279.2-.679.232-1.178.218-.438-.013-.918.173-1.178.131-.44-.073-.592-.514-.829-.742.217-.355.221-1.102-.043-1.439.023-.251.263-.296.393-.523.152-.267.125-.598.349-.786.265-.221.645-.117.96-.349.197-.01.396.373.654.349.377-.034.222-.598.523-.785.219-.137 5.534-.08 6.38.003z"/></g></svg>
