<svg xmlns="http://www.w3.org/2000/svg" xmlns:rdf="http://www.w3.org/1999/02/22-rdf-syntax-ns#" xmlns:cc="http://creativecommons.org/ns#" xmlns:dc="http://purl.org/dc/elements/1.1/" width="250" height="350" viewBox="0 0 250 350"><metadata id="metadata42"><rdf:RDF><cc:Work rdf:about=""><dc:format>image/svg+xml</dc:format><dc:type rdf:resource="http://purl.org/dc/dcmitype/StillImage"/><dc:title></dc:title><cc:license rdf:resource="http://creativecommons.org/licenses/by-sa/3.0/"/><dc:creator><cc:Agent><dc:title>Lea Küchler</dc:title></cc:Agent></dc:creator></cc:Work><cc:License rdf:about="http://creativecommons.org/licenses/by-sa/3.0/"><cc:permits rdf:resource="http://creativecommons.org/ns#Reproduction"/><cc:permits rdf:resource="http://creativecommons.org/ns#Distribution"/><cc:requires rdf:resource="http://creativecommons.org/ns#Notice"/><cc:requires rdf:resource="http://creativecommons.org/ns#Attribution"/><cc:permits rdf:resource="http://creativecommons.org/ns#DerivativeWorks"/><cc:requires rdf:resource="http://creativecommons.org/ns#ShareAlike"/></cc:License></rdf:RDF></metadata><path fill="#B8BEC4" d="M52.124 99.9l11 7.467 3.468 8.283-2.994 3.433s-10.159-2.738-11.474 0-3.75 3.089-3.75 3.089l-.324-11.136L52.124 99.9zM44.904 127.909s1.72 6.716 5.72 9.854 8.994 3.184 8.994 3.184l11.721 1.826s1.535 16.627 2.535 18.377 9.5 16 9.5 16l-27.5-17.374-10.97-8.626 1.97-8.25-1.97-5.137v-9.854z"/><path fill="#B8BEC4" d="M86.432 178.799l-9.301 4.268-1.531 7.694s-4.637-4.483-7.501-4.274c-3.96.288-5.404 5.412-4.569 9.771.945 4.931 5.377 18.832 11.912 23.175 17.525 11.647 31.188 8.036 30.286 11.015-1.269 4.188-17.427 1.284-23.079-1.204s-12.659-4.524-19.435-18.431c-2.833-5.813-5.349-15.994-5.349-15.994l-.543 8.581 2.501 12.114 6.77 9.877 1.333 2.136 1.365 17.809s-7.968 8.576-9.267 12.127c-1.229 3.36-2.983 12.134-2.983 12.134s3.035.104 4.732-.874 5.421-2.662 9.206-6.687c2.164-2.301 5.459-7.954 5.498-6.776.147 4.475 4.056 6.898 4.056 6.898l-7.371 9.946-4.549 6.235-10.697-5.092-3.086-8.846-3.548-31.629.051-29.88 3.651-29.366 11.608-5.46 19.84 10.733zM103.577 106.568l-1.222-17.72-7.709 12.086-9.404 19.561-1.077 11.583-.627 12.057 1.667 2.816 7.881 2.685h6l4.492-4.479 1.779-7.041v-8.797l-1.78-22.751z"/><path opacity=".7" fill="#FFF" d="M100.252 98.599c-3.077 7.152-8.868 26.985-10.091 33.865-.851 4.788-.39 8.28 2.924 9.124 4.421 1.125 6.297-2.543 6.568-6.599.271-4.058-.488-31.408.599-36.39z"/><path fill="#FFF" d="M98.679 105.025s-5.286 17.591-5.657 23.131c-.371 5.54-.353 6.713 1.14 7.573 1.572.906 2.859-1.876 3.207-5.083.345-3.206 1.31-25.621 1.31-25.621z"/><path fill="#B8BEC4" d="M76.624 254.826s3.822-5.998 9.099-.024 8.355 13.669 10.151 20.224 3.802 19 3.802 19l-12.92-2.963-.301-1.589s.375-7.569-1.625-16.196-4.791-13.718-6.541-12.093-.916-.284-.916-.284l-.749-6.075z"/><path fill="#B8BEC4" d="M85.749 290.15l-2.125 3.875v11.125l4.526 2.75s9.453 2.875 11.526 2.75 10.717-.426 11.323.004 9.197-1.406 9.197-1.406 4.054-2.598 5.179-3.723 1.381-2.5 1.381-2.5l.494-9s-4.5 7.375-10.376 8.875c-5.875 1.5-14.875-5.25-15-6.375s-2.198-3.125-2.198-3.125l-7.427-.625-6.5-2.625zM148 271.775l20.625-4.25s-2.625 5.125 2.75 7.25 11.874 3.75 11.874 3.75l2.876-1.75.875-.5-.1 6.549s-6.477 3.201-11.313 3.076-8.077.5-12.832-.5-14.488-5.5-14.488-5.5l-1.142-2.5.875-5.625zM107.79 225.901l-3.583 11.833s2.395 8.651 11 10.834c8.606 2.183 15.363-.667 15.363-.667l6.618-14.282s-9.648 7.422-18.649 4.594c-9-2.829-10.749-12.312-10.749-12.312z"/><path fill="#B8BEC4" d="M119.374 220.15s-5.125 3.475-4.125 6.612 4.125 5.013 4.125 5.013l.5-11.625h-.5zM196.25 213.275l-3.885 8.246s4.275 2.395 5.635-1.371-1.75-6.875-1.75-6.875zM189.75 225.4l-7.171 13.5s3.231 1.295 7.171 1.75 5.604-.782 5.604-.782l8.304-15.884s-2.908 4.262-7.408 3.26-6.5-1.844-6.5-1.844zM103.304 82.828s26.238.238 30.113 2.572 27.307 14.789 27.307 14.789l-22.681-22.063-34.739 4.702z"/><g><g fill-rule="evenodd" clip-rule="evenodd" fill="#901536" stroke="#901536" stroke-width=".7" stroke-linecap="round" stroke-linejoin="round" stroke-miterlimit="10"><path d="M98.315 185.246c-.058.096-.199.109-.257.206-.109-.188-.279-.01-.617-.051.23-.091.667-.208.874-.155zM82.012 198.618c-.004.526-.287.775-.514 1.08-.032-.204.239-.549.154-.978.205.051.155-.153.36-.102zM104.126 200.161c.203.171.11.837 0 1.028-.279-.272-.303-.774 0-1.028zM80.881 202.063c.075.401-.173.923-.206 1.389-.159-.486.001-1.096.206-1.389zM100.784 206.383c-.282.592-.947.924-1.8.668.431-.391 1.287-.358 1.8-.668zM92.658 208.903c.243.049.424.604.617.875-.287-.005-.4-.628-.617-.875zM92.092 209.778c.389.588.805 1.149 1.131 1.8-.549-.309-.808-.906-1.234-1.337.061-.128.075-.303.103-.463zM97.801 184.834c-.144.113-.338.176-.514.257-.048-.101.323-.222.514-.257z"/><path d="M82.732 209.778c.069-1.48.203-3.134.411-4.526.221-1.475 1.193-2.542 1.44-3.806-.09-.029-.302.062-.309-.052a28.186 28.186 0 0 1 2.314-3.497c.827-1.076 1.669-2.284 3.034-2.828.08-.194.229-.32.309-.515-.244.016-.339.448-.565.309.439-.562.838-1.139 1.44-1.594.655-.495 1.664-.541 2.006-1.234-.24.12-.55.443-.823.359 1.441-.891 2.375-2.287 4.166-2.828.068.129-.204.161-.051.205 2.045-1.042 4.715-1.702 6.942-1.182 1.432.334 2.739 1.393 3.652 2.52a8.026 8.026 0 0 1 1.8 5.04c-.021.123.234-.028.154.154-.055 1.557-.101 3.396-.36 4.577.06-.163.094-.352.206-.463.014 1.163-.475 1.822-.72 2.726-.734.271-.705.84-.771 1.491-.068.669-1.039 1.382-1.492 1.903-.517.595-.964 1.265-1.543 1.491.01-.3.441-.449.36-.669-.654.771-1.303 1.814-2.366 2.006-3.279 2.738-8.637.459-8.28-4.165-.15-.043-.167.306-.257.154.091-2.461.886-4.372 2.263-5.915 1.622-1.816 4.776-3.574 7.303-2.006-2.884-3.02-7.732.048-8.794 2.983-.854.664-.975 1.989-1.388 2.982-.077.184-.205.287-.257.463-.116.395-.133.835-.154 1.184-.207 3.336 1.56 5.51 3.96 6.428.105.049.043.266.206.258.493.042 1.146.086 1.749.051 4.734-.274 7.335-3.568 9.669-6.171-.11.03-.162.382-.052.463.194-.749.237-1.648.72-2.108.099.175.234.313.36.463v-.412c.405-1.141 1.048-2.185 1.286-3.445.041-.218-.116-.558.206-.617.009.077-.019.189.051.206.048-.277-.109-.761.103-.875.036.221.084.431.206.566-.005-1.103.435-1.76.668-2.623-.16-.006-.146.161-.36.103-.181-.395-.263-1.249.103-1.491-.275-.309-.558-.882-.463-1.389.225.084.189.428.463.463-.205-.704-.145-1.673-.463-2.263-.212-.041-.097.246-.309.205-.177-.254-.31-.76-.206-1.131.263-.148.703-.12.771-.463.676.926.988 2.547 1.389 3.6-.188-1.373-.867-2.482-.566-3.806.121.051.085.258.257.258-.869-3.057-2.961-5.165-5.812-6.069.165.128.542.314.463.514-.542-.143-1.027-.344-1.183-.875-.758-.245-1.132.466-1.749.515-.333.026-.85-.178-1.337-.257-.777-.126-1.963-.16-2.777-.257-.072.18.144.33 0 .412-1.283-.066-1.704.73-2.829.823.115-.21.37-.281.565-.411-.365.101-1.607.208-2.057.565.236-.33.625-.506.875-.823-.735.259-1.285.704-2.057.926-.049-.096.154-.172 0-.206-2.151 1.655-4.519 3.367-6.223 5.298-.028-.075.06-.267-.051-.258-1.086 1.777-2.746 2.98-3.446 5.144-.096.041-.208.066-.257.154-.546 1.018-.659 2.729-1.594 3.188-.562 1.327-1.024 2.787-1.44 4.269-.144.512-.4 1.082-.411 1.543-.018.717.142 1.684.103 2.52a84.558 84.558 0 0 0-.07 1.902l1.772 2.12.097-2.274zM111.224 200.417c.074.451-.194 1.006-.257 1.491-.047-.423.214-.984.257-1.491z"/><path d="M110.504 200.52c.157.111-.049.29 0 .463-.139.071.039-.304 0-.463zM110.864 201.96c.145.182-.103.409-.103.617-.128.017.12-.41.103-.617zM102.995 203.4c-.041.389-.468.835-.565 1.338.576-.179.768-.74.977-1.286-.002.495-.408 1.032-.617 1.491-.061-.127-.187-.19-.412-.154.009-.66.42-.917.617-1.389zM96.31 211.989c.155.052.091-.114.103-.206 1.302 1.16 3.218.52 4.938.052-2.509 1.756-7.144.71-8.435-1.543.81.254 1.247 1.325 2.211 1.595-.251-.264-.764-.71-1.08-1.08.584.357 1.362.968 2.263 1.182z"/></g></g><g><g fill-rule="evenodd" clip-rule="evenodd"><path d="M227.376 163.601c-.861-.336-1.758.082-2.572.257-2.695.582-5.12 1.225-7.611 1.955-9.877 2.894-19.549 5.837-29.469 8.743-6.385 1.871-12.829 4.062-19.337 6.12a987.31 987.31 0 0 0-9.617 3.086c-.809.265-1.577.5-2.366.823-1.593.651-3.219.898-4.834 1.543-.723.289-1.686.904-2.366.823-.529-.063-.699-.511-1.131-.771-1.047.149-1.384-.387-1.852-.823-.255-.237-.588-.748-.823-.875-.392-.211-.93-.217-1.337-.411-.29-.138-.525-.384-.823-.566-1.261-.772-2.786-1.236-3.445-2.417-.337-.006-.738.052-.874-.154-.234-.728-.074-1.488-.154-2.211-.035-.312-.191-.616-.206-.926-.018-.363.096-.719.052-1.08-.044-.355-.265-.718-.309-1.08-.17-1.386-.18-2.746-.206-4.062-.015-.72-.112-1.309-.052-1.955.057-.595.271-1.14.36-1.8.12-.877.016-1.836.052-2.726.094-2.351.259-4.704.874-6.583a6.72 6.72 0 0 0 .264-1.08c.062-.382.196-.838.251-1.234.061-.448.263-.908.202-1.231-.155-.834-1.356-1.305-2.26-1.397a29.233 29.233 0 0 0-4.525-.1c-1.401.085-2.764.2-3.961.465-1.99.441-3.757.857-5.35 1.541-.531.228-1.005.437-1.542.62-.436.148-1.141.508-1.441.644-.259.117-.438.133-.72.282-.325.171-.53.25-.823.412-1.161.642-1.538 1.239-1.8 1.903-.318.804-.339 2.072-.514 3.188-.167 1.068-.15 2.167-.163 3.24-.01.883-.185 1.958-.146 2.982.04 1.072.084 4.516.057 4.834-.026.297.013.634 0 .926-.029.631-.032 1.224-.057 1.852-.032.793.188 1.566.154 2.417-.034.852.168 1.688.154 2.417-.006.327-.171.649-.154.977.015.291.2.542.206.823a11.56 11.56 0 0 1-.154 2.108c-.068.392-.357.743-.411 1.132-.096.692.024 1.452 0 2.16-.025.731-.306 1.268-.36 1.8-.027.271.077.563.052.822-.044.453-.302.878-.36 1.286-.077.545 0 1.086-.051 1.595-.063.627-.239 1.197-.257 1.8-.02.654.159 1.322.154 2.057-.001.256-.113.509-.103.771.013.342.161.638.154.978-.011.551-.233 1.008-.206 1.491.021.359.211.692.257 1.08.071.595.045 1.455.051 2.006.003.242-.127.461-.103.669.05.424.347.748.36 1.131.011.322-.167.674-.154 1.028.019.5.305 1.009.309 1.543.002.363-.179.773-.154 1.184.042.687.478 1.438.463 2.263-.006.311-.148.635-.154.926-.009.415.219.711.103 1.028-.112.305-.775.542-1.08.771-.426.321-.658.677-.977.874-.341.211-.725.317-1.08.565-.323.227-.628.504-.977.721-.264.163-.562.261-.823.463-.41.316-.823.854-1.234 1.234-.4.369-.945 1.042-1.388 1.131-.523.105-1.706-.271-2.469-.463-2.302-.574-5.223-.83-7.2-1.439-3.134-.967-6.031-1.707-8.64-2.88-1.381-.621-2.737-1.15-4.011-1.749-1.298-.609-2.389-1.428-3.497-2.263-1.158-.873-2.095-1.592-2.88-2.88-.7-1.149-1.69-2.436-2.16-3.651-.229-.591-.383-1.198-.617-1.801-.22-.566-.438-1.147-.668-1.748-.378-.98-1.16-2.57-1.286-3.601-.033-.272.037-.558 0-.822-.034-.251-.162-.464-.206-.721-.047-.275-.023-.56-.051-.874-.056-.619-.285-1.314-.206-1.902.172-1.271.676-2.737 1.029-4.114.173-.676.339-1.398.514-2.058.201-.756.315-1.531.566-2.057.329-.69.783-.763 1.543-1.028.312-.11.641-.254.925-.36.649-.24 1.209-.67 1.697-.823.302-.094.645-.046.926-.154.607-.233 1.14-.88 1.8-.926 1.691-.116 2.849-.81 4.269-1.337 1.141-.424.896-.485.896-.485s7.618-1.761 10.624-2.043c2.651-.25 5.668-.857 8.691-1.175.688-.072 2.215-.478 2.269-.489.587-.128 1.118-.17 1.64-.385.938-.386 1.641-.546 2.726-.875 1.037-.314.733-.543.668-1.44-.026-.364.182-.835-.154-.977-.471-.043-.747.233-1.234.309-.501.077-1.038.361-1.646.452-.443.066-.916-.067-1.389.062-1.471.404-3.074.594-4.68.874-2.081.364-4.183.806-6.326 1.132-1.05.16-2.068.328-3.188.514-2.133.354-4.601.972-6.994 1.112-1.186.069-2.909.179-3.292-.36-.226-.318-.083-1.617-.051-2.192.041-.758-.007-1.543.051-2.108.027-.267.192-.583.206-.823.084-1.46.104-3.088.206-4.68.158-2.467.407-4.599.669-6.892.078-.682.319-1.342.411-2.109.062-.509.208-1.835.206-2.314-.001-.463-.078-1.875-.72-1.8-.379.044-.921 1.458-1.131 2.057-.146.415-.18.898-.257 1.337-.088.5-.338.901-.411 1.234-.075.339-.054.736-.103 1.028-.054.321-.182.65-.206.926-.019.214.084.459.051.72-.052.404-.332.813-.412 1.234-.08.427-.075.933-.154 1.44-.07.449-.216.94-.257 1.388-.06.646.002 1.284-.154 1.903-.144.567-.42 1.126-.463 1.646-.022.268.077.556.051.823-.031.321-.215.644-.257.977-.086.682-.15 1.47-.206 2.211-.089 1.205-.233 2.4.154 3.24-.715.806-1.193.207-2.057-.206-2.733-1.304-5.151-2.692-7.509-4.166-.407-.254-.87-.42-1.286-.668-.538-.322-1.037-.771-1.594-1.131a199.609 199.609 0 0 1-4.937-3.292c-3.18-2.189-6.665-4.361-9.617-6.789a38.477 38.477 0 0 0-1.543-1.183c-1.627-1.2-2.953-2.337-4.577-3.651-.989-.8-2.38-1.658-3.034-2.469-.397-.492-.926-1.532-.978-2.211-.026-.343.139-.663.154-1.028.039-.922-.14-2.001.36-2.623.016-.209-.257-.306-.309-.617-.169-1.025 1.216-.408.617.463.593.173.621.881.977 1.234.23.229.615.307 1.028.566.319.199.566.568.823.72.305.181.947.253 1.388.412.52.186.974.16 1.44.257.429.09.772.358 1.131.36.462.002.725-.111 1.234-.103.37.005.723-.117 1.028-.103.31.015.661.183 1.029.206.434.027.85-.072 1.234 0 .417.078.805.379 1.234.463.572.111 1.147.022 1.594.154.49.145.828.597 1.286.617.484.021.843-.274 1.286-.515.424-.23.942-.371 1.234-.514.932-.458 2.204-1.348 3.085-1.954.362-.25.801-.45 1.029-.669.281-.271.447-.743.771-1.08.988-1.029 1.984-1.813 2.571-3.137.382-.862.811-1.743 1.131-2.674.341-.99.812-1.855.977-2.829.201-1.181.05-2.448.103-3.703.052-1.241-.018-2.477-.103-3.6-.126-1.67-.695-3.152-1.183-4.525-.182-.511-.249-1.011-.412-1.492-.089-.264-.342-.553-.565-.875-.214-.308-.342-.692-.515-.925-.177-.24-.514-.403-.771-.669-.742-.766-1.415-1.466-2.16-2.211-.762-.762-2.041-2.423-3.24-2.623-.547-.091-1.002.194-1.594.154-.521-.036-1.066-.285-1.594-.309-1.029-.046-2.056.178-3.086.154-.662-.016-1.311-.258-1.903-.309-.569-.048-.849.294-1.337.309-.325.009-.643-.171-.977-.154-.25.013-.488.171-.771.206-.299.036-.633-.006-.926.051-.696.137-1.543.502-2.314.771-.26.091-.743.221-1.131.412-.406.2-.75.559-1.08.514-.503-.068-.2-1.769-.103-2.211.091-.416.356-.678.412-.977.042-.226-.036-.708 0-1.029.055-.493.25-1.131.36-1.749.108-.606.38-1.173.463-1.646.067-.379.025-.782.103-1.183.213-1.103.29-2.248.565-3.343.1-.395.348-.979.463-1.594.135-.722.279-1.181.412-1.646.162-.564.156-1.031.36-1.131.31-.152.451.159.823.154.283-.279.094-.816.566-.874.605-.075 1.137 1.07 1.646 1.44.303.22.608.262.823.411 1.137.792 1.741 2.288 2.931 3.086.347.232.933.559 1.286.668.257.08.587.011.823.103.298.117.639.492.977.72.763.515 1.317 1.035 2.006 1.44.389.229.776.281 1.234.514.413.21.648.706 1.08.926.391.199.813.317 1.183.514.376.201.696.483 1.08.668.462.224.981.202 1.491.412.528.216 1.194.909 1.697 1.337.56.477 1.269.67 1.852 1.029.339.208.562.644.926.823.252.125.531.104.771.206.627.266 1.386.792 1.903 1.183.83.627 1.478 1.487 2.263 1.852.556.258 1.174.409 1.852.771.767.41 2.97 1.22 2.931-.309-.014-.539-.889-1.097-1.388-1.44-.629-.432-1.296-.663-1.852-.978-.395-.223-.602-.533-.977-.823-.575-.444-1.23-.902-1.852-1.234-1.37-.733-2.445-1.688-3.703-2.52-.348-.23-.622-.608-.874-.72-.229-.102-.508-.055-.72-.154-.19-.089-.354-.327-.565-.463-.224-.144-.502-.229-.669-.36-.295-.232-.448-.55-.771-.771-.395-.271-.889-.431-1.286-.72-.373-.272-.647-.727-1.028-.977-.315-.207-.701-.344-1.029-.566-.651-.441-1.273-.823-1.903-1.286-.304-.224-.597-.57-.874-.72-.27-.146-.613-.156-.875-.309-.282-.165-.506-.439-.771-.617-.568-.382-1.146-.771-1.697-1.08-.311-.174-.681-.233-.977-.412-.466-.28-.829-.709-1.286-.977-.593-.348-1.413-.596-2.108-1.08-.473-.329-1.768-.804-1.749-1.491.01-.372 1.31-1.465 1.749-1.697.42-.223.953-.272 1.44-.514 1.073-.533 2.38-1.021 3.394-1.492.248-.115.546-.112.771-.206.332-.138.59-.533.875-.617.23-.068.448.004.668-.051.179-.045.316-.185.514-.257.801-.294 1.503-.381 2.263-.72.409-.182.693-.55.977-.565.289-.016.482.218.926.206 1.078-.03 2.489-.753 3.6-1.028.437-.109.784-.309 1.131-.412.636-.188 1.226-.193 1.903-.257.583-.055 1.176-.331 1.749-.463a23.48 23.48 0 0 0 3.343-1.028c.517-.204 1.145-.243 1.697-.463.575-.229 1.102-.444 1.646-.566.887-.198 1.741-.54 2.469-.771.331-.105.65-.066.977-.154.326-.087.603-.355.926-.411.689-.119 1.279-.095 1.903-.257.266-.069.504-.189.771-.257.3-.076.645-.028.926-.103.409-.109.716-.491 1.131-.566.283-.051.619-.009.926-.051 1.061-.145 2.11-.126 3.24-.412.813-.205 1.568-.115 2.366-.206.269-.031.499-.219.771-.257.306-.042.644.035.977 0 .522-.054 1.042-.24 1.543-.36.516-.124.892-.491 1.337-.565.592-.099 1.07.133 1.543.103.572-.037 1.216-.351 1.954-.463.711-.107 1.323-.49 1.903-.565.506-.066 1.059.021 1.492-.103.397-.114.71-.38 1.08-.463.274-.062.583-.041.874-.103.342-.073.647-.25.977-.309 1.668-.296 3.431-.522 5.246-.823 1.675-.277 3.409-.672 5.247-.823 1.763-.144 3.769-.214 5.761-.309 2.015-.096 4.187-.435 5.76-.103.695.147 1.407.952 2.058 1.492.634.526 1.295 1.012 1.852 1.44 2.138 1.643 3.551 3.004 5.451 4.474 1.275.987 2.386 2.006 3.6 2.983a765.242 765.242 0 0 1 10.903 8.949c1.22 1.019 2.508 1.911 3.703 2.88.627.509 1.136 1.146 1.748 1.595 1.083.793 2.556 1.363 3.806 2.211 1.467.994.56 2.062.36 3.96-.086.814-.053 1.514-.206 2.211-.076.348-.282.7-.359 1.08-.088.43-.177.8-.309 1.183-.271.785-.323 1.623-.566 2.366-.133.41-.473.77-.617 1.183-.169.485-.214 1.025-.411 1.543-.088.23-.236.438-.309.668-.085.273-.065.585-.154.874-.088.287-.287.536-.36.823-.441 1.733-.934 3.17-1.439 4.783-.178.566-.213 1.175-.411 1.697-.188.492-.637.941-.721 1.44-.077.46-.275 1.004-.359 1.44-.122.625-.187 1.201-.36 1.8-.154.534-.476 1.026-.617 1.595-.136.546-.084 1.131-.206 1.697-.097.453-.354.872-.514 1.337-.482 1.412-.682 2.977-.978 4.577-.969 5.237-1.942 10.521-2.932 15.686-.374 1.956-.319 3.811-1.954 4.32-.409.127-.94.124-1.439.206-2.808.462-5.81.994-8.538 1.44-.475.078-.942.254-1.388.309-.458.056-.916-.012-1.338.052-1.563.236-3.027.761-4.577.977-.226.672-.318 2.099.206 2.422.452.279 1.466.063 2.006-.108.357-.114.716-.14 1.028-.257.353-.132.604-.312.926-.36.597-.09 1.43-.421 2.16-.606.281-.071.536.111.771.103.457-.015.948-.198 1.439-.206.622-.01 1.403-.252 1.891-.303.553-.058 1.021-.027 1.543-.154a35.3 35.3 0 0 1 1.388-.309c1.446-.292 2.458-.671 3.974-.62.496.017.992.153 1.543.154.414 0 .661-.308.842-.412 1.104-.633.325-1.455.823-2.74.187-.482.706-2.006.72-2.468.016-.521.075-1.153.154-1.646.061-.373.259-.688.309-1.028.045-.304-.038-.591 0-.875.066-.493.456-.94.515-1.389.039-.303-.075-.638-.052-.926.084-1.002.573-1.89.771-2.931.081-.426-.012-.875.052-1.337.104-.756.617-1.52.771-2.366.088-.484.055-.967.154-1.44.087-.415.266-.828.359-1.234.788-3.401 1.652-6.819 2.366-10.286.368-1.787 1.27-3.554 1.729-5.194.926-3.301 2.001-6.486 2.881-9.771.76-2.839 1.731-5.869 2.263-8.794.138-.759.535-2.052.309-2.983-.092-.375-.517-.585-.617-.926-.074-.251-.073-.737-.206-1.028-.395-.867-1.965-1.816-2.777-2.417-.364-.27-.604-.601-.926-.823-.359-.248-.773-.404-1.131-.668-.335-.248-.573-.641-.926-.926-.324-.262-.721-.474-1.08-.72-1.083-.74-2.102-1.648-3.137-2.366-.379-.262-.784-.456-1.132-.72-.19-.145-.328-.316-.515-.412-.206-.105-.452-.125-.668-.257-.557-.341-.939-1.064-1.646-1.08-.545-.728-1.457-.98-2.159-1.492-.724-.526-1.225-1.345-2.109-1.646-.309-.805-1.037-1.359-1.646-1.955-.596-.583-1.235-1.174-1.852-1.749-3.092-2.884-6.222-5.862-9.463-8.588-.676-.569-1.316-1.332-1.954-1.697-.268-.153-.725-.27-1.132-.463-.67-.317-1.192-.551-1.954-.463-2.167.25-4.352.498-6.531.771-2.177.273-4.368.629-6.533.823-2.156.193-4.271.675-6.377.978-1.618.232-3.225.44-4.68.823-.47.123-.953.314-1.44.411-1.261.252-2.533.194-3.754.463-.58.128-1.169.224-1.749.36-.546.128-1.05.378-1.594.515-.395.099-.826.062-1.234.154-.356.081-.683.34-1.028.411-.252.052-.52-.004-.771.052-1.074.24-2.217.53-3.24.874-.409.138-.892.388-1.234.412-.418.029-.793-.152-1.234-.103-.333.038-.659.233-1.028.309a215.984 215.984 0 0 0-16.714 4.114c-4.405 1.266-8.822 2.256-13.115 3.497-1.474.426-3.019.676-4.371 1.183-.273.103-.54.323-.823.412-.376.117-.729.091-1.029.206-.831.318-1.624.904-2.417 1.337-1.118.61-2.307.999-3.549 1.492-.341.135-.83.7-1.028.977-.204.284-.233.627-.412.926-.228.381-.698.593-.926 1.029-.223.428-.242.92-.412 1.542-.225.826-.225 1.199-.257 2.057-.012.308-.135.661-.154.926a437.417 437.417 0 0 0-.668 11.777c-.06 1.319-.04 2.654-.206 3.96-.017.132-.05.286-.103.463-.409 1.37-1.642 2.911-2.006 4.372-.152.611-.121 1.219-.257 1.903-.058.291-.25.591-.309.823-.187.742-.301 1.638-.411 2.52-.32 2.564-.5 5.639-.052 8.383.143.871.471 1.577.617 2.366.153.827.028 1.761-.154 2.623-.168.797-.291 1.651-.463 2.52-.164.826-.414 1.716-.411 2.571.002.821.396.942.565 1.44.098.287.049.602.154.874.153.396.416.763.669 1.029.271.285.709.356.977.72.257.351.364.804.565 1.131.227.369.538.571.823.926.179.224 1.161.442 1.364.671.256.29.685.554 1.028.823.356.279.689.63 1.029.875.406.292.92.365 1.286.668.423.352.626 1.088 1.286 1.183.15.431.549.728.926 1.028.354.283.698.68 1.08.926.24.155.582.175.823.36.786.604 1.312 1.636 2.108 2.057.306.162.716.116 1.029.257.72.327 1.138 1.212 1.8 1.697.302.221.684.298.978.514.556.411.984.84 1.337 1.337.46.251.999.206.977.771-.015.413-1.684.689-2.083.974-.45.321-.769.582-1.337.771-.729.244-1.735.267-2.366.514-.34.134-.583.576-.977.771-.207.103-.766.217-1.183.412-.745.347-1.682 1.062-1.903 1.903-.29 1.105-.365 2.356-.565 3.548-1.361 8.111-2.664 16.892-3.086 25.818a169.883 169.883 0 0 0-.206 8.022c0 1.285.124 2.618-.103 3.909-.234 1.332.1 2.604.052 3.908-.101 2.75 0 5.413 0 8.074 0 2.092.044 4.145.206 5.966.054.608.216 1.238.257 1.852.053.802-.008 1.634.051 2.469.207 2.931.612 6.074.823 8.691.035.43-.043.901 0 1.234.038.287.198.558.257.874.066.352.01.74.051 1.132.187 1.75.173 3.707.617 5.04.132.396.468.683.514 1.028.152 1.142-.348 2.285-.154 3.497.047.293.265.548.309.823.066.411-.057.859 0 1.234.071.466.316.917.412 1.388.102.507.292 1.022.36 1.492.042.294-.013.574.051.874.095.441.282.886.36 1.337.089.516.164 1.069.309 1.44.332.853 1.183 1.501 1.542 2.417.201.511.017 1.033.103 1.595.035.228.235.681.36 1.028.125.348.274.811.412 1.028.365.579 1.14.854 1.852 1.234 1.145.611 1.495 1.378 2.571 1.852.369.162.766.111 1.131.257.574.229.886.888 1.389 1.183.431.254 1.013.511 1.594.617.693.127 1.531.006 2.16-.051.889-.08 1.211.1 1.852.205 1.336.222 3.001-.639 4.217-1.028a17.342 17.342 0 0 1 2.058-.515c.794-.146 1.593-.031 2.263-.308.476-.197 1.048-.715 1.646-.771.393-.038.57.218 1.029.154.535-.074 1.338-1.274 1.954-1.029.393.156.255.836.36 1.389.093.489.411.868.462 1.234.064.455.032 1.034.103 1.646.138 1.183.321 2.17.463 3.188.154 1.104.354 1.921.566 3.035.119.627.325 1.06.206 1.542-.131.53-.595.695-.926 1.184-.125.185-.218.453-.36.668-.143.217-.379.347-.514.566-.113.183-.183.475-.309.72-.131.255-.362.496-.412.669-.081.279.018.775-.051 1.131-.052.265-.297.484-.36.771-.125.568-.139 1.402-.154 2.16-.015.744-.183 1.52-.154 2.211.05 1.192.393 2.375.206 3.446-.084.483-.391.944-.412 1.389-.038.798.5 3.213.771 3.703.294.529 1.464 1.161 2.211 1.646.833.539 1.868.836 2.726 1.131 1.915.659 3.969 1.431 5.709 2.006.964.319 2.087.462 3.137.721 2.165.532 4.761.359 7.354.359 1.597 0 3.212.109 4.269-.205.659-.196 1.483-.277 2.16-.309.511-.024 1.025.076 1.543.051 1.892-.092 4.221-.283 5.708-.822.455-.165.949-.213 1.286-.36.352-.153.599-.556.977-.669.267-.079.566.016.926-.103.358-.117.727-.574 1.183-.823.457-.248 1.009-.437 1.389-.668.438-.268.749-.779 1.183-1.028.725-.417 1.521-.442 2.007-.978.446-.492.666-1.184 1.029-1.903.226-.447.66-.782.72-1.183.131-.892-.286-1.098-.412-1.646-.036-.159-.015-.435-.051-.669-.037-.238-.131-.444-.104-.668.06-.481.465-.701.566-1.08.188-.701.188-1.558.257-2.366.1-1.16.569-1.998.309-3.086-.177-.735-.922-2.09-1.285-2.571-.36-.476-.865-.65-1.287-1.028-.305-.273-.521-.613-.822-.874-.606-.523-1.237-.952-1.955-1.389-.67-.408-1.463-.727-2.212-1.132-1.557-.843-2.938-1.498-4.886-1.852-2.4-.435-4.319-1.174-6.84-1.543-.501-.073-1.179-.044-1.491-.205-.574-.296-.891-2.03-1.131-2.829-.643-2.13-1.307-4.03-1.852-6.12-.273-1.047-.64-2.018-.771-3.239.396-.395.904-.615 1.389-.823.474-.204.938-.521 1.491-.72.494-.179 1.049-.248 1.594-.36.59-.121 1.244.031 1.852-.154.276-.084.485-.474.875-.617.193-.07.441-.031.617-.103.246-.101.447-.348.72-.463.251-.107.553-.107.771-.206.412-.186.678-.767 1.183-.668.181.682.475 1.479.463 2.211-.005.333-.197.668-.206 1.028-.009.399.131.787.154 1.184.076 1.292-.451 2.471-.514 3.548-.017.276.113.557.103.823-.009.244-.14.473-.154.72-.07 1.231.039 1.581.669 2.212.241.24.373.116.617.273.154.1.559.123.874.257.32.136.562.348.823.36.419.021.967-.37 1.646-.463.321-.044.641-.002.926-.052.593-.104 1.163-.682 1.543-.669.623.022 1.173-.249 1.801-.359.432-.076.822-.064 1.132-.154.436-.127.753-.51 1.183-.617 1.041-.261 2.181-.056 3.395-.206.685-.084 1.355-.375 2.058-.514 1.798-.356 3.883-.316 5.503-.771.474-.134.916-.352 1.389-.463.532-.126.992-.439 1.389-.515.288-.055.561.041.771 0 .292-.057.477-.27.72-.309.411-.065.916 0 1.337-.052.443-.054.871-.215 1.184-.205.386.012.698.191 1.131.103.44-.09.791-.639 1.234-.662 1.308-.068.916 1.448.72 2.086-.115.377-.204.801-.257 1.08-.135.723-.44 1.679-.206 2.417.241.756 2.098 1.655 2.932 2.212.842.561 1.465 1.065 2.264 1.439.301.142.593.197.925.36.571.28.865.88 1.389 1.234.869.588 2.352.989 3.497 1.439 1.233.484 2.509.805 3.857 1.08 1.425.291 2.964.328 4.475.463 1.525.137 3.045.286 4.525.411 2.99.254 6.107-.03 8.743-.822 1.278-.384 2.558-.725 3.754-1.183 1.212-.464 2.491-.937 3.395-1.595.298-.217.445-.532.771-.926.293-.353.6-.636.669-.874.139-.476.021-.993.051-1.543.034-.607.168-1.211.258-1.8.104-.678.313-1.303.359-1.749.046-.443-.344-1.245-.565-1.748-1.226-2.778-2.658-4.67-4.886-6.326-.329-.245-.883-.578-1.234-.978-.319-.362-2.153-.612-2.124-.835.051-.394 2.287-.555 2.741-.672.74-.191 1.45-.25 2.006-.412.765-.223 2.527-.707 2.629-1.508.035-.273-.027-1.764-.16-2.179-.433-1.347-.17-3.176-.206-4.731-.009-.399-.145-.766-.154-1.08-.018-.582.145-1.127.104-1.697-.026-.361-.169-.71-.206-1.08-.092-.905-.16-1.937-.103-2.726.02-.27.146-.514.154-.771.018-.566-.104-1.228-.104-1.902.004-1.448-.079-2.659-.154-4.063-.036-.69-.217-1.439-.051-1.954.377-1.172 1.857-.561 2.982-.463 1.747.152 3.293-.016 4.577-.359.677-.182 1.43-.285 1.954-.515.665-.291 1.678-1.996 1.954-2.726 1.008-2.651 2.081-5.106 3.446-7.303.287-.463.497-.962.771-1.389.45-.701 1.034-1.366 1.439-2.109.412-.754.898-1.631 1.132-2.468.146-.524.156-1.267.206-2.006.051-.764.28-1.679.205-2.16-.259-1.671-.533-3.424-.977-4.938-.385-1.312-1.057-3.138-1.8-4.114-.562-.738-1.638-1.363-1.749-2.16-.068-.484.253-.887.565-1.594.238-.539.446-1.1.669-1.492 1.569-2.758 3.376-5.332 4.988-7.868 4.481-7.048 8.612-14.345 12.909-21.395 1.305-2.141 2.769-4.478 4.319-6.377.329-.403.637-.816.926-1.234.567-.821 1.354-1.727 1.749-2.571.115-.247.141-.645.257-.875.159-.315.58-.462.721-.926.113-.41.158-.799-.012-1.281zM60.59 118.755c.462.084.987.05 1.491.154.849.175 1.502.175 2.52.206.259.008.525.109.771.103.362-.009.709-.185 1.029-.154.678.066 1.518.898 2.006 1.44.606.673 1.266 1.178 1.697 1.749.461.609.746 1.26 1.132 1.852.442.678.566 1.297.874 2.108.298.786 1.125 1.761 1.337 2.674.222.957-.056 2.188 0 3.292.015.303.154.616.154.875 0 .347-.193.661-.206 1.028-.012.359.101.66.103.978.002.388-.12.8-.154 1.234-.045.571.054 1.168-.051 1.646-.062.279-.237.509-.309.771-.081.294-.08.632-.154.926-.271 1.064-1.039 2.149-1.492 3.137-.439.96-.666 1.453-1.389 2.211-.32.336-.754.765-1.08.977-.31.202-.708.282-1.029.463-.418.236-.758.568-1.183.823-1.041.625-2.54 1.319-4.069 1.294-.639-.01-3.754-.51-5.034-.78-.334-.07-1.44-.514-1.44-.514s1.296-.882 1.594-1.028c.617-.305 1.286-.511 1.697-.875.283-.251.422-.783.72-1.131.254-.298.681-.516.977-.823.379-.393 1.097-1.283 1.337-1.8.122-.262.134-.632.257-.977.11-.308.35-.574.463-.875.087-.23.115-.556.206-.823.091-.266.271-.512.309-.72.047-.261-.041-.542 0-.823.087-.604.443-1.192.514-1.8.066-.565-.126-1.092-.154-1.697-.022-.465.174-.903.206-1.389a13.68 13.68 0 0 0-.051-2.211c-.114-1.073-.344-2.335-.514-3.446a7.235 7.235 0 0 0-.257-1.08c-.095-.281-.317-.509-.412-.771-.111-.311-.112-.672-.206-.978-.394-1.282-1.221-2.628-2.006-3.6-.212-.263-.318-.577-.514-.72-.596-.435-1.507-.362-1.954-1.029.582-.598 1.445-.046 2.264.103zm-13.732 17.794c-.022-.442.081-.913.051-1.389-.018-.284-.176-.593-.206-.874-.151-1.416.151-3.758.565-5.143.092-.308.297-.596.36-.926.061-.317-.042-.622 0-.874.082-.501.264-1.013.411-1.44.445-1.289 1.474-2.637 2.366-3.652.703-.8 1.118-1.113 2.211-1.646.594-.289 1.012-.555 1.903-.617 1.002-.07 2 .168 2.88.514 1.04.409 1.238.454 1.8 1.286.418.62.99 1.576 1.234 2.366.106.343.119.723.206 1.08.096.394.289.763.36 1.131.113.586.056 1.186.206 1.8.132.545.441 1.016.566 1.491.22.838.284 2.146.257 3.086-.032 1.084-.607 2-.72 3.137-.045.452.079.887 0 1.286-.144.72-.458.813-.669 1.337-.191.478-.145.792-.36 1.337-.112.285-.354.52-.514.823-.409.773-.65 1.291-1.286 1.903-.709.684-1.262 1.415-2.109 1.992-1.028.7-1.895 1.217-3.6 1.248-1.542.028-2.888-.847-3.548-1.8-.234-.338-.386-.799-.617-1.183-.23-.383-.536-.698-.72-1.08-.642-1.334-.935-3.345-1.027-5.193zm91.185 46.749c.181-.144.688-.303.926-.257.24.046.326.328.566.566.353.35 1.359.99 1.852 1.44.246.226.345.547.565.72.181.142.544.207.874.411.36.224.663.628.978.771.188.086.5.097.771.206.248.1.443.296.617.309.25.019 1.48-.634 1.491.103.007.492-1.242.616-1.852.823-.618.209-1.448.591-2.417.772-1.581.293-2.655.728-3.651 1.491-.357.044-.632-.06-.978 0-.983.169-1.971 1.329-3.188.565.008-.723.224-1.383.565-2.006.177-.322.503-.532.669-.823.341-.598.645-1.596 1.285-1.903.369-.177.85-.206 1.234-.36.359-.143.703-.254 1.029-.514-.554-.649-1.565.116-2.264.206-.188.024-.4.025-.582-.01-.277.25-.59.455-.949.574a.438.438 0 0 1-.296-.004c-.218.391-.656.628-.949.932-.585.607-1.17 1.554-1.697 2.366-.175.27-.474.519-.566.771-.092.253-.005.599-.103.823-.11.255-.471.379-.72.668-.288.335-.337.637-.617.771-.176.085-.544.069-.875.154-.7.181-1.139.606-1.748.412-.388-.124-.416-.589-.875-.875-.322-.2-.782-.158-.978-.463-.442-.69.021-1.813.154-2.417.051-.229-.002-.448.052-.617.065-.203.634-1.287.874-1.44.437-.278 1.3-.072 2.058-.154.41-.044.931-.201 1.338-.36.667-.26 1.308-.813 1.852-.926.237-.049.519.024.771 0 .634-.062 1.9-.553 2.06-.606.304-.101.542-.288.748-.528.168-.196.911-.267 1.049-.357.601-.393.544-.927.927-1.234zm-4.731-14.4c-.079-1.066.117-2.029.104-2.726-.006-.262-.125-.527-.154-.823-.1-.978.274-1.959.309-2.674.027-.577-.165-1.49-.104-2.263.081-1.008.55-2.943.721-3.754.153-.734.282-1.389.282-1.389s1.174-.17 1.774-.104c.627.068 1.929.284 1.929.284s-.861 3.622-.849 4.244c.015.717-.353 1.699-.463 2.674-.025.225.032.497 0 .72-.036.248-.229.506-.257.771-.084.792.095 1.636.051 2.417-.021.401-.182.788-.205 1.183-.021.339.072.692.051 1.029-.018.284-.145.556-.154.823-.02.597.177 1.23.154 1.852-.019.536-.23 1.059-.205 1.543.026.496.371 1.046.359 1.542-.006.304-.292.653-.309.978-.023.475.205 1.089.309 1.646.201 1.075.197 2.012.258 3.395.022.511.18 1.059.103 1.491-.122.689-1.433 2.392-2.623 1.903-.602-.247-.489-2.48-.617-3.806-.062-.654-.188-1.307-.205-2.006-.017-.688.029-1.408 0-2.108-.064-1.512-.34-2.753-.309-4.269.017-.901.114-1.706.05-2.573zm-4.269-5.606c.021-.252.187-.525.206-.771.09-1.145.013-2.496.205-3.703.043-.267.083-.496.124-.746.161-.99.018-1.96.469-2.312.332-.26 1.719-.301 2.134-.335 1.241-.102.978.231.874 1.337-.068.731-.403 2.178-.463 3.086-.049.75.115 1.382.103 2.108-.019 1.163-.309 2.417-.309 3.549 0 .409.123.763.104 1.131-.017.313-.026.599-.055.926-.089 1.036.078 2.135.157 3.24.185 2.576-.092 4.984.103 7.611.065.875.307 1.695.36 2.52.027.41-.076.795-.052 1.183.039.599.404 1.038.309 1.8-.342.464-.929.645-1.646.874-.522.167-1.443.657-2.006.309-.408-.252-.224-.947-.206-1.594a6.157 6.157 0 0 0-.154-1.44c-.092-.399-.037-.717-.06-.977-.032-.371-.164-.827-.146-1.234.029-.669-.106-1.385-.154-2.108-.049-.722.064-1.413.103-2.109.083-1.501-.265-3.108-.257-4.628.002-.435.11-.823.103-1.234-.011-.553-.152-.914-.154-1.389-.002-.45.215-1.007.257-1.594.081-1.113-.037-2.413.051-3.5zm-4.475 8.075c-.004-.422.063-.835.052-1.234-.025-.854-.114-1.526-.052-2.366.235-3.161.117-6.117.412-9.103.044-.445.098-1.42.254-1.545.262-.209 1.062-.55 1.495-.666.573-.155 1.19-.388 1.595-.412.655-.038.655-.038.565 1.337-.044.681-.29 1.068-.36 1.543-.047.318.027.668 0 1.029-.061.799-.34 1.656-.359 2.468-.021.838.091 1.678.051 2.52-.037.792-.155 1.577-.205 2.366-.029.463.071.934.051 1.389-.014.323-.039.659-.054.977-.034.738.074 1.466.105 2.212.077 1.827-.063 3.983.098 5.914.038.464.033.892.057 1.337.071 1.354-.018 2.787.257 4.166.147.736.576 1.355.309 1.852-.183.34-.814.416-1.44.514-.633.099-1.212.343-1.697.154-.754-.292-.75-2.266-.771-3.497-.013-.732-.208-1.427-.206-2.057.002-.364.105-.682.104-1.029-.007-1.058-.231-3.149-.309-4.011-.081-.9.121-1.812.154-2.726.01-.364-.102-.762-.106-1.132zm-.257 18c-.094.183-.453.828-.771.875-.217.031-.466-.187-.72-.309-.453-.219-1.76-.675-1.646-1.338.061-.354 1.052-.606 1.544-.617.371-.008.733.14 1.079.103.28-.03.527-.258.771-.051.045.461-.077.989-.257 1.337zm-6.012-15.069c.024-1.32.198-2.612.206-3.909.005-1.001-.129-2.066-.051-3.086.045-.599.088-1.201.057-1.749-.016-.282.182-.522.144-.926-.081-.849-.122-1.655.062-2.571.203-1.013.268-2.326.666-2.623.195-.145 1.243-.608 1.57-.707.789-.238 1.432-.615 2.228-.784 1.453-.31.848.426.721 3.034-.046.938.11 1.791.051 2.571-.021.288-.142.686-.154.978-.013.323.098.681.104 1.028.021 1.236-.26 2.582-.258 3.6.003 1.032.418 2.005.309 3.137-.02.209-.109.388-.154.771-.181 1.555.016 3.154.154 4.526.03.29.196.596.206.874.011.292-.149.634-.154.977-.005.334.104.687.103 1.029-.005.946.044 1.944.195 2.777.082.454.532 1.738-.041 2.52-.238.325-1.135.417-1.903.514-1.512.19-2.944.332-3.292-.977-.089-.336.034-.72 0-1.08-.103-1.108-.387-2.279-.463-3.497-.13-2.04-.346-4.301-.306-6.427zm1.023 14.297c-.398.024-.586-.785.154-.668.286.242.107.653-.154.668zm-.412 3.189c.752-.274 1.361.468 1.852.721.201.103.486.131.72.257.65.349 1.274.915 1.697 1.132.487.249 1.081.306 1.08.72-.001.811-1.879.659-2.263 1.183-.275.376-.265 1.51-.36 2.263-.099.778-.215 1.555-.309 2.264-.212 1.599-.312 3.048-.463 4.628-.044.459-.264.874-.36 1.337-.345 1.653-.273 3.459-.72 4.989-.122.417-.14 1.075-.617 1.234-.492-.517-.36-1.523-.36-2.417 0-4.386-.502-8.763-.412-13.32.036-1.75-.021-3.543.515-4.991zm-9 32.143c.152-.348.276-.758.412-1.028.124-.248.365-.414.463-.617.058-.122.151-.502.206-.617.146-.312.356-.65.566-.978.314-.492.691-1.051 1.08-1.594.233-.326.375-.706.617-.926.211-.192.582-.297.875-.515.298-.222.603-.523.926-.771.318-.244.695-.439.977-.669.263-.213.396-.591.617-.771.284-.231.93-.545 1.337-.566.354-.018.756.096.875.463.101.312-.155.758-.206 1.08-.055.345.012.708-.052 1.028-.058.292-.246.576-.309.875-.061.293-.024.566-.103.771-.163.427-.754.567-1.029 1.08-.122.227-.06.529-.206.822-.12.242-.704.783-.926 1.028-.314.349-.652.625-.926 1.029-.279.411-.458.827-.617 1.337-.25.804-.512 1.318-.72 2.263-.117.532-.223 1.022 0 1.595.15.384.55.598.771 1.028.16.312.153.685.36.978.301.426.769.394 1.08.72.238.248.256.702.463.926.141.153.509.225.771.411.604.43 1.411 1.058 2.263 1.234.369.076.755-.002 1.131.052.384.055.715.352 1.08.411.583.096 1.032-.066 1.441-.052 1.338.048 2.442.134 3.651-.103.992-.194 1.97-.971 2.933-1.44a11.06 11.06 0 0 0 2.623-1.748c.269-.239.646-.816 1.028-.874.491-.075 1.039.281 1.337.514.375.293.578.672.978 1.08.286.293.885.647.874 1.183-.015.744-1.269 1.21-1.8 1.595-.483.35-.936.872-1.44 1.286-.532.437-.948 1.016-1.439 1.233-.807.359-1.937.504-2.881.823-.982.333-1.417.514-2.726.463-.293-.012-.587-.099-.875-.103-.552-.008-1.087.162-1.697.205-1.203.087-2.761.04-3.858-.051-.892-.074-1.615-.47-2.417-.771-.608-.229-1.306-.399-1.749-.669-.527-.32-.903-.943-1.44-1.439-.287-.266-.689-.426-.978-.669a9.092 9.092 0 0 1-1.44-1.595c-.445-.653-.989-1.682-1.337-2.571-.166-.422-.343-.988-.412-1.389-.105-.613.04-1.219-.051-1.852-.089-.621-.579-1.276-.514-2.057.022-.245.235-.67.413-1.078zm8.383 1.954c.028.363-.02.858 0 1.337.051 1.205.336 2.567-.411 2.521-.576-.036-1.423-2.319-1.389-3.395.015-.454-.005-1.09.103-1.646.061-.312.37-.63.463-.874.294-.771.318-1.88 1.028-2.006.697-.124.688 1.631.463 2.571-.048.201-.317.473-.36.771-.026.188.091.563.103.721zm-42.995-21.034c.552.189.67.733.926 1.337.281.663 1.151 1.215.977 1.749-.21.644-1.563.183-2.366.359-.336.074-.609.479-.977.669-.287.147-.616.213-.926.36-1.048.497-1.868 1.425-2.777 2.005-.374.239-.757.299-.978.566-.15.183-.162.506-.308.822-.286.618-.84 1.457-.978 2.264-.032.188.033.515 0 .874-.047.524-.285 1.12-.257 1.439.026.306.267.509.36.823.124.416.029.901.412 1.183.619-.735.429-1.539.514-2.417.023-.24.212-.461.309-.771.263-.853.326-1.817.72-2.365.141-.195.426-.383.669-.617.467-.453.82-.688 1.389-1.08.232-.161.451-.384.668-.515 1.066-.638 2.248-.622 3.6-.668.333-.012.834-.059 1.183-.154.287-.08.578-.445.977-.463 1.185-.053 1.524 1.317 2.006 2.108-.63.698-1.667 1.179-2.571 1.852-.439.326-.718.825-1.131 1.131-.538.398-1.132.604-1.286 1.234-.069.285.047.621 0 .926-.057.368-.4.698-.514 1.132-.059.225.008.505-.051.72-.099.355-.49.582-.566.926-.054.244.053.632 0 .978-.045.299-.254.557-.257.771-.004.313.3.7.412 1.08.174.592.166 1.216.36 1.646.104.23.406.337.617.617.164.217.179.548.309.72.281.371.849.698 1.234.668.126-1.265-.589-2.319-.668-3.548-.018-.272.067-.549.051-.823-.023-.418-.226-.828-.206-1.285.014-.309.224-.612.309-.978.054-.233-.002-.468.051-.669.428-1.609 1.487-2.457 2.623-3.343.352-.274.625-.655.926-.822.294-.164.848-.306 1.337-.566.419-.223.942-.57 1.337-.565.778.01 1.448.858 2.108 1.286.363.234 1.296.444 1.337.925.022.269-.65.845-.978 1.234-.317.378-.699.885-.874 1.338-.065.169-.027.422-.103.617-.081.208-.327.367-.411.565-.106.249-.404 1.095-.412 1.286-.014.339.246.61.257.874.023.542-.425.943-.412 1.337.008.247.306.49.36.823.112.693-.055 1.609 0 2.365.042.586.426 1.071.617 1.646.127.38.133.907.309 1.132.325.414 1.512.727 2.211.515.002-.545-.392-.684-.565-1.029-.214-.425-.388-.906-.566-1.337-.333-.805-.464-1.686-.36-2.88.041-.468.337-.826.411-1.389.035-.266-.104-.59-.051-.874.077-.411.545-.867.771-1.389.354-.813.421-1.025 1.028-1.646.424-.434.587-.862 1.234-.978.33-1.082.921-1.03 2.006-.515.412.196.895.346 1.234.515.275.137.483.384.72.463.447.148.767-.071 1.029.309-.014.453-.392.474-.617.823-.404.627-.41 1.486-.72 2.159-.129.279-.512.448-.617.721-.145.371-.203 1.164-.257 1.748-.131 1.408-.006 2.71.463 3.703.161.342.516.619.771.978.269.376.419.87.668 1.08.405.34 1.203.563 1.749.565.15-1.104-.823-1.671-1.131-2.675-.117-.381-.208-.942-.257-1.389-.149-1.336.206-2.535.72-3.6.369-.764.751-1.615 1.131-2.006.191-.195.624-.381 1.029-.668.357-.255.68-.612 1.028-.669.562-.091.862.235 1.389.36 1.073.254 2.042-.023 1.646 1.183-.068.208-.09.449-.154.617-.113.296-.356.457-.411.668-.057.216-.012.552-.052.771-.168.934-.659 1.86-.668 2.521-.004.339.184.614.257.977.076.378.045.765.154 1.132.476 1.597 1.395 3.05 3.188 3.395.15-.684-.409-.829-.617-1.337-.2-.487-.354-1.173-.514-1.801-.167-.656-.401-1.34-.36-1.954.022-.338.188-.615.257-.926.059-.262.021-.545.103-.822.262-.886 1.008-1.757 1.749-2.212.613-.377 1.186-.411 1.234-1.389.761-.221 1.543.229 2.263.257.424.018.896-.281 1.183.104.181.775-.572.842-.823 1.337-.103.202-.095.526-.206.771-.268.592-.707.997-.874 1.852-.042.21-.008.448-.052.668-.109.553-.439 1.087-.514 1.646-.025.188.031.43 0 .617-.115.699-.462 1.342-.514 1.902-.038.41.079.856 0 1.234a18.76 18.76 0 0 1-1.44 4.166c-.649-.082-1.341-.346-2.16-.411-1.354-.11-2.779-.112-4.063-.412-.387-.09-.701-.312-1.08-.359-.409-.051-.818.056-1.234 0-.398-.054-.892-.193-1.286-.309-.553-.162-1.102-.5-1.646-.566-.297-.036-.584.102-.926.104-.831.005-1.681-.369-2.469-.463-.571-.068-1.079.112-1.594-.052-.316-.101-.583-.487-.874-.617-.473-.21-1.102-.264-1.697-.411-.543-.135-1.037-.504-1.492-.617-.226-.057-.501.015-.771-.052-.22-.054-.411-.234-.668-.309-.275-.079-.567-.073-.823-.154a10.126 10.126 0 0 1-1.389-.565c-.423-.21-.739-.57-1.183-.823-.572-.326-1.205-.591-1.8-.926-1.647-.926-3.33-2.109-5.04-3.034-1.096-.592-2.074-1.475-2.983-2.417-.939-.974-2.011-1.739-2.674-2.674-.184-.261-.29-.597-.463-.875-.443-.713-1.043-1.348-1.491-2.108-.227-.385-.408-.778-.617-1.183-.302-.584-.603-1-.926-1.646-.386-.771-1.07-1.522-1.286-2.212-.085-.271-.035-.593-.103-.874-.098-.406-.353-.768-.463-1.183-.114-.432-.124-.899-.257-1.338-.21-.692-.33-1.324-.566-2.16-.462-1.636-1.177-3.223-1.594-4.834-.141-.544.091-1.308.051-1.954-.018-.288-.228-.515-.309-.823-.104-.4-.128-.991-.257-1.543-.125-.535-.311-1.066-.257-1.491.041-.327.4-.603.463-.926.05-.257-.063-.56-.051-.822.021-.481.202-1.194.36-1.749.22-.773.453-1.435.771-2.006.054-1.281.677-2.175 1.389-2.983.684-.777 1.698-1.51 2.468-1.749.278-.085.597-.044.875-.103.531-.112.921-.278 1.491-.309.392-.021 1.513.044 2.006.154.286.063.538.28.875.411.379.148.907.158 1.234.36.459.283.954.897 1.543 1.388.539.449 1.162.935 1.44 1.44.42.762.193 1.731.309 2.675.05.404.606 1.796-.154 1.954-.634.132-.972-.785-1.542-.926-.304-.075-.61.075-.926.052-.335-.025-.582-.284-.875-.36-1.234-.323-3.092-.274-4.423-.052-.454.076-1.374.456-1.8.721-.378.234-.729.612-1.029.926-.305.317-.676.617-.926.977-.117.169-.13.41-.257.617-.273.446-1.144 1.164-1.08 2.006.034.448.265.559.72.771.222-.286.209-.819.463-1.132.141-.173.508-.312.823-.514 1.002-.642 1.946-1.87 3.394-2.108 2.12-.351 4.659-.221 6.12.72-.111 1.311 1.173 1.227 2.057 1.543.231.319.104.67.206 1.08.084.338.377.629.515.977.178.451.189.965.308 1.44.104.417.465.904.103 1.285-.761.2-1.06-.468-1.594-.565-.263-.048-.575.064-.874.052-.725-.03-1.418-.299-2.212-.154-.323.059-.703.232-1.08.309-.533.106-1.065.07-1.389.205-.208.088-.368.43-.72.721-.255.211-.577.294-.72.411-.223.184-.467.637-.669.874-.401.472-1.064.853-1.234 1.184-.104.201-.097.543-.206.771-.27.569-.884.971-.977 1.44-.068.345.075.703.103 1.028.065.778-.045 1.762.463 2.212.509-.729.435-1.66.72-2.417.372-.987 1.245-1.898 2.109-2.623 1.057-.887 2.552-1.69 4.371-1.8.929-.057 1.322.336 2.006.463.359.066.772-.018 1.131.051.286.055.539.259.823.309.29.051.615-.055.926.052zm-17.177 53.28c-.368 1.15-.1 2.241-1.183 3.138-.606-.48-.516-1.607-.668-2.521-.124-.736-.341-1.191-.463-2.108-.036-.267-.118-.507-.103-.72.03-.438.396-.787.412-1.184.015-.39-.27-.809-.36-1.337-.091-.533.03-1.142 0-1.697a28.626 28.626 0 0 0-.309-2.828c-.065-.412-.275-.754-.309-1.08-.027-.273.065-.55.052-.823-.031-.639-.232-1.271-.309-1.902-.112-.929-.154-1.879-.257-2.829-.159-1.466-.323-2.935-.463-4.475-.199-2.194-.449-4.416-.617-6.634-.223-2.94.154-5.919-.103-9-.035-.417-.176-.691-.206-1.08-.147-1.921.154-4.144.154-6.326 0-4.331.107-8.322.309-12.651.097-2.091-.109-4.241.206-6.223.846-5.325 1.732-11.201 2.932-16.458.181-.79.252-1.732.466-2.674.208-.915.105-2.292.419-2.669.351-.42 1.745-.773 2.355-1.08.731-.368 1.41-.529 2.005-.829 1.419-.713 2.739-1.579 3.96-2.108.397-.172 1.061-.659 1.337-.546.497.201.81.667 1.234.977 1.232.9 3.107 1.364 4.474 2.376.481.357.874.813 1.337 1.08.297.171.667.239.977.412.335.186.602.506.926.668.18.091.481.149.72.257.342.154.65.499.925.566.306.074.599.399.823.452.616.143 1.217.958 1.954 1.277.787.34 1.467 1.085 2.16 1.223.349.07 1.44.463 1.44.463s-2.947 1.199-3.446 1.337c-.472.13-1.229.353-1.852.514-.858.223-1.986.815-3.188.514-.474-.119-.826-.811-1.389-1.131-.822-.469-1.845-.852-2.88-1.337-.469-.22-.908-.49-1.389-.72-.494-.236-1.043-.344-1.543-.566-.773-.344-1.549-.863-2.417-1.337-.883-.482-1.75-.468-2.52-.834-.425-.202-1.448-.672-1.889-.668-.411.003-1.231.171-1.243.685-.017.802.643.993 1.486 1.332.585.235 1.114.519 1.492.72.513.272 1.061.426 1.543.668.509.256.963.591 1.44.771.244.092.613.141.771.206.286.118.477.441.771.566.547.231 1.275.305 1.851.514.278.101.489.351.72.412.322.084.865.068 1.131.154.323.103.575.362.926.565.298.173.658.28.977.463.478.275 1.546.705 1.646 1.234.066.352-.18.692-.257 1.028-.081.355-.186.756-.206 1.08-.017.268.115.687.103.926-.034.656-.401 1.949-.823 2.006-.542.073-1.253-1.082-1.543-1.389-.927-.983-1.526-1.761-2.983-2.211-.392-.121-.91-.153-1.337-.257-.439-.107-.862-.312-1.183-.36-1.223-.184-2.637.246-3.548.463-.43.103-.854.1-1.183.206-.925.298-2.171 1.302-2.931 1.955-.318.273-.662.442-.926.668-.176.151-.243.451-.463.72-.211.258-.526.413-.617.566-.193.321-.541 1.271-.668 1.748-.463 1.732-.484 3.686-.668 6.068-.122 1.573-.342 3.251-.309 4.526.031 1.21.411 2.522.668 3.806.263 1.311.452 2.701.771 3.651.119.353.435.659.514.978.064.255.004.527.051.771.279 1.443.774 2.967 1.44 4.217a84.362 84.362 0 0 0 1.749 3.137c.194.33.489.602.668.926.178.322.248.676.411.978.456.837.906 1.797 1.492 2.571.482.638 1.144.97 1.749 1.595.771.797 1.274 1.878 2.057 2.776.849.975.544 1.54.412 3.138-.047.564.016 1.109-.052 1.646-.038.298-.172.64-.206.978-.128 1.282.149 2.785.103 4.062-.043 1.205-.193 2.359-.103 3.446.037.444.245.845.257 1.234.011.366-.203.789-.206 1.233-.004.624.244 1.312.206 1.801-.019.241-.203.437-.36.771-.132.28-.202.618-.309.822-.403.779-1.261 1.568-1.954 2.366-.339.39-.646.798-.977 1.183-.342.397-.568.812-.875 1.234-.236.325-.604.575-.823.926-.211.337-.261.751-.463 1.08-.523.854-1.505 1.394-2.006 2.263-.17.296-.257.607-.463.926-.352.544-.569 1.11-.925 1.748-.156.293-.422.552-.509.825zm16.56 17.075c-.059-.41.51-.54.617-.205-.047.259-.401.407-.617.205zm7.818-3.548c-.203.438-.844.553-1.389.771-1.419.568-3.236 1.822-5.194 1.543.727-1.809 2.45-2.737 3.086-4.628.08-.237.073-.497.154-.721.086-.237.259-.416.36-.668.254-.634.317-1.357.617-2.006a.37.37 0 0 1 .154-.103c.396.109.611.69.926 1.233.142.246.443.502.514.721.097.299.02.771.103 1.131.22.952 1.17 1.641.669 2.727zm44.281 27.976c-.021.271.06.523.052.771-.04 1.27-.679 2.645-1.337 3.446-.805.979-2.455 1.676-3.653 2.52-.428.302-.898.598-1.286.721-.504.158-1.02.118-1.492.257-.772.227-1.302.852-2.057 1.08-.652.197-1.442.246-2.16.359-1.402.223-2.878.526-4.371.669-.8.076-1.583-.012-2.366.103-.32.047-.677.223-.977.258-1.134.131-2.477-.114-3.754-.206-1.247-.089-2.545-.149-3.754-.206-1.207-.056-2.468-.119-3.549-.411-.539-.146-1.035-.336-1.543-.463-.556-.14-1.14-.17-1.646-.309-.9-.246-1.675-.684-2.52-.926-.833-.238-1.768-.344-2.571-.668-1.062-.429-2.406-.846-2.777-1.852-.188-.511-.106-1.223-.154-1.852-.042-.552-.301-1.029-.051-1.44 1.315-.175 2.209.938 3.188 1.44.79-.143 1.159.331 1.697.565.396.173.911.24 1.389.411.601.216 1.177.617 1.697.771.252.075.611.027.926.104.408.099.741.383 1.08.411.349.029.732-.127 1.08-.103.904.062 1.771.595 2.674.668.615.051 1.237-.19 1.852-.154.313.019.604.22.926.258.388.045.977.01 1.44-.052.218-.029.427-.188.668-.206.843-.061 2.269.338 3.086.309.537-.019 1.154-.331 1.749-.359.724-.035 1.457.111 2.057 0 .336-.063.672-.51 1.131-.566.356-.043.858.168 1.286.154.442-.014.854-.242 1.337-.359.327-.08.674-.077.977-.154.528-.136.99-.526 1.491-.617.238-.043.582.042.875 0 .502-.072 1.07-.412 1.594-.617 1.095-.429 2.016-.778 3.137-1.234.525-.213 1.253-.456 1.492-.669.3-.267.31-.789.566-1.08.608-.689 2.054-.936 2.366-2.057.802-.553.228.987.205 1.285zm-19.236-8.691c.231-.119.533-.119.771-.257.534-.308.904-1.217 1.389-1.8.191-.23.429-.284.463-.566.057-.468-.345-1.009-.515-1.439-.162-.412-.491-.895-.154-1.491 1.165-.056 2.895-.132 4.269.154.925.192 1.747.678 2.674.977.94.303 1.817.621 2.674.978.847.352 1.535.909 2.314 1.337.326.18.67.276.979.463.24.146.489.398.771.565.339.2.761.301 1.08.515.374.25.662.723 1.132 1.08.849.646 1.545 1.1 1.132 2.674-.206.786-.776 1.623-1.286 2.366-1.395 2.034-3.894 3.438-6.481 4.32-.851.29-1.797.551-2.674.72-.596.115-1.167.073-1.697.206-.999.249-2.091.848-3.343.977-.411.043-.672-.033-.977 0-.507.057-1.043.372-1.491.411-.339.03-.646-.073-.875-.051-.417.04-.806.316-1.183.359-.449.052-.927-.063-1.389-.051-.442.012-.897.116-1.337.103-.791-.023-1.612-.18-2.417-.206-1.453-.046-2.779.122-4.166 0-.459-.04-.896-.316-1.44-.463-.557-.148-1.194-.147-1.8-.257-.91-.164-1.753-.685-2.571-1.028-.352-.148-.674-.371-1.029-.515-.873-.353-1.699-.61-2.469-1.08-1.028-.627-1.612-.949-2.263-1.852-.844-1.169-.994-1.771-.823-3.6.089-.953.032-2.763.771-2.932.423-.097.8.431 1.183.617.59.288 1.767.777 2.469.823.323.021.661-.128.926-.104.269.026.515.29.823.36.187.043.415-.036.617 0 .276.05.537.292.823.36.314.074.653.02.926.103.407.123.688.46 1.028.565.559.175 1.542.334 2.16.36.369.016.908-.042 1.44-.154.289-.061.556-.284.875-.36.261-.062.555-.042.823-.103.626-.143 1.256-.334 1.903-.463.668-.133 1.393-.291 1.903-.463.302-.102.501-.387.771-.515.57-.269 1.176-.325 1.697-.565.573-.262 1.019-.78 1.594-1.078zm-2.725-10.594c.362 1.018.468 2.455.874 3.702.226.692.814 1.381 1.08 2.058.075.19.082.454.154.669.186.545.485.863.206 1.491-.17.383-.647.588-1.08.926-.411.319-.8.673-1.183.822-.376.147-.772.118-1.08.258-.509.229-.821.84-1.388 1.028-.247.082-.55.033-.823.103-.266.068-.497.276-.771.36-.545.167-1.238.321-1.903.463-2.069.44-4.715.212-6.686-.411-.699-.222-1.349-.463-2.057-.617-.658-.145-1.4-.256-1.8-.823.238-.575.188-.997.206-1.646.797-.354 1.939.214 3.085.257.257.01.517-.065.771-.052.271.015.552.181.823.154.28-.026.551-.358.823-.411.504-.098 1.11.133 1.646.052.275-.042.498-.251.771-.309.923-.194 1.89-.175 2.777-.309 1.031-.155 2.017-.911 2.468-1.595-.589-.019-1.159.357-1.903.412-1.806.131-4.205.047-6.171.051-.778.002-1.392.184-2.16 0-.564-.135-1.33-.595-1.954-.874-.383-.172-.956-.26-1.131-.515-.135-.195-.121-.594-.206-.977-.145-.651-.188-1.099-.36-1.955-.063-.316-.275-.634-.154-.874.276-.547 1.182.016 1.697.052.67.046 1.622-.125 2.417 0 .477.074.875.29 1.183.309.398.023 1.118-.108 1.749-.206 1.004-.154 1.806-.237 2.931-.359.453-.05 1.387-.668 1.749-.926.5-.357.912-.765 1.234-1.286-1.145-.274-2.202.552-3.445.669a25.64 25.64 0 0 1-2.16.103c-.651 0-1.388-.222-2.109-.257-.539-.027-1.116.07-1.594 0-.233-.035-.642-.271-.926-.309-.99-.134-2.714.191-3.137-.309-.316-.374-.378-1.833-.462-2.366-.128-.81-.208-1.689-.412-2.365-.156-.52-.596-1.111-.257-1.749.817-.11 1.625-.206 2.469-.103.638.078 1.163.398 1.8.309.286-.041.547-.325.823-.36.222-.027.492.109.72.103.604-.016 1.329-.408 2.006-.565.888-.206 1.827-.322 2.726-.771 1.313-.656 2.596-.752 3.137-1.902-1.026-.508-1.992.083-2.777.359-1.381.486-2.821.751-4.32.978-.398.06-.762.227-1.183.257-1.189.087-2.409-.025-3.6.206-.415.08-1.442.659-1.852.565-.458-.104-.724-.993-.823-1.337-.144-.502-.246-1.157-.412-1.8-.133-.518-.504-1.335-.412-1.801.053-.262 1.082-1.007 1.389-1.131.272-.11.601-.102.875-.206.951-.362 1.753-1.078 2.726-1.491.622-.264 1.35-.408 1.955-.669.275-.118.513-.344.771-.411.266-.069.648.004.874-.052.31-.076.523-.392.823-.514.235-.096.523-.071.771-.154.958-.321 1.799-1 2.572-1.286-1.076-.714-1.875.172-2.932.566-.678.252-1.5.326-2.263.514-.316.078-.602.256-.926.36-.317.102-.641.293-.926.359-.214.051-.465-.001-.669.052-.761.197-1.425.684-2.16.874-.262.068-.524.022-.771.104-.702.228-1.805 1.406-2.623 1.08-.556-.223-.367-1.075-.463-1.749-.13-.911-.878-1.772-.977-2.469-.122-.859.479-1.771.771-2.417.117-.258.151-.558.257-.771.319-.643 1.025-1.107 1.491-1.697.374-.473.679-1.123 1.08-1.389.183-.121.454-.138.668-.257.655-.365 1.179-1.02 1.8-1.286.22-.094.487-.109.72-.205.673-.278 1.271-.777 1.955-.978.295-.087.622-.062.926-.154.354-.107.667-.379 1.028-.514.567-.212 1.396-.095 1.697-.721-.356-.268-.834-.085-1.183-.051-.919.088-1.608.343-2.366.514-.806.183-1.57.225-2.314.515-.319.124-.555.413-.875.565-.799.382-1.716.544-2.469 1.028-.276.178-.455.492-.72.721-.256.221-.598.368-.875.565-.672.479-1.396 1.107-1.852 1.697-.146.189-.2.463-.36.669-.138.176-.387.281-.514.462-.157.224-.265.501-.463.771-.164.225-.374.486-.514.721-.341.566-.623 1.772-1.646 1.646-.546-.067-.71-.896-.874-1.543-.18-.711-.424-1.353-.463-1.903-.059-.817.04-2.051.103-3.085.036-.589.061-1.223.154-1.646.082-.367.335-.631.463-.977.354-.956.553-1.901.977-2.777.429-.886 1.03-1.508 1.389-2.314-1.619.138-2.274 1.56-2.983 2.932-.161.312-.397.556-.514.823-.165.377-.197.874-.36 1.337-.279.793-.868 1.873-.977 2.828-.074.645.095 1.414.051 2.109-.032.516-.197 1.004-.154 1.439.038.381.285.78.309 1.183.017.283-.085.557-.051.823.049.394.369.91.463 1.389.061.314-.024.689.051.926.207.652 1.283.814 1.491 1.439.121.363.018 1.057-.257 1.184-.368.169-.492-.199-.926-.36-.208-.077-.531-.034-.668-.103-.203-.102-.332-.428-.566-.617-.222-.18-.56-.271-.72-.412-.25-.219-.372-.619-.617-.977-.23-.337-.576-.568-.72-.874-.141-.3-.194-.682-.36-1.029a21.77 21.77 0 0 1-1.08-2.828c-.101-.334-.153-1.105-.154-1.543-.004-1.286.057-2.577 0-4.012-.012-.302-.151-.614-.154-.926-.01-.896.601-1.668.463-2.52-1.049.317-1.42.918-1.8 1.902-.097.251-.272.498-.309.669-.102.475.007 1.091-.051 1.646-.081.77-.251 2.055-.257 3.086-.001.213.091.481.103.72.04.821-.173 1.702-.103 2.366.132 1.234.705 2.667 1.337 3.548.166.231.521.396.72.669.459.632.681 1.359 1.234 1.749 1.075.755 2.758.935 4.063 1.646.015.998-.445 1.739-1.028 2.52-.297.397-.667 1.168-1.08 1.234-.345.057-.698-.254-1.029-.309-.562-.092-1.167.04-1.851-.154-.804-.229-.996-.859-1.595-1.439-.64-.621-1.363-1.033-1.851-1.852-.181-.304-.287-.67-.463-1.028-.36-.735-1.01-1.407-1.286-2.109-.191-.485-.167-1.032-.309-1.542-.125-.446-.327-.853-.463-1.338-.124-.443-.411-.865-.463-1.285-.039-.311.069-.582.051-.875-.043-.719-.534-1.473-.514-2.365-.693.113-.804.717-1.08 1.389-.12.291-.311.567-.36.771-.187.77-.194 1.85-.052 2.674.057.327.336.626.463.978.332.921.583 1.909 1.029 2.828.207.427.503.826.72 1.234.52.981.915 1.648 1.646 2.521.384.459.67 1.026.977 1.285.371.313 1.086.377 1.697.721.634.356.83.895 1.389 1.08.565.187 1.514.061 1.594.565.072.454-.682.855-1.029 1.131-.411.327-.834.738-1.337.771-.286.02-.626-.171-1.029-.309-.365-.124-.766-.15-1.028-.257-.321-.13-.521-.416-.771-.515-.288-.113-.675-.11-.875-.205-.371-.176-.83-.729-1.234-1.08-.817-.71-1.708-1.563-2.16-2.623-.105-.246-.106-.53-.206-.771-.275-.667-.71-1.369-.977-2.211-.275-.869-.652-1.647-.977-2.572-.429.613-.874 2.437-.72 3.498.074.511.558.958.771 1.491.095.235.107.572.206.771.158.319.643.508.874.822.256.35.378.832.72 1.234.32.377.526.879.823 1.132.269.229.766.302 1.131.565.494.356.849.954 1.234 1.183.5.298 1.338.362 1.234 1.184-.337.436-.859.239-1.337.205-.937-.066-1.875.056-2.623-.257-1.124-.469-2.039-1.28-2.674-2.212-.296-.434-.489-1.091-.771-1.646-.286-.562-.73-1.07-.875-1.491-.137-.399-.138-.977-.257-1.543-.458-2.181-.377-5.06.515-6.686.188-.344.536-.654.668-1.028.14-.396.141-.816.257-1.184.112-.354.332-.633.463-.977.268-.702.453-1.363.823-2.006.175-.304.506-.511.668-.823.137-.262.14-.572.257-.822.218-.465.688-.908.977-1.389.178-.296.235-.65.411-.875.209-.266.857-.536 1.234-.874.638-.571 1.133-1.536 1.697-2.057.216-.2.525-.293.72-.463.287-.252.469-.664.72-.875.395-.33.873-.507 1.234-.822.285-.249.438-.606.72-.874.465-.442.99-.748 1.44-1.286.875-1.045 1.76-1.74 3.085-2.366.597-.281 1.179-.696 1.8-.925.837-.31 1.876-.464 2.931-.566.948-.092 1.792-.457 2.623-.514 1.541-.106 3.917.354 5.246 1.08.403.22.704.639 1.132.874.278.152.613.177.874.309.647.325 1.611 1.121 2.109 1.697.262.303.375.661.668.977.39.42.999.714 1.286 1.183.128.211.146.465.257.669.185.341.563.467.771.771.108.158.172.445.309.669.208.34.527.555.515 1.131.271.305.772.511.977.875.176.312.201.732.36 1.079.209.457.571.808.771 1.234.641 1.362.93 2.94 1.389 4.577.08.287.28.541.36.823.301 1.064.474 2.294.823 3.497.332 1.143.736 2.288.926 3.395.095.554-.06 1.204 0 1.852.034.368.153.825.257 1.234.103.402.159.808.257 1.183.065.251.243.481.309.72.107.396.063.815.154 1.184.096.391.395.738.462 1.131.055.313-.009.621.052.926.058.291.22.554.309.823.256.774.4 1.722.617 2.571.147.579.599 1.097.668 1.543.053.339-.107.673-.051.977.067.331.411.569.52.874zm10.08-29.263c-.166 1.037 0 2.47 0 3.857 0 2.074.003 3.988.103 5.812.024.429.24 1.153.103 1.543-.105.297-.743.652-1.183.926-.489.304-.896.628-1.286.822-.727.363-1.596.532-2.366.771-.679.212-1.11.565-1.851.617-.41.029-.594-.068-.926-.051-.422.021-1.218.245-1.852.411-.521.137-1.266.555-1.749.309-.489-.25-.408-1.254-.617-2.058-.08-.309-.244-.553-.309-.822-.288-1.199-.329-2.049-.977-2.726.033-1.672-.807-2.751-1.183-4.114-.306-1.112-.414-2.259-.771-3.24-.354-.976-.85-1.877-1.183-2.829-.278-.795-.43-1.501-.875-2.16-.126-.187-.328-.366-.411-.565-.087-.209-.024-.434-.103-.617-.111-.259-.444-.378-.668-.668-.245-.317-.398-.752-.617-1.029-1.11-1.402-2.47-2.629-4.063-3.702-.501-.339-.984-.792-1.491-1.08-1.01-.574-2.387-1.058-3.651-1.492-1.21-.415-2.708-.87-3.96-1.131-.802-.167-2.059.037-2.777.154-.342.056-.738-.011-1.029.051-.47.101-.992.367-1.491.515-1.154.342-1.891.62-2.777 1.234-.818.566-1.73.777-2.726 1.286-.815.416-1.719.991-2.057-.154-.08-.271.002-.676 0-1.132-.004-.585-.178-1.224-.206-1.749-.012-.237.065-.452.052-.668-.019-.292-.172-.574-.206-.875-.1-.895-.154-1.918-.103-2.674.048-.707.447-1.369.463-2.006.008-.333-.161-.698-.154-1.028.011-.598.216-1.792.771-1.646.592.155 1.178.397 1.749.617a5.1 5.1 0 0 1 1.08.565c.339.244.548.592.874.72.345.136.732.088 1.029.206.507.201.812.624 1.286.771.373.116.853.001 1.337.154.431.136.768.609 1.183.874.423.271.807.716 1.183.874.514.218 1.255.261 1.903.515.781.306 1.44.938 2.211 1.028.53.062 1.098-.179 1.697-.103.455.058.785.454 1.234.617.47.17 1.014.067 1.492.154.296.054.57.294.874.359.613.133 1.243-.045 1.903.052.322.047.551.343.875.463.232.087.55.102.823.206.247.095.469.272.668.309.785.142 1.679-.194 2.572-.104.493.051.972.306 1.44.36.488.057.97-.098 1.44-.052.371.037.703.354 1.08.412.765.117 1.512-.324 2.314-.104.227.168.287.502.309.875.892 1.577 1.439 3.498 2.366 5.04.333.367.707.693 1.08 1.028.367.329.708.711 1.08 1.028.833.709 2.022 1.159 3.086 1.697 1.073.543 2.047 1.27 3.034 1.697.523.227 1.117.14 1.234.565.098.366-.259.768-.31 1.085zm-1.234-4.321c-.797-.348-1.459-.93-2.16-1.439-.705-.513-1.362-1-2.005-1.595-.685-.632-1.494-1.171-1.903-1.852-.413-.686-.761-1.506-1.183-2.365-.338-.689-1.031-1.763-1.08-2.417-.045-.6.406-1.067.514-1.646.062-.329-.029-.931.052-1.338.144-.721.754-2.098.977-2.931.156-.584.112-1.3.36-1.492.123-.251.624.026.72.154.191.255.063.715.206 1.08.136.35.659.477.823.771.195.35.159.816.309 1.183.153.375.564.588.875 1.029.161.229.223.532.36.72.182.249.43.48.668.72.237.237.547.385.771.617.209.218.316.542.515.72.313.282.746.497 1.131.771.374.268.84.362 1.234.617.303.196.489.557.771.721.723.418 1.498.313 2.314.463.315.058.521.334.823.411.451.115.992.101 1.389.052.347-.044.654-.248 1.08-.258.482-.011.908.3 1.389.36.457.058.984-.112 1.543-.103 1.017.017 2.172.2 3.035.103.875-.099 1.499-.812 2.314-1.132.534-.209 1.173-.12 1.749-.257.564-.134 1.401-.781 1.902-1.132.552-.384 1.04-1.053 1.903-.977.127.693-.233 1.35-.411 1.954-.192.654-.326 1.309-.617 1.903-.559 1.14-1.414 2.098-1.903 3.188-.11.247-.094.538-.206.771-.202.423-.695.759-1.028 1.285-.302.478-.463 1.137-.823 1.389-.226.159-.745.312-1.08.411-2.71.801-6.322 1.199-9.875.823-2.167-.224-3.772-.547-5.453-1.282zm72.568 30.858c.498.183.173 1.094.103 1.595-.094.674-.071 1.503-.257 1.852-.229.43-1.018.674-1.491.978-.562.359-1.014.719-1.492.925-1.184.512-2.441.65-3.908.926-.974.184-1.861.591-2.88.669-1.843.142-3.784.103-5.709.103-1.909 0-3.816.186-5.657-.103-1.06-.166-2.261-.781-3.394-.978-1.175-.202-2.372-.261-3.344-.668-.831-.35-1.729-.862-2.674-1.286-.522-.234-1.01-.562-1.491-.771-.218-.095-.542-.104-.771-.205-.376-.165-.79-.494-1.234-.721-1.149-.585-2.015-.857-2.829-1.954-.156-.211-.27-.518-.411-.72-.382-.546-.558-1.416.206-1.852.036-.021.043-.034.103-.052.833-.241 1.698.99 2.366 1.338.322.168.71.201 1.079.359.622.267 1.293.652 1.955.978.64.313 1.293.739 1.954.926.423.119.85.023 1.285.103.373.068.711.37 1.08.463.342.086.755.06 1.132.154.927.232 1.795.715 2.623.72.55.004 1.226-.245 1.8-.154.652.104 1.234.597 1.749.721.428.103.872.007 1.285.051.69.074 1.33.357 2.006.412.372.029.763-.081 1.132-.052.374.029.751.268 1.131.309.631.067 1.441-.012 2.108-.103.316-.044.601-.231.926-.258.928-.075 1.678.288 2.623.104.514-.102.88-.448 1.389-.515.358-.047.704.126 1.132.103.852-.046 3.413-1.196 4.011-1.594.308-.204.758-.748 1.08-1.08.247-.259.857-.88 1.284-.723zm-4.166-7.2c.427.235.886.366 1.183.565 1.126.753 2.302 2.415 2.16 4.114-.028.341-.299.527-.359.874-.071.41.199.832-.104 1.234-.384.1-.765-.115-1.285-.052-.584.072-1.135.574-1.8.721-.374.082-.832.05-1.234.154-.383.099-.721.392-1.08.463-.739.146-1.511.027-2.16.205-.38.104-.689.402-1.028.463-.469.085-1.017-.059-1.543-.051-.564.008-1.217.067-1.697.154-.39.07-.714.325-1.028.359-.292.032-.626-.094-.978-.103-.342-.009-.664.073-.978.052-1.976-.139-4.252-.509-6.068-.566-.337-.01-.637.079-.926.052-.385-.037-.727-.312-1.131-.411-.784-.191-1.618-.272-2.418-.515-.801-.242-1.594-.409-2.314-.617-1.943-.562-3.901-1.978-5.605-3.086-.473-.307-1.76-.94-1.8-1.389-.049-.543.828-1.127 1.132-1.183.434-.079 1.046-.408 1.594-.446 1.768-.124 3.58-.711 5.451-1.028 4.557-.773 9.707-1.66 14.278-2.521.912-.172 1.836-.442 2.726-.515.663-.054 1.228.021 1.852-.051.38-.044.642.357 1.237.559 1.576.537 2.452 1.75 3.923 2.565zm19.234-42.686c-.301.475-.626.736-1.028 1.337-.49.733-.867 1.521-1.286 2.264-.837 1.484-1.56 2.98-2.313 4.68-.695 1.565-1.203 3.251-2.881 3.908-.857.336-3.663.292-4.937.104-.89-.132-1.687-.326-2.675-.566-1.102-.268-2.727-.178-2.571-1.594.054-.486.511-.954.823-1.44.279-.435.62-.92.874-1.337.551-.904 1.324-2.044 1.646-2.829.367-.895.717-1.85 1.183-2.776.373-.742.942-2.228 1.595-2.314.388-.052.687.273 1.028.411.694.278 1.505.439 2.058.669.351.146.665.501.977.565.651.135 2.682.084 3.292-.052.404-.09.825-.366 1.234-.514.96-.348 1.469-.749 2.263-1.234.328-.201.736-.705 1.08-.721.701-.033-.233 1.236-.362 1.439zm-19.131 8.948c-.535-.055-.856-2.184-.721-3.034.134-.837.996-2.084 1.491-3.034 1.03-1.973 2.05-4.025 3.035-6.017.528-1.069 1.042-2.13 1.646-2.932.699-.396 1.221 1.797 1.131 2.828-.098 1.123-.984 2.24-1.491 3.24-1.011 1.997-2.117 3.995-3.24 6.12-.396.753-1.182 2.898-1.851 2.829zm20.161-20.982c.215.699.203 1.301.309 2.108.049.378.271.732.309 1.028.05.406-.108.879-.154 1.389-.037.401.014.806-.052 1.132-.454 2.239-2.146 3.681-3.96 4.577-.985.486-2.236.924-3.857.668-1.028-.162-2.529-.442-3.188-.822-.317-.183-.979-.677-1.183-1.132-.204-.453-.214-1.115-.309-1.697-.082-.499-.369-1.188.051-1.646.535.119.879.594 1.338.978.4.335.858.876 1.388.977.343.065.628-.069.978-.051.514.027.972.26 1.389.205.303-.039.662-.298 1.08-.463.912-.36 1.171-.647 1.8-1.337.643-.704.953-1.602 1.183-2.726.259-1.265.092-2.345-.411-3.24-.266-.473-.668-.822-.926-1.234-.1-.158-.157-.455-.309-.72-.344-.6-.422-.894-.052-1.852.174-.447.776-1.419 1.08-1.389.494.049.821.708 1.132 1.08.874 1.053 1.933 2.767 2.364 4.167zm-8.898 5.503c-.038-.285.211-.537.411-.874a6.19 6.19 0 0 0 .411-.823c.468-1.15.768-1.65 1.286-2.726.205-.426.224-.865.669-.978.868-.219 1.314.999 1.285 1.954-.022.76-.248 1.838-.565 2.366-.232.387-.629.511-.771.771-.188.344-.145.761-.411.926-.637.394-2.232.005-2.315-.616zm28.697-52.047c-.337.524-.675 1.155-1.08 1.646-.243.293-.662.405-.874.72-.224.332-.239.808-.463 1.183-.332.554-.996.943-1.338 1.491-.16.258-.232.559-.411.823-.471.699-.886 1.482-1.337 2.263-.296.513-.739.899-1.028 1.389-.158.266-.256.562-.412.823-.583.976-1.294 1.935-1.748 3.085-.122.31-.08.632-.206.978-.063.173-.314.495-.463.72-.162.248-.318.501-.463.72-.32.485-.821.847-1.08 1.286-.149.254-.17.577-.309.823-.128.229-.344.379-.514.617-.343.478-.46 1.078-.721 1.543-.25.448-.758.755-.926 1.183-.097.249-.087.798-.205 1.132-.167.47-.656.904-.978 1.491-.301.55-.802.912-1.08 1.389-.142.243-.183.544-.309.771-.125.227-.327.395-.463.617-.281.462-.4.999-.668 1.439-.201.332-.474.585-.721.875-.463.545-.742 1.291-1.131 1.954-.199.339-.32.733-.515 1.028-.285.434-.925.76-1.234 1.234-.312.479-.546 1.244-.926 1.8-.211.31-.564.472-.72.721-.13.208-.205.633-.36.925-.299.565-.782 1.07-1.131 1.697-1.308 2.356-2.599 4.851-3.96 7.252-.711 1.252-1.26 2.257-2.006 3.6-.363.653-.917 1.489-1.234 1.543-.752.128-1.251-.755-2.16-.72-.646.024-1.46.477-1.8.926-.157.208-.223.643-.411.978-.229.404-.793.698-.978 1.183-.202.53-.268 1.102-.515 1.594-.229.459-.524.871-.771 1.338-.953 1.797-1.961 3.553-2.982 5.399-.506.914-1.291 1.912-1.491 2.675-.403 1.536.266 2.85.668 4.165.245.801.406 1.771.771 2.058.749.587 2.148.218 2.777 1.08.261 4.394.304 8.988.463 13.577.052 1.492.021 3.01.154 4.475.159 1.749 1.031 4.232-.515 5.091-.417.232-1.169.355-1.954.463-.925.127-1.469.483-2.16.566-.998.118-1.898.124-2.828.309-1.742.345-3.552.549-5.4.874-1.697.299-3.322.604-5.194.926-5.873 1.007-11.669 2.255-17.331 3.395-1.626.327-3.279.613-4.886 1.028-3.923 1.015-7.97 1.48-12.292 2.52-.385.093-.756.241-1.131.36-.376.119-.745.312-1.081.36-1.011.143-1.918.094-2.88.309-.914.204-1.864.231-2.778.411-1.791.353-3.537.865-5.4.874-.774-.186-.768-1.152-1.234-1.646.181-.474-.257-.93-.257-1.44 0-.314.197-.638.206-.977.013-.494-.174-.966-.206-1.491-.124-2.023.07-4.304 0-6.583-.016-.524.014-1.07-.052-1.595-.317-2.522-.124-5.612-.103-8.177.002-.275-.121-.56-.103-.823.028-.425.423-.812.463-1.234.04-.424-.195-.792-.051-1.183.127-.348.393-.566.72-.617.458-.07.681.336 1.131.411.956.16 2.415.082 3.447.052 1.29-.038 2.951-.491 4.32-.771.458-.094.875-.331 1.286-.411.631-.123 1.391-.064 1.903-.258.296-.111.747-.516 1.132-.926.364-.39.908-.698 1.079-1.08.108-.24.147-.548.258-.822.117-.292.332-.567.463-.874.169-.397.248-.829.411-1.184.19-.413.646-.679.771-.977.118-.279.053-.617.154-.926.227-.691.669-1.5.978-2.263.824-2.045 1.62-3.983 2.468-6.12.374-.942 1.156-2.203 1.132-3.138-.011-.406-.291-.982-.617-1.183-.196-.12-.719-.206-.978-.309-.807-.32-1.797-1.158-2.313-1.749-.294-.334-.405-.896-.771-.977-.842-.187-1.524.845-2.058 1.234a40.298 40.298 0 0 1-2.932 1.954c-.837.514-2.254 1.436-3.395 1.491-.313.016-.643-.158-1.029-.154-.342.004-.743.174-1.183.206-.435.031-.948-.038-1.337 0-.335.032-.696.248-.979.205-.362-.055-.688-.512-.771-.874-.113-.489.182-1.001.154-1.491-.016-.29-.338-.748-.36-1.08-.017-.261.166-.546.154-.823-.015-.356-.235-.626-.257-.926-.026-.345.089-.642.103-.977.066-1.562.256-2.939.617-4.371.123-.489.118-.936.206-1.44.135-.774.55-1.542.669-2.417.144-1.062-.009-2.257.155-3.446.066-.491.243-.981.309-1.697a8.66 8.66 0 0 1 .308-1.646c.155-.545.122-1.173.258-1.748.117-.498.414-.968.514-1.44.058-.271-.04-.57 0-.874.034-.256.261-.566.309-.875.099-.618.095-1.368.154-2.108.056-.675.173-1.372.206-2.057.032-.656.1-1.299.309-1.954.322-1.009.092-1.73.771-2.16.309-.195.708-.155 1.08-.258.411-.112.802-.36 1.235-.514.418-.148.885-.271 1.285-.412 1.74-.614 3.161-1.48 5.041-1.8.397-.067.863.04 1.285-.051.232-.051.365-.256.617-.412.23-.143.516-.209.72-.309.476-.23.864-.541 1.338-.668.53-.143 1.021.021 1.543-.104.456-.108 1.072-.355 1.543-.514.735-.249 1.536-.605 2.313-.926a31.155 31.155 0 0 1 4.835-1.543c.846-.194 1.761-.376 2.52-.669.434-.167.728-.466 1.184-.617.979-.324 2.055-.518 3.085-.771 1.912-.471 3.796-1.324 5.606-2.057.912-.37 1.837-.823 2.726-1.08.37-.107.764-.076 1.131-.154.448-.096.931-.365 1.44-.566.487-.192 1.052-.28 1.543-.463.956-.357 1.984-.779 2.982-1.028.494-.124.981-.114 1.44-.206.438-.087.766-.335 1.183-.462.677-.207 1.34-.201 1.954-.412.454-.155.767-.485 1.184-.668.694-.307 1.429-.275 2.263-.412.369-.061.635-.365.977-.463.387-.11.686-.086 1.08-.257.609-.263 1.193-.342 2.006-.514.374-.079.708-.314 1.08-.411.476-.124.97-.118 1.44-.257 1.21-.359 2.472-.934 3.754-1.337.629-.198 1.312-.254 1.954-.462 2.96-.96 6.064-1.889 9.104-2.829a35.232 35.232 0 0 1 1.852-.514c.618-.155 1.123-.511 1.696-.668.339-.093.693-.06 1.029-.154.824-.233 1.797-.544 2.726-.823a393.913 393.913 0 0 0 7.148-2.211c1.185-.381 2.387-.894 3.549-1.131.409-.084.797-.05 1.183-.154.35-.095.684-.229 1.028-.309.683-.157 1.269-.511 1.955-.669.166-.038.334-.039.565.103.349.736-.266 1.359-.615 1.9z"/><path d="M166.175 109.704c-.843-.023-1.79-.15-2.828-.103-.631.029-1.257.25-1.903.309-.396.036-.794-.03-1.183 0-.521.04-1.028.191-1.543.206-.271.007-.553-.071-.823-.051-.475.035-.951.33-1.439.36-.259.016-.496-.102-.771-.103-.422-.001-.852.172-1.286.206-.35.027-.712-.023-1.08 0-.432.027-.886.197-1.285.206-.237.005-.483-.109-.72-.103-.29.008-.581.143-.875.154-.372.014-.757-.118-1.131-.103-.778.031-1.617.358-2.469.463-1.182.145-2.105.266-3.446.36-.311.022-.633.144-.926.154-.441.016-.839-.085-1.233 0-.381.082-.573.355-.978.463-.432.115-.971.067-1.491.154-.416.069-.835.305-1.234.36-.331.045-.695-.047-1.029 0-.405.058-.775.293-1.183.36-.462.076-.952.037-1.439.103-.425.057-.824.281-1.234.36-.289.056-.575.008-.874.052-1.652.241-3.196.705-4.732 1.183-.204.063-.383.221-.566.257-.238.047-.52-.028-.771 0-.721.079-1.451.407-2.108.463-.284.024-.587-.079-.874-.051-.583.055-1.152.309-1.75.411-.581.1-1.212.249-1.8.309-.638.065-7.526 1.981-8.139 2.086-.598.102-1.21.354-1.8.514-.569.154-1.241.448-1.851.154-.154-.813.571-1.139 1.028-1.44.8-.526 1.5-.74 2.52-1.08.253-.084.489-.25.72-.309.312-.079 6.871-2.014 7.213-2.086.316-.066.585-.228.926-.309 1.076-.255 2.322-.48 3.446-.72.944-.202 2.14-.51 3.189-.72.316-.063.667-.038.977-.103.289-.061.547-.213.823-.257.601-.096 1.216.032 1.801-.051.364-.052.895-.223 1.286-.36.38-.133.656-.459 1.028-.514.298-.044.623.085.926.051.379-.042.701-.349 1.08-.411.351-.058.727.043 1.08 0 .39-.047.874-.202 1.285-.309.433-.112.869-.155 1.286-.257.293-.071.525-.288.822-.36.931-.227 1.902-.229 2.829-.412.534-.105 1.021-.357 1.543-.463.99-.199 2.009.379 2.88.192.424-.091.747-.342 1.131-.36.448-.021.754.177 1.132.154.388-.023.768-.318 1.183-.412.499-.112 1.084-.072 1.646-.154.544-.08 1.086-.227 1.646-.309.629-.092 1.283-.264 1.8-.309.885-.078 1.918.048 2.932.103 1.255.067 2.458-.015 3.651 0 .958.012 1.881-.19 2.726-.14.736.043 1.806-.301 2.366 0 .826.446.382 1.639-.107 2.212z"/><path fill="#901536" d="M187.981 203.252c-.155.49-2.249.772-2.776.36-.435-.339-.52-1.634-.36-2.366.245-1.127.9-2.383 1.234-3.6.115-.422.14-.844.257-1.234.114-.378.322-.725.412-1.08.144-.572.12-1.155.309-1.646.201-.526.62-.923.771-1.389.1-.307.06-.697.154-1.028.086-.297.285-.546.36-.823.112-.411.059-.854.103-1.285.053-.516.393-1.088.052-1.492-.424-.168-.746.208-1.132.36-.378.15-.833.184-1.233.309-.225.069-.478.283-.721.309-.755.078-1.524-.378-2.365-.412-.009-.425-.501-1.092-.463-1.491.021-.222.492-.707.72-.823.301-.154.991-.149 1.697-.309.249-.057.483-.205.72-.257.385-.084.8-.058 1.184-.154.233-.059.443-.208.668-.257.268-.059.532-.011.771-.051.352-.059.641-.267.926-.309.204-.03.425.04.617 0 .589-.122 1.104-.592 1.749-.72.327-.065.704.018 1.028-.052.368-.079.616-.363.926-.514.237-.116.555-.145.822-.257.284-.119.505-.315.721-.36.278-.058.595.044.874 0 .359-.056.786-.325 1.132-.463.43-.172.852-.512 1.233-.565 1.126-.159 1.233.707.823 1.542-.465.947-.644 1.212-1.44 1.903-.367.319-.734.769-1.028.823-.255.047-.555-.111-.822-.103-.306.009-.739.185-1.184.257-.434.071-.895.088-1.234.206-.305.105-.523.361-.822.514-.471.241-.802.236-1.028.617-.208.35-.313.902-.463 1.389-.146.472-.29.986-.412 1.44-.249.932-.436 1.992-.771 2.931-.216.607-.579 1.111-.72 1.697-.328 1.366-.542 2.916-.463 4.423.021.413.302.917.257 1.338-.031.3-.352.738-.514.874-.285.237-.905.259-.978.72-.085.535.385.598.409 1.028zM171.37 206.699c-.162-.592.336-1.124.463-1.749.061-.296.047-.648.104-.977.058-.341.21-.646.257-.978.046-.331-.021-.679 0-1.028.064-1.069.873-2.108 0-3.034-1.303.217-2.678.31-3.703.822-.657.329-1.243.888-1.902 1.234-.649.342-1.52.523-2.264.874-.258.122-.448.293-.668.36-.909.278-2.104.223-2.469.926-.097.187-.084.592-.154.978-.105.574-.126.958-.206 1.696-.092.856-.498 1.681 0 2.469-.55.96-2.062 1.973-3.497 1.234.234-1.349.589-2.641.926-4.012.102-.412.354-.836.411-1.233.038-.262-.046-.521 0-.771.054-.291.306-.571.36-.875.18-.999-.195-2.231-.052-3.394.039-.316.217-.578.258-.875.071-.518-.046-1.101 0-1.594.027-.3.146-.565.154-.823.007-.242-.103-.52-.104-.771-.001-.32.111-.725.154-1.131.119-1.107.175-2.361.669-2.932.461-.532 1.844-1.153 2.417-.309-.65 1.033-.399 2.347-.565 3.908-.052.483-.182 1.128-.257 1.8-.091.799-.715 3.265.051 3.446.521.123 1.03-.683 1.389-.823.276-.108.629-.067.926-.154.404-.118.736-.361 1.132-.463.474-.12 1.016-.127 1.491-.257.326-.089.616-.332.926-.411.44-.113.865-.13 1.285-.258 1.283-.388 3.64-.624 4.269-1.8.328-.612.624-1.769.721-2.726.039-.393-.027-.794 0-1.183.031-.452.212-.877.257-1.286.103-.92-.069-1.71.154-2.674.095-.695 3.008-1.367 3.343-.309.091.286-.304.549-.463.926-.135.32-.196.8-.309 1.234-.295 1.142-.594 2.632-.72 4.062-.21 2.384-.718 4.895-.874 7.2-.035.516.116.924.103 1.285-.012.301-.217.542-.257.926-.086.806.173 1.816.051 2.366-.275 1.235-2.747 1.758-3.807 1.084zM194.616 204.693c-.536.039-.913-.081-1.44-.052-.636-.614-1.039-1.881-.668-2.828.507-1.296 2.754-1.232 3.754-.515.219.156.633.64.617 1.028-.037.943-1.907 1.509-2.263 2.367z"/><path d="M151.93 208.344c-.009.952-.959 1.692-1.44 2.366-.186.259-.275.593-.463.822-.125.154-.423.307-.617.515-.233.249-.319.504-.515.617-.417.241-2.009.727-2.828.411-.416-.16-.855-1.243-1.646-1.234-.295.004-.848.358-1.234.565-.319.171-.587.501-.875.566-.725.163-1.287-.3-1.902-.258-.299.021-.778.381-1.132.463-.216.051-.504 0-.771.052-.506.099-.668.18-1.285.206-1.822.075-3.534 2.122-4.886 1.543-.31-.133-.479-.937-.926-.926-.558.012-.798 1.041-1.44 1.285-.316.12-.681.122-1.132.052.031-.424-.151-.861-.051-1.389.04-.212.328-.443.463-.771.102-.248.065-.541.154-.72.201-.405.935-.978 1.183-1.08.884-.368 1.789.094 2.212.565.362.405.244.736.617.823.241.056.653-.191.977-.258.729-.149 1.48-.098 2.108-.257.408-.104.69-.487 1.132-.669.201-.082.425-.079.617-.154.421-.164.7-.522 1.08-.668.716-.274 1.462-.073 2.314-.309.533-.147.833-.804 1.337-1.132.337-.219.898-.549 1.234-.565.213-.011.489.186.823.257.674.145 1.228.15 1.646.463.575.43.625.958 1.183.978.571.021 1.063-.617 1.543-1.028.703-.602 1.446-1.551 2.52-1.131zM183.25 215.699c-.143.606-.772.89-1.285 1.337-.294.256-1.101 1.083-1.543 1.183-.375.085-.888-.06-1.337 0-.578.078-1.49.512-2.263.463-.615-.038-1.263-.558-2.16-.463-.88.094-1.157.961-1.852 1.286-.432.202-.855.124-1.389.257-.477-.47-.665-1.265-1.491-1.285-.846-.021-.948.936-1.595 1.594-.262.267-1.104.774-1.595.823-.361.036-.763-.187-1.183-.154-.363.027-.841.281-1.285.411-.463.136-.929.239-1.286.411-.809.39-1.402 1.172-2.211 1.492-.419.165-.891.141-1.338.257-.458.119-1.02.343-1.439.515-.661.27-1.059.916-1.595 1.337-.738.58-2.017 1.387-2.88 1.234-.556-.098-.697-.68-1.08-.771-.505-.122-1.168.2-1.852.103-.424-.061-.647-.292-.977-.309-.769-.039-1.619.569-2.469.771-.262.062-.605.043-.823.103-.306.084-.714.374-1.08.617-.336.224-.76.615-1.08.617-.423.003-.589-.449-1.028-.565-.362-.095-.567.189-.874-.103.072-.541.382-1.181.771-1.543.183-.171.664-.354.874-.515.602-.46 1.045-1.173 1.646-1.285.272-.051.586.088.874.051.754-.095 1.318-.776 1.955-.874.4-.062.916-.016 1.234.052.317.066.559.352.926.411.444.073 1.051-.055 1.594 0 .655.066 2.193.282 2.932.103.371-.09.68-.392 1.08-.617.887-.499 1.898-1.339 3.086-1.594.202-.044.454.006.668-.052.35-.094.66-.499.978-.668.686-.366 1.509-.238 2.16-.566.403-.203.629-.972 1.08-1.131.716-.254 1.668.052 2.314-.206.385-.154.481-.535.771-.771.171-.139.955-.669 1.184-.72.464-.104 1.493.009 2.006.103.545.1 1.081.511 1.748.463.407-.029.66-.399 1.08-.565.375-.148 1.005-.36 1.389-.412.342-.046.684.066 1.028.052.268-.011.521-.147.771-.154.484-.012.946.224 1.491.206.432-.015.878-.254 1.338-.309.229-.027.451.041.668 0 1.083-.207 1.924-1.212 3.344-.62zM174.867 229.122c-.072.385-.399.778-.771 1.028-.624.421-1.332.9-2.263 1.029-.488.066-1.023-.073-1.491.051-.514.137-.908.726-1.389.823-.593.12-1.126-.114-1.646 0-.442.097-.672.571-.978.926-.399.464-.979 1.06-1.852 1.028-.354-.013-.596-.295-1.028-.257-.401.035-.605.46-1.028.72-.501.308-1.148.616-1.852.669-.321.023-.65-.092-.978-.052-.508.062-.868.521-1.337.617-.178.036-.399-.062-.617-.052-.643.033-1.155.475-1.748.669-.353.115-.954.281-1.286.257-.275-.02-.53-.308-.823-.309-.394-.001-.711.395-1.08.463-.372.069-.819-.066-1.285 0-.492.07-1.065.419-1.646.565-.354.09-.728.065-1.029.154-.566.17-1.236.824-2.006.823-.832-.001-1.429-.84-2.313-.771-.141-.226-.276-.498-.258-.771.027-.396.824-1.392 1.234-1.594.286-.142.863-.242 1.286-.258.305-.011.608.117.926.104.299-.014.495-.19.771-.258.551-.134 1.181-.128 1.748-.309.452-.143.848-.459 1.286-.565.487-.119 1.097.02 1.646-.052.365-.047.689-.316.978-.359.741-.111 1.504.114 2.16.103a8.023 8.023 0 0 0 1.594-.206c.358-.085.603-.341.926-.463a7.219 7.219 0 0 1 1.749-.411c.369-.034.76.061 1.183 0 .308-.044.578-.316.926-.411.608-.167 1.331-.049 1.852-.154.707-.145 1.073-.932 1.697-1.234.525-.256 1.273-.119 2.057-.309.54-.131.925-.683 1.491-.874.685-.232 1.664-.018 2.521-.154.3-.049.523-.265.771-.309.694-.126 1.348-.027 1.902.103zM175.381 240.076c-.46.504-.894 1.417-1.543 1.852-.161.107-.846.47-1.028.515-.701.171-1.294-.034-2.058 0-1.009.044-2.069 1.08-3.086.926-.441-.067-.768-.721-1.131-.771-1-.142-1.602.869-2.16 1.234-.383.25-.92.528-1.646.565-.344.018-.64-.118-.978-.052-.421.083-.556.562-.926.823-.383.27-1.281.73-1.748.72-.749-.018-.964-.704-.978-1.389-.722.213-.742.993-1.183 1.44-.23.233-.678.446-1.028.617-.303.147-.772.499-1.08.514-.444.021-.784-.489-1.234-.463-.48.029-.748.734-1.184.875-.292.094-.555.015-.822.051-.54.074-1.09.486-1.646.206-.25-.479-.096-1.168-.669-1.234-.563-.064-1.259.851-1.852.978-.26.056-.575-.042-.823 0-.664.113-1.306 1.111-2.211 1.337-.673.168-1.321.246-1.954.463-.407.14-.766.422-1.028.463-.285.045-.557-.079-.823-.052-.743.076-1.404.838-2.16 1.029-1.153.291-1.3-.224-1.183-1.234.09-.776.11-1.639.72-1.801.356-.094.76.162 1.183.154.3-.005.699-.21 1.132-.359.369-.128.793-.199 1.132-.309.366-.119.673-.396 1.028-.463.756-.143 1.449-.021 2.108-.206.323-.091.606-.34.926-.463.443-.17.945-.112 1.389-.257.559-.183.931-.888 1.491-.978 1.208-.192 2.408.533 3.601.36.294-.043.539-.307.822-.36.67-.125 1.396-.07 2.108-.257.488-.128.874-.594 1.286-.823.529-.294 1.39-.646 1.852-.668.532-.026 1.029.392 1.543.359.388-.023.654-.318 1.028-.411.896-.223 1.858.022 2.777-.257.395-.12.684-.484 1.08-.617.324-.109 1.025-.217 1.389-.258.765-.085 1.568.275 2.211.104.508-.136.813-.771 1.234-.926.854-.313 1.771-.157 2.829-.309.712-.103 1.144-.597 1.748-.874.57.016 1.247-.078 1.545.206zM175.587 250.825c-.234.652-.69 1.333-1.184 1.852-.705.742-1.671 1.313-2.776 1.8-.593.261-1.202.714-1.955.823-.605.087-1.251-.002-1.852 0-1.148.002-2.466.054-3.548-.104-.354-.051-.665-.198-.978-.154-.807.114-1.251 1.268-1.954 1.595-.47.219-1.679.421-2.058.309-.461-.138-.412-.639-.874-.669-.83-.054-.965 1.104-1.697 1.389-.263.103-.519.052-.72.103-.412.104-.758.427-1.286.258-.629-.616.657-2.35-.617-2.521-.398-.054-1.422.454-1.646.669-.371.355-.355.978-.617 1.389-.283.443-.783.719-1.337.977-.368.172-.735.527-1.44.36-.486-.115-.505-.643-.977-.72-1.369-.224-1.997 1.653-3.651 1.646-.532-.003-1.276-.437-2.109-.206-.568.158-.889.82-1.439 1.08-.231.109-.527.107-.823.206-.62.206-1.223.726-1.852.874-.298.07-.606-.009-.926.052-.521.1-.866.558-1.337.72-.276.096-.633.068-.926.154-.653.192-1.142.674-1.697.926-.188.085-.454.07-.668.154-.343.135-.558.423-.771.463-.327.062-.668-.094-.926-.052-.529.087-.791.635-1.234.875-.829.447-1.776.506-2.624.463-.626-.743-.269-1.3.258-1.903.254-.292.396-.639.617-.823.354-.294 1.243-.682 2.006-.771.592-.068.964.113 1.595 0 .289-.052.607-.236.977-.359.336-.112.728-.147 1.029-.257.347-.127.635-.387.977-.515.876-.327 1.845-.525 2.726-.823.399-.135.787-.32 1.184-.463.422-.151.886-.209 1.234-.359.418-.182.62-.633.977-.771.902-.351 2.178-.111 3.086-.309.54-.117.962-.932 1.44-1.234.353-.224 1.314-.596 1.8-.669.743-.112 1.538.168 2.417-.051.725-.181 1.182-.862 1.749-1.184.875-.496 2.567-1.029 4.011-.617.268.077.482.395.926.463.609.095 1.654-.305 2.675-.309.521-.002.935.173 1.439.052.452-.108.906-.425 1.338-.617 1.062-.476 1.977-.419 3.497-.411.471.002.98-.091 1.439-.052.336.029.696.166 1.08.154.2-.006.409-.111.72-.154.57-.078 1.297.015 1.697-.052.636-.104 1.469-.807 2.058-1.183.234-.149.542-.224.72-.36.232-.178.318-.482.565-.668.59-.446 1.616-.9 2.262-.466z"/></g><path fill-rule="evenodd" clip-rule="evenodd" d="M119.322 129.195s.015-.049.051-.051c.668-.033 1.12.652 1.131 1.131.008.322-.343.649-.463.977-.329.902-.386 2.202-.514 3.497-.302 3.056-.565 6.11-.823 9.206-.051.615 0 1.234-.051 1.8-.034.372-.195.703-.206 1.029-.01.296.108.595.103.874-.006.323-.15.623-.154.926-.004.288.126.626.154.977.032.396-.067.807-.051 1.183.017.424.243.849.154 1.234-.084.363-.774.797-1.131.771-.336-.024-1.613-1.258-1.697-1.646-.043-.199.109-.468.103-.72-.011-.398-.197-.828-.206-1.183-.024-.975.142-1.878.206-2.829.115-1.716-.163-3.604-.051-5.451.09-1.488.416-3.026.617-4.475.217-1.558.283-3.206.617-4.474.066-.251.232-.454.309-.72.122-.425.079-.812.206-1.028.163-.28 1.241-.973 1.696-1.028zM147.198 125.75c.409.494.162 1.183.052 1.697-.125.585-.204 1.187-.309 1.749-.209 1.121-.613 2.258-.668 3.395-.046.931 0 1.879-.104 2.829-.096.879-.592 1.622-.668 2.571-.052.638.005 1.311-.052 2.006-.1 1.208-.27 2.491-.36 3.754-.094 1.317-.247 2.677-.205 3.857.015.417.305.987.154 1.44-.307.919-2.206.984-2.572.154-.091-.207-.059-.66-.103-1.028-.151-1.273-.259-2.74.052-3.96.119-.469.214-.949.309-1.337.074-.306.26-.521.257-.823-.003-.316-.28-.59-.309-.875-.021-.218.129-.492.154-.771.029-.322-.03-.692 0-1.08.055-.696.319-1.457.36-2.108.018-.28-.073-.575-.052-.823.049-.554.305-1.168.411-1.8.104-.61.307-1.205.412-1.8.099-.555.007-1.123.051-1.646.019-.219.181-.446.206-.72.055-.588-.064-1.256.052-1.697.069-.264.331-.431.463-.771.127-.33.107-.722.205-.926.221-.458 1.275-1.378 2.006-1.286.086.009.174-.009.258-.001zM92.145 152.463c-.26 0-.521-.005-.784-.017-.53-.024-.953-.25-1.293-.431-.158-.084-.321-.171-.417-.192-.856-.186-2.117-.971-2.17-1.004-.243-.152-.399-.345-.503-.473-.023-.029-.045-.06-.072-.086l-.003.001a.524.524 0 0 1-.112-.035 3.021 3.021 0 0 1-.483-.226c-1.726-1.056-3.118-2.818-3.722-4.714a8.34 8.34 0 0 1-.232-1.001c-.051-.271-.1-.545-.181-.801a1.644 1.644 0 0 0-.122-.239 2.782 2.782 0 0 1-.303-.682 3.346 3.346 0 0 1-.083-.618c-.007-.1-.01-.204-.031-.304-.024-.114-.072-.224-.113-.33-.086-.22-.184-.469-.212-.755-.049-.489.012-.957.072-1.41.035-.268.073-.541.077-.813.002-.168-.04-.386-.084-.616-.051-.261-.109-.557-.121-.875-.021-.56.035-1.125.09-1.671.025-.251.05-.501.066-.746.013-.203.003-.405-.005-.602a5.939 5.939 0 0 1 .009-.878c.039-.366.151-.696.25-.987.076-.22.147-.429.157-.574a1.646 1.646 0 0 0-.038-.297 3.185 3.185 0 0 1-.067-.69c.017-.532.193-.999.348-1.41.102-.271.199-.526.225-.738 0-.041-.014-.099-.022-.157-.028-.186-.063-.416-.027-.68.05-.367.226-.652.354-.861.06-.099.123-.2.14-.259.024-.082.032-.17.044-.259.027-.193.058-.388.112-.57.072-.244.179-.472.284-.686.046-.094.097-.18.119-.265.034-.124.043-.288.054-.478.015-.257.034-.514.09-.767.147-.661.415-1.251.651-1.771.158-.349.307-.677.396-.974.049-.163.076-.312.103-.455.059-.312.126-.666.326-1.052.214-.414.525-.695.774-.921.165-.149.307-.278.375-.397.022-.047.041-.113.064-.18.044-.133.092-.271.149-.401.042-.095.088-.186.134-.278.128-.253.177-.348.148-.588l-.041-.336.172-.292c.508-.859.903-1.529 1.059-2.437l.037-.213.122-.179c.296-.438.508-.932.732-1.455.223-.52.454-1.058.788-1.597.131-.21.286-.366.41-.491.049-.049.103-.094.141-.15.151-.266.28-.597.416-.949.116-.297.233-.597.37-.884.135-.283.274-.567.414-.85.156-.317.312-.633.459-.947.276-.586.63-1.094.974-1.586.319-.457.62-.888.819-1.331.043-.095.073-.254.105-.422.045-.238.095-.475.176-.695.096-.26.23-.49.359-.713.053-.092.107-.185.155-.277.055-.104.088-.221.125-.333a3.95 3.95 0 0 1 .237-.597c.136-.257.322-.438.458-.57.043-.042.092-.081.127-.131.039-.07.064-.164.096-.255.062-.183.14-.41.27-.629.138-.233.302-.409.434-.549.061-.065.144-.153.164-.189.069-.126.12-.25.172-.371a5.34 5.34 0 0 1 .308-.635c.073-.125.131-.255.191-.385.084-.182.168-.363.27-.537.17-.295.373-.549.551-.773.134-.168.27-.333.375-.515.072-.124.122-.261.175-.396.084-.214.171-.425.281-.621.124-.22.267-.43.41-.637.094-.137.188-.271.269-.409.109-.187.198-.378.287-.569.083-.177.166-.353.258-.526.147-.276.344-.515.535-.746.101-.123.205-.245.287-.368.054-.081.09-.18.133-.28.092-.213.191-.431.322-.634.118-.182.258-.354.404-.53.117-.141.242-.283.34-.454.345-.601.779-1.191 1.612-1.437l.138-.041 1.07-.002.089.709c.254.486.218.979.195 1.293-.007.095-.019.191-.01.286.005.05.044.16.078.256.069.196.154.439.181.732.071.79.009 1.593-.051 2.37a32.75 32.75 0 0 0-.05.709c-.047.832-.004 1.737.037 2.612l.015.319c.003.063.038.188.068.299.056.2.125.45.137.732.012.273-.031.514-.064.708-.016.091-.037.182-.038.275-.02 1.444.104 2.978.225 4.461.047.577.094 1.155.133 1.732.147 2.165.312 4.376.473 6.559l.295 4.032c.024.337.027.674.029 1.009.001.284.003.566.022.845.016.232.066.458.112.686a7.3 7.3 0 0 1 .144.896c.019.232 0 .469-.026.707-.011.106-.026.212-.022.318.016.444.059.894.102 1.349.042.449.084.904.106 1.363.029.604.143 1.219.263 1.871.157.846.318 1.722.295 2.625-.009.358.007.715.023 1.072.02.449.038.9.02 1.359-.013.34.027.711.07 1.104.042.387.083.776.085 1.166.001.23.024.457.046.684.034.354.072.756.046 1.183-.031.519-.001 1.086.03 1.688.038.72.078 1.464.02 2.235-.013.184-.006.367-.001.551.007.243.013.486-.004.728-.013.199-.016.399-.019.598-.004.27-.009.539-.031.807a4.606 4.606 0 0 1-.178.866 7.317 7.317 0 0 0-.102.396 28.435 28.435 0 0 0-.441 2.585c-.067.528-.341 1.052-.605 1.559-.142.272-.337.646-.367.807-.133.704-.55 1.276-.855 1.694-.089.122-.173.234-.234.337-.463.78-1.38 1.921-2.112 2.481-.53.406-1.123.624-1.646.817-.339.125-.659.243-.906.391-1.486.893-3.356 1.083-4.338 1.117-.462.016-.921.043-1.38.07-.745.044-1.487.088-2.236.088zm9.244-57.899c-.051.17-.107.34-.183.5a4.702 4.702 0 0 1-.46.737c-.096.133-.195.263-.265.405-.091.186-.168.375-.247.565a9.419 9.419 0 0 1-.386.853l-.21.396c-.739 1.386-1.503 2.82-2.119 4.259-.064.151-.103.313-.145.474a4.758 4.758 0 0 1-.28.841c-.144.31-.332.558-.498.777-.09.119-.183.235-.253.363a7.189 7.189 0 0 0-.317.633c-.034.08-.052.164-.074.248a4.07 4.07 0 0 1-.179.565c-.193.463-.458.87-.713 1.263-.225.348-.438.675-.572.998-.052.125-.083.266-.119.409a5.21 5.21 0 0 1-.245.783c-.167.391-.393.761-.612 1.119-.104.171-.211.345-.31.521-.105.187-.225.376-.345.566-.185.292-.376.594-.46.827-.114.315-.2.674-.29 1.042-.122.497-.248 1.01-.439 1.502a2.555 2.555 0 0 1-.395.65c-.04.052-.084.1-.114.156-.007.032-.008.095-.015.158-.019.175-.045.415-.14.669a8.015 8.015 0 0 1-.436.925c-.105.2-.212.402-.302.611-.11.257-.193.529-.276.797-.087.283-.175.562-.28.825-.116.292-.273.529-.411.739-.089.135-.199.303-.221.382-.028.104-.031.232-.041.361a4.07 4.07 0 0 1-.116.78c-.207.745-.487 1.497-.757 2.224-.133.357-.267.716-.394 1.079l-.076.216c-.35.997-.711 2.027-.981 3.052-.302 1.144-.519 2.487-.729 3.787a92.684 92.684 0 0 1-.283 1.69c-.044.244-.105.494-.166.743-.089.358-.172.697-.178.953-.003.151.031.315.06.486.04.235.079.478.093.722.037.674.1 1.164.16 1.64.033.256.065.509.093.782.307 2.976.643 3.583 1.456 5.052l.239.434c.412.754 1.184 1.16 2.079 1.629l.44.234c.188.102.36.22.531.341.126.089.25.182.395.25 1.104.518 2.185.77 3.304.77.244 0 .494-.012.75-.037.3-.03.646-.035.993-.039.391-.004.926-.01 1.132-.081a11.593 11.593 0 0 0 1.657-.713c.271-.136.553-.277.896-.432 1.111-.501 2.263-2.112 2.679-3.747.23-.903.389-1.675.485-2.36.04-.28.137-.512.215-.698.031-.073.078-.185.085-.224.011-.148.027-.306.043-.464.033-.313.063-.609.051-.903a8.133 8.133 0 0 1 .026-.86c.017-.239.035-.485.025-.733-.018-.436.057-.853.124-1.221.032-.175.064-.343.077-.496.014-.182.017-.36.021-.54.005-.268.012-.538.041-.821.089-.855.043-1.8-.005-2.8a50.73 50.73 0 0 1-.051-1.29c-.016-.636-.078-1.282-.143-1.965-.078-.807-.158-1.643-.158-2.482 0-1.563-.162-3.199-.318-4.78-.117-1.184-.238-2.407-.293-3.608-.081-1.761-.2-3.563-.32-5.38-.159-2.394-.322-4.87-.398-7.286-.014-.46-.045-.923-.076-1.382-.069-1.035-.141-2.105-.02-3.091.022-.179-.006-.392-.039-.637a7.496 7.496 0 0 1-.06-.582 7.332 7.332 0 0 1 .003-.61c.008-.232.019-.485-.011-.779-.038-.382-.028-.774-.019-1.154.01-.393.019-.765-.026-1.058-.007-.05-.041-.133-.077-.221-.031-.089-.072-.192-.107-.309z"/><path fill="#FFF" d="M103.61 87.33c.029 0 .033.026.036.053.309.39.107.872.154 1.337.035.339.227.643.257.977.085.947-.05 2.001-.103 2.932-.056.989.006 2.038.052 3.034.016.349.191.69.206 1.029.013.307-.099.61-.103.926-.028 2.048.217 4.171.36 6.274.239 3.515.522 7.155.769 10.594.044.621.009 1.244.051 1.852.038.54.213 1.057.257 1.594.026.319-.063.65-.052.977.031.888.165 1.795.208 2.726.071 1.492.594 2.97.558 4.423-.02.806.075 1.598.043 2.417-.03.763.15 1.538.154 2.314.004.608.132 1.188.095 1.8-.074 1.216.151 2.565.051 3.909-.032.429.023.858-.005 1.286-.031.465-.01.929-.049 1.389-.029.354-.167.706-.26 1.131-.177.81-.327 1.649-.457 2.674-.085.666-.842 1.661-.963 2.306-.127.675-.704 1.264-.966 1.705-.425.715-1.258 1.737-1.86 2.198-.729.558-1.711.695-2.46 1.146-1.083.65-2.538.929-3.857.974-1.199.042-2.381.157-3.581.157-.246 0-.492-.005-.739-.016-.545-.025-1.019-.487-1.543-.601-.502-.109-1.383-.581-1.852-.875-.202-.126-.306-.373-.514-.514-.191-.13-.468-.186-.668-.309-1.422-.87-2.728-2.396-3.292-4.166-.176-.552-.228-1.219-.412-1.8-.101-.319-.333-.576-.412-.874-.064-.247-.039-.573-.103-.875-.076-.358-.28-.695-.309-.977-.066-.653.144-1.38.154-2.109.007-.51-.187-1.027-.206-1.542-.028-.74.104-1.55.154-2.314.033-.503-.047-1 0-1.44.056-.528.373-1.063.411-1.594.025-.352-.114-.688-.103-1.029.022-.685.479-1.347.566-2.057.034-.274-.085-.577-.051-.823.042-.307.349-.585.463-.977.075-.257.076-.559.154-.823.109-.369.333-.687.411-.977.113-.42.06-.86.154-1.286.219-.98.776-1.835 1.029-2.674.153-.509.142-.915.36-1.337.259-.501.834-.76 1.131-1.286.097-.171.155-.436.257-.668.174-.395.441-.713.36-1.389.49-.83.99-1.649 1.183-2.777.662-.976.917-2.078 1.542-3.086.147-.237.422-.416.566-.668.329-.579.523-1.273.823-1.903.287-.602.595-1.207.875-1.8.489-1.039 1.333-1.896 1.8-2.931.167-.371.17-.808.309-1.183.102-.275.308-.576.463-.874.156-.298.218-.656.36-.926.125-.237.416-.401.566-.668.15-.267.208-.618.36-.875.169-.287.462-.485.617-.771.182-.336.27-.647.463-.977.177-.303.29-.626.463-.926.265-.458.664-.835.926-1.286.188-.325.282-.707.463-1.029.203-.361.468-.688.668-1.028.219-.374.367-.759.566-1.131.175-.329.54-.681.771-1.029.174-.261.266-.621.463-.926.219-.338.543-.631.771-1.028.305-.531.57-.842 1.028-.977.009-.003.014-.003.019-.003m-9.402 62.015c.276 0 .559-.013.849-.042.74-.073 1.782.025 2.349-.168 1.208-.412 1.662-.738 2.642-1.18 1.445-.651 2.757-2.526 3.237-4.412.184-.723.384-1.602.506-2.468.045-.323.28-.634.306-.977.036-.489.119-.966.097-1.492-.02-.496.075-1.042.051-1.594-.022-.53.16-1.121.198-1.594.036-.449.011-.872.06-1.337.137-1.318-.017-2.786-.051-4.217-.035-1.455-.301-2.952-.3-4.423 0-2.794-.485-5.654-.612-8.434-.188-4.107-.585-8.441-.717-12.651-.046-1.49-.263-3.015-.103-4.32.059-.478-.069-.924-.092-1.389-.021-.422.046-.863-.011-1.44-.07-.702.055-1.564-.051-2.263-.053-.346-.248-.597-.257-.875-.011-.33.13-.729.103-1.337-.013-.292.052-1.185-.334-1.185l-.026.001c-.416.26-.488.711-.771 1.234-.215.398-.546.738-.668.977-.138.27-.175.594-.309.875-.192.404-.527.738-.72 1.131-.224.455-.376.936-.617 1.389-.818 1.537-1.675 3.115-2.366 4.731-.176.411-.224.882-.412 1.286-.182.39-.514.706-.72 1.08a8.478 8.478 0 0 0-.36.72c-.112.26-.135.531-.257.823-.321.769-.952 1.459-1.286 2.263-.146.353-.192.791-.36 1.183-.213.498-.575 1.009-.874 1.542-.284.505-.691 1.034-.875 1.543-.269.746-.408 1.717-.72 2.52-.117.3-.413.524-.514.823-.089.263-.056.561-.154.823-.183.489-.498.974-.72 1.491-.23.536-.358 1.126-.566 1.646-.175.437-.554.805-.668 1.234-.086.32-.059.789-.154 1.132-.293 1.054-.744 2.133-1.131 3.24-.382 1.091-.78 2.205-1.08 3.343-.452 1.712-.713 3.809-1.029 5.555-.112.62-.347 1.278-.36 1.851-.008.385.129.833.154 1.286.059 1.056.175 1.677.257 2.468.357 3.464.81 4.029 1.812 5.863.638 1.169 1.808 1.661 2.92 2.263.34.185.617.448.977.617 1.074.505 2.306.865 3.727.865m9.402-64.015h-.221l-.23.05-.066.015-.065.019c-1.181.349-1.794 1.198-2.197 1.9-.041.071-.143.193-.241.311-.14.168-.313.377-.476.627a5.017 5.017 0 0 0-.4.781c-.021.05-.041.1-.064.146-.061.087-.136.173-.208.26-.202.244-.453.548-.647.913-.1.188-.191.379-.281.571-.089.189-.166.353-.245.488-.068.115-.149.229-.229.346a8.92 8.92 0 0 0-.458.715c-.155.275-.257.535-.339.744-.037.093-.087.22-.11.261-.055.095-.17.24-.292.393-.19.239-.427.536-.635.895-.116.202-.215.41-.312.62-.046.1-.09.202-.146.299-.167.285-.276.541-.364.746-.03.07-.059.142-.094.215l-.05.054c-.148.158-.372.396-.566.725-.182.308-.282.602-.355.815a.771.771 0 0 1-.009.026 3.124 3.124 0 0 0-.609.787c-.148.28-.233.541-.302.751-.021.065-.041.133-.068.196-.035.066-.082.145-.127.224-.136.235-.306.528-.431.866-.121.328-.177.622-.222.857-.015.08-.026.161-.05.237-.146.319-.421.713-.712 1.131-.35.501-.747 1.069-1.059 1.732a56.23 56.23 0 0 1-.452.931c-.141.287-.282.575-.419.861-.158.332-.286.662-.399.952a8.14 8.14 0 0 1-.308.73l-.026.026c-.143.144-.359.361-.549.667-.375.604-.631 1.203-.858 1.731-.214.499-.398.93-.642 1.288l-.243.358-.073.426c-.125.727-.46 1.294-.884 2.013l-.05.085-.344.583.073.612-.039.076a6.112 6.112 0 0 0-.157.326c-.07.159-.129.326-.183.487l-.002.008a6.007 6.007 0 0 1-.159.146c-.277.25-.695.629-.992 1.204-.267.516-.355.984-.42 1.325-.021.11-.04.227-.078.353-.07.232-.206.532-.35.849-.256.565-.546 1.205-.716 1.966-.08.359-.098.674-.113.927a4.748 4.748 0 0 1-.018.249l-.055.111a5.256 5.256 0 0 0-.345.842c-.083.28-.118.533-.144.717l-.01.074-.036.058c-.154.252-.413.673-.492 1.249-.054.394-.006.734.025.945a5.778 5.778 0 0 1-.146.412c-.174.46-.39 1.033-.412 1.73-.012.371.042.676.083.898l.015.084-.096.288c-.111.324-.249.728-.299 1.207-.04.375-.026.72-.013 1.024.007.187.015.363.006.496-.016.233-.04.472-.063.711-.055.553-.118 1.18-.094 1.81.015.393.083.744.138 1.026.028.145.067.342.066.411-.002.194-.035.438-.069.697-.064.486-.136 1.037-.075 1.642.042.421.177.766.275 1.018.024.061.052.124.07.188.002.028.003.087.007.145.013.208.031.492.113.805.108.411.285.721.402.926l.052.091c.05.173.093.399.138.638.064.342.137.729.262 1.121.675 2.118 2.228 4.086 4.153 5.264.195.12.383.202.532.261.139.16.345.371.635.552.237.148 1.457.893 2.436 1.121.071.03.139.071.209.109.383.204.962.512 1.717.547.278.013.555.018.831.018.789 0 1.554-.045 2.294-.089.451-.027.902-.053 1.355-.069 1.318-.045 3.223-.301 4.818-1.259.166-.1.443-.202.737-.31.561-.207 1.259-.464 1.909-.961.858-.657 1.858-1.915 2.363-2.765.047-.079.114-.164.183-.258.335-.46.84-1.152 1.022-2.056.042-.117.184-.389.279-.571.291-.558.621-1.189.71-1.894.113-.891.249-1.685.427-2.5.027-.121.059-.235.089-.344.079-.286.177-.642.21-1.05.024-.289.03-.581.035-.874.002-.181.004-.363.017-.546a7.87 7.87 0 0 0 .005-.823c-.005-.171-.01-.333-.001-.449.062-.833.019-1.645-.019-2.361-.03-.572-.059-1.112-.031-1.574.031-.505-.012-.949-.049-1.339-.021-.218-.041-.423-.042-.595-.002-.457-.05-.887-.091-1.267-.039-.355-.075-.69-.065-.956.02-.513 0-.985-.02-1.441-.016-.355-.03-.69-.022-1.004.025-1.007-.146-1.934-.312-2.831-.114-.617-.222-1.201-.248-1.737-.022-.475-.066-.944-.109-1.409a23.168 23.168 0 0 1-.098-1.292c.001-.05.011-.112.018-.174.024-.226.058-.535.029-.894a8.331 8.331 0 0 0-.162-1.017c-.043-.211-.084-.411-.094-.555-.018-.257-.018-.519-.02-.781-.002-.341-.004-.694-.032-1.074-.095-1.322-.194-2.672-.295-4.034-.162-2.181-.325-4.391-.472-6.553-.04-.581-.087-1.164-.134-1.745-.124-1.527-.241-2.97-.222-4.366.003-.019.014-.067.022-.117.038-.215.095-.542.079-.923a4.062 4.062 0 0 0-.173-.957c-.012-.043-.025-.086-.035-.13l-.013-.269c-.041-.849-.082-1.728-.038-2.508.013-.223.031-.454.049-.689.06-.779.128-1.663.05-2.535-.038-.418-.156-.753-.233-.975l-.021-.06.007-.078c.03-.404.089-1.198-.393-1.986a2.027 2.027 0 0 0-1.798-1.087zm-11.483 31.059a3.36 3.36 0 0 0 .474-.819c.215-.552.354-1.122.478-1.625.088-.357.17-.694.259-.94.047-.13.23-.419.364-.63.13-.206.259-.41.372-.611.094-.167.193-.33.292-.49.237-.389.482-.79.678-1.246.15-.352.231-.675.296-.935.023-.094.042-.188.074-.271.097-.234.286-.525.486-.833.267-.411.569-.876.797-1.422.117-.281.18-.524.225-.701.011-.045.021-.089.036-.132.068-.156.172-.351.264-.518.023-.042.11-.157.173-.24.176-.233.417-.552.607-.958.175-.375.267-.727.341-1.01.032-.123.072-.275.097-.334.598-1.4 1.352-2.814 2.082-4.182l.106-.199c-.003.155-.003.305.004.454.011.22.038.441.067.661.018.137.043.325.037.386-.132 1.079-.058 2.197.015 3.278.03.447.06.898.074 1.346.076 2.434.241 4.918.399 7.321.118 1.776.239 3.613.319 5.36.056 1.228.179 2.464.297 3.661.161 1.628.313 3.167.313 4.682 0 .887.082 1.747.162 2.578.064.665.124 1.293.139 1.894.011.436.031.875.053 1.313.046.961.09 1.869.009 2.648-.035.338-.041.639-.046.905-.003.16-.005.318-.018.481-.01.121-.038.256-.063.396-.072.398-.162.894-.139 1.439.007.176-.008.394-.023.624-.02.29-.042.619-.028.968.009.223-.017.472-.046.761l-.035.356-.02.046c-.09.214-.227.538-.284.946-.091.65-.243 1.387-.463 2.253-.378 1.483-1.395 2.755-2.121 3.083-.359.162-.652.309-.935.45a10.6 10.6 0 0 1-1.531.66c-.101.019-.534.024-.82.027-.354.004-.719.008-1.08.044a6.86 6.86 0 0 1-.653.032c-.969 0-1.911-.221-2.878-.675a2.933 2.933 0 0 1-.244-.162 6.23 6.23 0 0 0-.63-.403 33.046 33.046 0 0 0-.453-.24c-.867-.456-1.412-.758-1.666-1.223l-.242-.439c-.764-1.381-1.05-1.897-1.336-4.67-.029-.281-.062-.541-.095-.805-.061-.481-.119-.937-.154-1.569a7.284 7.284 0 0 0-.105-.833 4.575 4.575 0 0 1-.047-.316c.003-.126.084-.454.149-.716.066-.27.132-.541.18-.805.098-.543.191-1.12.286-1.708.206-1.276.419-2.595.708-3.691.261-.987.615-1.999.958-2.977l.076-.215c.125-.357.256-.71.387-1.061.278-.747.565-1.52.784-2.304.101-.362.127-.699.149-.969l.01-.137.09-.136c.147-.225.35-.532.503-.917.125-.314.222-.625.307-.9.081-.261.157-.506.24-.699.079-.185.175-.363.269-.541.16-.306.342-.653.487-1.04a3.52 3.52 0 0 0 .183-.806z"/><path fill-rule="evenodd" clip-rule="evenodd" d="M93.028 120.188c.046.023.092.045.103.103-.112 1.005-.598 2.205-.823 3.188-.153.669-.577 2.623-.668 2.932-.073.246-1.424 6.397-1.492 6.789-.064.37.013.815-.051 1.234-.12.779-.37 1.497-.309 2.211.236 2.744 1.136 4.659 3.137 5.554 2.024.906 4.2-.508 5.246-1.749.327-.387.452-.941.926-1.183.119 1.689-.306 2.726-1.029 3.703-.655.887-.918 1.344-1.8 2.006-.419.315-.737.379-1.183.522-1.656.53-4.333-.311-5.194-1.234-.195-.209-.304-.266-.514-.522-.271-.331-.739-.477-.926-.72-.119-.154-.48-.861-.565-1.08-.188-.483-.348-1.205-.36-1.697-.009-.357.106-.666.052-1.029-.107-.717-.599-1.071-.515-2.057.031-.358.255-.652.309-1.028.029-.203-.019-.651 0-.875.057-.646.323-1.331.515-2.057.867-3.284 2.249-6.31 3.497-9.257.569-1.346 1.03-2.774 1.644-3.754z"/><path fill="none" stroke="#000" stroke-width="2" stroke-linecap="round" stroke-miterlimit="10" d="M95.327 149.349s-.287 1.649-.437 5.482 0 8 0 8M99.653 148.782s-.287 1.649-.437 5.482 0 8 0 8M104.145 144.302s-.622 5.28-.772 9.113 0 8 0 8"/><path d="M137.788 163.441l-19.676 3.624v11.734l19.662-3.482-.424-6.99z"/></g><g><path d="M71.638 63.892c3.409 0 5.207 2.046 5.207 5.58 0 3.596-2.604 5.642-5.394 5.642-3.41 0-5.146-2.046-5.146-5.642.001-3.534 2.543-5.58 5.333-5.58zm-4.96-37.012h9.671l-1.115 31.246-7.439.31-1.117-31.556zM91.478 63.892c3.409 0 5.207 2.046 5.207 5.58 0 3.596-2.604 5.642-5.394 5.642-3.41 0-5.146-2.046-5.146-5.642.001-3.534 2.543-5.58 5.333-5.58zm-4.96-37.012h9.671l-1.115 31.246-7.439.31-1.117-31.556z"/></g></svg>
